<?xml version="1.0" encoding="utf-8"?>
<!-- Generator: Adobe Illustrator 25.0.0, SVG Export Plug-In . SVG Version: 6.00 Build 0)  -->
<svg version="1.1" id="Layer_1" xmlns="http://www.w3.org/2000/svg" xmlns:xlink="http://www.w3.org/1999/xlink" x="0px" y="0px"
	 viewBox="0 0 512 512" style="enable-background:new 0 0 512 512;" xml:space="preserve">
<style type="text/css">
	.st0{display:none;}
	.st1{display:inline;fill:#1D1D1B;}
	.st2{fill:url(#SVGID_1_);}
	.st3{opacity:0.3;fill:#422052;}
	.st4{fill:none;}
	.st5{fill:url(#SVGID_2_);}
	.st6{fill:url(#SVGID_3_);}
	.st7{fill:url(#SVGID_4_);}
	.st8{fill:url(#SVGID_5_);}
	.st9{fill:url(#SVGID_6_);}
	.st10{fill:url(#SVGID_7_);}
	.st11{fill:url(#SVGID_8_);}
	.st12{fill:url(#SVGID_9_);}
	.st13{fill:url(#SVGID_10_);}
	.st14{fill:url(#SVGID_11_);}
	.st15{fill:url(#SVGID_12_);}
</style>
<g>
	
		<linearGradient id="SVGID_1_" gradientUnits="userSpaceOnUse" x1="415.9232" y1="433.423" x2="81.6058" y2="767.7405" gradientTransform="matrix(1 0 0 -1 0 758.1263)">
		<stop  offset="0" style="stop-color:#EE7E73"/>
		<stop  offset="1" style="stop-color:#422052"/>
	</linearGradient>
	<path class="st2" d="M431.4,420.4c-13.2-36.2-29.2-71.2-48-104.5c-3.3-5.7-6.6-11.4-10-17.1c17.2-17.3,33.4-35.2,48.7-53.7
		c16.7-20.3,32.5-41.1,47.7-62.2c7.5-10.6,15.4-20.8,22.5-32.2c7-11.1,12.9-22.6,19.9-33.6c-9.2,9.2-18,19-26.8,28.3
		c-4.4,4.7-8.9,8.9-13.8,13.4l-14.1,13.4c-18.9,17.7-37.5,35.6-56.7,52.5c-16,14.2-32.2,28-48.8,40.8c-3.7-5.4-7.4-10.7-11.2-15.9
		c-18.6-25.6-39.3-50-62.1-72.7c-143.3-68.2-192.8,0-192.9,0c6.2-7.1,13.7-12,22.4-14.6c14.6-4.7,33.2-2.2,49.5,6.3l6.1,3.5l7.3,4.9
		c4.8,3.2,9.8,6.3,14.3,10.1c4.6,3.7,9.5,7,13.9,10.9l13.5,11.6c25.8,23.6,49.2,50.5,70,79.5c3.8,5.3,7.5,10.6,11.1,16
		c-4.6,2.7-9.3,5.3-14,7.7c-1.1,0.5-2.1,1.1-3.2,1.6c-20.3,10.2-41.1,18.1-61.6,21.5c-10.8,1.7-21.4,2.1-31.6,1.5
		c-10.2-1-20.3-2.5-29.8-6.2c-4.9-1.3-9.4-4-14.1-5.8c-4.6-2.4-9.1-4.9-13.6-7.7c-4.3-3.2-8.9-5.7-12.9-9.4
		c-4.1-3.5-8.6-6.9-11.9-10.4c-12.3-11.9-22-26.7-27.5-42.3c11.8,43.4,48.4,107.8,160.3,134c25.3-7.6,48.3-19.1,69-32.6
		c0.8-0.5,1.5-1,2.3-1.5c4.7-3.2,9.2-6.5,13.7-9.8c1.5,2.6,2.9,5.1,4.4,7.6c1.7,3.3,3.4,6.6,5.2,9.8c4,7.6,8,15.2,11.6,22.9
		c5.5,11.3,10.5,22.8,15.3,34.4H431.4z"/>
	<polygon class="st3" points="293.9,305 332.8,239.1 351.8,265.4 	"/>
	<g>
		<path class="st4" d="M68.4,222.7c0.4,7.7,1.7,19.2,5.3,32.8c-0.9-2.5-1.7-5.1-2.4-7.6C69.3,239.4,68.2,231,68.4,222.7z"/>
		
			<linearGradient id="SVGID_2_" gradientUnits="userSpaceOnUse" x1="44.9794" y1="731.0577" x2="303.2031" y2="205.4426" gradientTransform="matrix(1 0 0 -1 0 758.1263)">
			<stop  offset="0" style="stop-color:#EE7E73"/>
			<stop  offset="1" style="stop-color:#422052"/>
		</linearGradient>
		<path class="st5" d="M85.6,176.8c-4.3,4.9-8,10.8-11,17.8c-4,8.9-5.9,18.4-6.2,28.1c-0.3-6.5,0-10.3,0-10.3s-0.3,3.8,0,10.3
			c-0.2,8.3,0.8,16.8,3,25.2c0.7,2.6,1.5,5.1,2.4,7.6c11.8,43.4,48.4,107.8,160.3,134c-2.2,0.7-4.4,1.3-6.6,1.9
			c-14.5,3.7-29.8,6.1-45.3,6.1c-15.5-0.3-31.4-1.8-46.5-6.3c-7.7-1.7-14.9-4.8-22.2-7.6c-7-3.2-14.1-6.6-20.7-10.4
			c-6.4-4.1-13.3-7.8-19.1-12.4c-6-4.5-12-8.7-17.9-14.4c-23.3-21.4-41.5-49-50.1-80.7c-8.9-31.4-7.4-67.5,6.5-98.5
			c6.7-15.1,16.2-30.2,29.4-42.7c13-12.6,29.3-22.3,46.7-27.6c17.4-5.4,35.5-6.6,52.6-4.4c17.1,2.2,33.4,7.5,48.2,15.1
			c3.6,2,7.4,4,10.7,6.1l8.9,5.8c5.9,3.9,12,7.7,17.5,12.1c5.6,4.3,11.4,8.3,16.7,12.8l16,13.5c6.8,6.1,13.3,12.4,19.7,18.7
			C135.2,108.6,85.7,176.8,85.6,176.8z"/>
	</g>
</g>
</svg>
