<svg id="Layer_1" data-name="Layer 1" xmlns="http://www.w3.org/2000/svg" xmlns:xlink="http://www.w3.org/1999/xlink" viewBox="0 0 820 312"><defs><style>.cls-1{opacity:0.1;}.cls-2{fill:url(#linear-gradient);}.cls-3,.cls-6{fill:#422052;}.cls-3{opacity:0.3;}.cls-4{fill:none;}.cls-5{fill:url(#linear-gradient-2);}.cls-7{fill:url(#linear-gradient-3);}.cls-8{fill:url(#linear-gradient-4);}</style><linearGradient id="linear-gradient" x1="561.77" y1="280.92" x2="244.49" y2="598.2" gradientTransform="matrix(1, 0, 0, -1, 0, 502.13)" gradientUnits="userSpaceOnUse"><stop offset="0" stop-color="#ee7e73"/><stop offset="1" stop-color="#422052"/></linearGradient><linearGradient id="linear-gradient-2" x1="209.74" y1="563.39" x2="454.8" y2="64.57" xlink:href="#linear-gradient"/><linearGradient id="linear-gradient-3" x1="439.74" y1="356.79" x2="377.57" y2="418.96" xlink:href="#linear-gradient"/><linearGradient id="linear-gradient-4" x1="370.76" y1="412.14" x2="418.78" y2="314.4" xlink:href="#linear-gradient"/></defs><g class="cls-1"><path class="cls-2" d="M576.41,312a658,658,0,0,0-45.59-99.17q-4.62-8.18-9.49-16.22,24.45-24.65,46.17-51c15.82-19.29,30.83-39,45.25-59,7.16-10.06,14.61-19.77,21.33-30.56,6.66-10.56,12.28-21.49,18.87-31.93-8.77,8.7-17.06,18-25.42,26.85-4.2,4.45-8.49,8.42-13.08,12.68L601.06,76.34c-17.94,16.83-35.59,33.76-53.81,49.82-15.2,13.45-30.54,26.53-46.33,38.75q-5.22-7.64-10.67-15.11a572.51,572.51,0,0,0-58.9-69c-136-64.69-183,0-183,0A45.51,45.51,0,0,1,269.58,67c13.9-4.43,31.49-2.13,47,6l5.82,3.31,6.88,4.62c4.59,3.09,9.26,6,13.62,9.56s9,6.61,13.24,10.32l12.83,11a492.91,492.91,0,0,1,66.47,75.49c3.6,5,7.14,10,10.58,15.17-4.4,2.54-8.82,5-13.28,7.32-1,.52-2,1-3,1.51-19.24,9.69-39,17.14-58.43,20.36a142.84,142.84,0,0,1-30,1.45c-9.69-1-19.23-2.39-28.24-5.92-4.62-1.24-8.89-3.81-13.38-5.56-4.33-2.3-8.66-4.62-12.87-7.28-4.07-3.06-8.43-5.37-12.29-8.93-3.94-3.3-8.14-6.54-11.33-9.83a106.06,106.06,0,0,1-26.1-40.1c11.2,41.24,45.91,102.28,152.1,127.18a252.89,252.89,0,0,0,65.52-31c.71-.46,1.45-.91,2.15-1.38,4.44-3,8.73-6.13,13-9.27l4.17,7.26q2.44,4.67,4.91,9.32c3.79,7.19,7.56,14.38,11,21.72,5.2,10.75,10,21.67,14.54,32.67Z"/><polygon class="cls-3" points="446 202.46 482.9 139.92 500.92 164.91 446 202.46"/><path class="cls-4" d="M232,124.38a148.74,148.74,0,0,0,5.07,31.1c-.84-2.39-1.6-4.8-2.23-7.22A87.62,87.62,0,0,1,232,124.38Z"/><path class="cls-5" d="M248.31,80.84A64.85,64.85,0,0,0,237.84,97.7,69,69,0,0,0,232,124.38a85.86,85.86,0,0,1,0-9.72,85.86,85.86,0,0,0,0,9.72,87.62,87.62,0,0,0,2.84,23.88c.63,2.42,1.39,4.83,2.23,7.22,11.2,41.24,45.91,102.28,152.1,127.18-2.09.63-4.18,1.27-6.31,1.84a179.4,179.4,0,0,1-43,5.82c-14.73-.26-29.83-1.67-44.14-5.94-7.34-1.66-14.12-4.6-21.09-7.22-6.68-3-13.34-6.27-19.65-9.86-6-3.9-12.6-7.37-18.1-11.8-5.7-4.29-11.42-8.29-17-13.63-22.14-20.3-39.4-46.47-47.53-76.6-8.43-29.8-7-64,6.2-93.45,6.4-14.36,15.4-28.64,27.85-40.54a111,111,0,0,1,44.3-26.14A119,119,0,0,1,300.59,1,138.2,138.2,0,0,1,346.32,15.3c3.4,1.89,7,3.84,10.2,5.75L365,26.59c5.63,3.7,11.35,7.32,16.59,11.44s10.83,7.88,15.88,12.17L412.65,63c6.41,5.78,12.62,11.73,18.7,17.77C295.39,16.11,248.34,80.81,248.31,80.84Z"/></g><path class="cls-6" d="M316.42,209.17V210h-2.76V206h2.71v.8h-1.8v.77h1.55v.73h-1.55v.84Z"/><path class="cls-6" d="M319.87,207.72V210H319V206h.7l1.84,2.31V206h.9V210h-.73Z"/><path class="cls-6" d="M325.16,210V206h.91v3.14H328V210Z"/><path class="cls-6" d="M331.86,210a1.91,1.91,0,0,1-.8-.17,2,2,0,0,1-.61-.46,2.05,2.05,0,0,1-.4-.63,2.12,2.12,0,0,1-.14-.75,1.92,1.92,0,0,1,.15-.74,2.06,2.06,0,0,1,.41-.64,1.82,1.82,0,0,1,.62-.43,1.92,1.92,0,0,1,1.58,0,2,2,0,0,1,.62.46,2,2,0,0,1,.39.64,2.06,2.06,0,0,1,.14.73,1.93,1.93,0,0,1-.15.75,2.05,2.05,0,0,1-.4.63,2.12,2.12,0,0,1-.62.44A1.9,1.9,0,0,1,331.86,210Zm-1-2a1.68,1.68,0,0,0,.06.45,1.2,1.2,0,0,0,.2.37.92.92,0,0,0,.77.37,1,1,0,0,0,.77-.38,1,1,0,0,0,.19-.38,1.61,1.61,0,0,0,.06-.44,1.67,1.67,0,0,0-.06-.44,1.2,1.2,0,0,0-.2-.37,1,1,0,0,0-.32-.26.92.92,0,0,0-.44-.1,1,1,0,0,0-.46.1,1.18,1.18,0,0,0-.32.27,1.23,1.23,0,0,0-.19.38A1.59,1.59,0,0,0,330.84,208Z"/><path class="cls-6" d="M336.11,208a2,2,0,0,1,.13-.71,2.07,2.07,0,0,1,.39-.63,2.2,2.2,0,0,1,.62-.45,2,2,0,0,1,.83-.17,1.85,1.85,0,0,1,1,.24,1.65,1.65,0,0,1,.61.62l-.7.49a.84.84,0,0,0-.17-.26,1.18,1.18,0,0,0-.22-.17.9.9,0,0,0-.25-.08l-.25,0a1,1,0,0,0-.46.11,1.18,1.18,0,0,0-.32.27,1.16,1.16,0,0,0-.18.37,1.29,1.29,0,0,0-.07.43,1.42,1.42,0,0,0,.08.45,1.07,1.07,0,0,0,.2.38.93.93,0,0,0,.33.26.88.88,0,0,0,.43.1l.25,0a1.06,1.06,0,0,0,.25-.09,1.18,1.18,0,0,0,.22-.17.89.89,0,0,0,.16-.25l.74.43a1.16,1.16,0,0,1-.26.39,1.64,1.64,0,0,1-.4.29,2.21,2.21,0,0,1-1,.24,1.73,1.73,0,0,1-.79-.18,2,2,0,0,1-.61-.46,2.28,2.28,0,0,1-.4-.65A2.15,2.15,0,0,1,336.11,208Z"/><path class="cls-6" d="M342.14,210V206h.9v1.7l1.44-1.7h1L344,207.79,345.6,210h-1l-1.12-1.58-.41.43V210Z"/><path class="cls-6" d="M351.52,206l.85,1.81.86-1.81h1l-1.4,2.59V210h-.9v-1.35L350.54,206Z"/><path class="cls-6" d="M358,210a1.91,1.91,0,0,1-.8-.17,2,2,0,0,1-.61-.46,2.05,2.05,0,0,1-.4-.63,2.12,2.12,0,0,1-.14-.75,1.92,1.92,0,0,1,.15-.74,2.06,2.06,0,0,1,.41-.64,1.82,1.82,0,0,1,.62-.43,1.92,1.92,0,0,1,1.58,0,2,2,0,0,1,.62.46,2,2,0,0,1,.39.64,2.06,2.06,0,0,1,.14.73,1.93,1.93,0,0,1-.15.75,1.88,1.88,0,0,1-.4.63,2.12,2.12,0,0,1-.62.44A1.9,1.9,0,0,1,358,210Zm-1-2a1.68,1.68,0,0,0,.06.45,1.2,1.2,0,0,0,.2.37.92.92,0,0,0,.77.37,1,1,0,0,0,.77-.38,1,1,0,0,0,.19-.38,1.62,1.62,0,0,0,.07-.44,1.68,1.68,0,0,0-.07-.44,1.2,1.2,0,0,0-.2-.37,1,1,0,0,0-.32-.26.92.92,0,0,0-.44-.1,1,1,0,0,0-.46.1,1.18,1.18,0,0,0-.32.27,1.23,1.23,0,0,0-.19.38A1.59,1.59,0,0,0,357,208Z"/><path class="cls-6" d="M364.2,209.19a.71.71,0,0,0,.39-.1.78.78,0,0,0,.26-.25,1.35,1.35,0,0,0,.14-.37,2,2,0,0,0,0-.43v-2h.91v2a3.12,3.12,0,0,1-.1.77,1.92,1.92,0,0,1-.32.62,1.49,1.49,0,0,1-.54.41,1.73,1.73,0,0,1-.78.16,2,2,0,0,1-.81-.16,1.54,1.54,0,0,1-.54-.43,1.7,1.7,0,0,1-.3-.62,2.66,2.66,0,0,1-.1-.75v-2h.91v2a2.12,2.12,0,0,0,0,.44,1.14,1.14,0,0,0,.15.36.72.72,0,0,0,.26.26A.75.75,0,0,0,364.2,209.19Z"/><path class="cls-6" d="M368.63,210V206h1.77a1.14,1.14,0,0,1,.52.12,1.35,1.35,0,0,1,.4.31,1.17,1.17,0,0,1,.27.42,1.18,1.18,0,0,1,.1.48,1.42,1.42,0,0,1-.05.36,1.66,1.66,0,0,1-.12.31,1.39,1.39,0,0,1-.21.27.86.86,0,0,1-.26.2l.86,1.46h-1l-.76-1.26h-.59V210Zm.91-2.05h.83a.36.36,0,0,0,.28-.16.6.6,0,0,0,.11-.39.52.52,0,0,0-.13-.38.38.38,0,0,0-.29-.15h-.8Z"/><path class="cls-6" d="M380.86,209a.89.89,0,0,1-.1.44.86.86,0,0,1-.29.31,1.13,1.13,0,0,1-.43.19,2.1,2.1,0,0,1-.51.06h-1.91V206h2.18a.75.75,0,0,1,.37.09.91.91,0,0,1,.28.23,1,1,0,0,1,.18.32,1,1,0,0,1,.07.37,1.08,1.08,0,0,1-.14.53.94.94,0,0,1-.43.38,1,1,0,0,1,.54.35A1.05,1.05,0,0,1,380.86,209Zm-2.34-2.15v.81h.89a.39.39,0,0,0,.27-.1.37.37,0,0,0,.12-.31.41.41,0,0,0-.11-.3.33.33,0,0,0-.24-.1Zm1.42,2a.49.49,0,0,0-.11-.31.32.32,0,0,0-.26-.12h-1.05v.86h1a.37.37,0,0,0,.29-.12A.41.41,0,0,0,379.94,208.77Z"/><path class="cls-6" d="M385.08,209.19a.67.67,0,0,0,.39-.1.69.69,0,0,0,.26-.25.92.92,0,0,0,.14-.37,2,2,0,0,0,.05-.43v-2h.9v2a2.71,2.71,0,0,1-.1.77,1.9,1.9,0,0,1-.31.62,1.62,1.62,0,0,1-.55.41,1.73,1.73,0,0,1-.78.16,1.93,1.93,0,0,1-.8-.16,1.54,1.54,0,0,1-.54-.43,1.9,1.9,0,0,1-.31-.62,3.08,3.08,0,0,1-.09-.75v-2h.91v2a2.12,2.12,0,0,0,0,.44,1.42,1.42,0,0,0,.14.36.92.92,0,0,0,.26.26A.8.8,0,0,0,385.08,209.19Z"/><path class="cls-6" d="M391.88,207.19a.35.35,0,0,0-.12-.09l-.25-.12a1.61,1.61,0,0,0-.33-.12,1.34,1.34,0,0,0-.35-.05c-.32,0-.49.11-.49.33a.23.23,0,0,0,.06.16.31.31,0,0,0,.15.12,1.28,1.28,0,0,0,.26.1l.36.1a4.35,4.35,0,0,1,.51.17,1.27,1.27,0,0,1,.38.22.9.9,0,0,1,.25.33,1.32,1.32,0,0,1,.08.47,1,1,0,0,1-.45.93,1.52,1.52,0,0,1-.47.2,2,2,0,0,1-.55.07,2.25,2.25,0,0,1-.44,0l-.45-.09a2.86,2.86,0,0,1-.41-.15,2.32,2.32,0,0,1-.38-.21l.4-.79.14.11.31.15a3.09,3.09,0,0,0,.4.14,1.68,1.68,0,0,0,.45.06c.32,0,.48-.1.48-.29a.29.29,0,0,0-.07-.19,1.16,1.16,0,0,0-.2-.13,1.89,1.89,0,0,0-.31-.1l-.37-.12a3.3,3.3,0,0,1-.48-.17,1.14,1.14,0,0,1-.32-.23.72.72,0,0,1-.2-.29,1.14,1.14,0,0,1-.06-.39,1.35,1.35,0,0,1,.11-.55,1.26,1.26,0,0,1,.32-.4,1.46,1.46,0,0,1,.46-.25,2,2,0,0,1,.56-.08,1.81,1.81,0,0,1,.4,0l.38.1a2.18,2.18,0,0,1,.34.14l.29.15Z"/><path class="cls-6" d="M394.91,210V206h.91V210Z"/><path class="cls-6" d="M399.47,207.72V210h-.9V206h.71l1.83,2.31V206h.9V210h-.73Z"/><path class="cls-6" d="M407.52,209.17V210h-2.76V206h2.71v.8h-1.8v.77h1.55v.73h-1.55v.84Z"/><path class="cls-6" d="M412.34,207.19a.39.39,0,0,0-.11-.09L412,207a1.61,1.61,0,0,0-.33-.12,1.48,1.48,0,0,0-.35-.05c-.33,0-.49.11-.49.33a.28.28,0,0,0,.05.16.4.4,0,0,0,.16.12,1,1,0,0,0,.25.1l.36.1a4.35,4.35,0,0,1,.51.17,1.47,1.47,0,0,1,.39.22,1,1,0,0,1,.24.33,1.13,1.13,0,0,1,.09.47,1.19,1.19,0,0,1-.13.56,1,1,0,0,1-.33.37,1.34,1.34,0,0,1-.47.2,2,2,0,0,1-.55.07,2.25,2.25,0,0,1-.44,0,3.12,3.12,0,0,1-.44-.09,3,3,0,0,1-.42-.15,2.22,2.22,0,0,1-.37-.21l.4-.79a.8.8,0,0,0,.14.11l.3.15a3.09,3.09,0,0,0,.4.14,1.74,1.74,0,0,0,.45.06c.32,0,.48-.1.48-.29a.25.25,0,0,0-.07-.19.86.86,0,0,0-.2-.13,1.5,1.5,0,0,0-.3-.1l-.38-.12a3.14,3.14,0,0,1-.47-.17,1.38,1.38,0,0,1-.33-.23.7.7,0,0,1-.19-.29.94.94,0,0,1-.07-.39,1.2,1.2,0,0,1,.12-.55,1.13,1.13,0,0,1,.32-.4,1.36,1.36,0,0,1,.46-.25,2,2,0,0,1,.55-.08,1.9,1.9,0,0,1,.41,0l.38.1.34.14.29.15Z"/><path class="cls-6" d="M417.74,207.19a.35.35,0,0,0-.12-.09l-.25-.12a1.61,1.61,0,0,0-.33-.12,1.34,1.34,0,0,0-.35-.05c-.32,0-.49.11-.49.33a.23.23,0,0,0,.06.16.31.31,0,0,0,.15.12,1.28,1.28,0,0,0,.26.1l.36.1a4.35,4.35,0,0,1,.51.17,1.27,1.27,0,0,1,.38.22.9.9,0,0,1,.25.33,1.32,1.32,0,0,1,.08.47,1,1,0,0,1-.45.93,1.52,1.52,0,0,1-.47.2,2,2,0,0,1-.55.07,2.25,2.25,0,0,1-.44,0,3.26,3.26,0,0,1-.45-.09,2.86,2.86,0,0,1-.41-.15,2.32,2.32,0,0,1-.38-.21l.4-.79.14.11.31.15a3.09,3.09,0,0,0,.4.14,1.68,1.68,0,0,0,.45.06c.32,0,.48-.1.48-.29a.26.26,0,0,0-.08-.19.78.78,0,0,0-.19-.13,1.89,1.89,0,0,0-.31-.1l-.37-.12a3.3,3.3,0,0,1-.48-.17,1.14,1.14,0,0,1-.32-.23.72.72,0,0,1-.2-.29,1.14,1.14,0,0,1-.06-.39,1.35,1.35,0,0,1,.11-.55,1.26,1.26,0,0,1,.32-.4,1.46,1.46,0,0,1,.46-.25,2,2,0,0,1,.56-.08,1.81,1.81,0,0,1,.4,0l.38.1a2.18,2.18,0,0,1,.34.14l.3.15Z"/><path class="cls-6" d="M423.54,209.17V210h-2.77V206h2.72v.8h-1.81v.77h1.55v.73h-1.55v.84Z"/><path class="cls-6" d="M428.36,207.19a.35.35,0,0,0-.12-.09L428,207a1.61,1.61,0,0,0-.33-.12,1.34,1.34,0,0,0-.35-.05c-.32,0-.49.11-.49.33a.23.23,0,0,0,.06.16.31.31,0,0,0,.15.12,1.28,1.28,0,0,0,.26.1l.36.1a4.35,4.35,0,0,1,.51.17,1.27,1.27,0,0,1,.38.22.9.9,0,0,1,.25.33,1.32,1.32,0,0,1,.08.47,1,1,0,0,1-.45.93,1.52,1.52,0,0,1-.47.2,2,2,0,0,1-.55.07,2.25,2.25,0,0,1-.44,0l-.45-.09a2.86,2.86,0,0,1-.41-.15,2.32,2.32,0,0,1-.38-.21l.4-.79.14.11.31.15a3.09,3.09,0,0,0,.4.14,1.68,1.68,0,0,0,.45.06c.32,0,.48-.1.48-.29a.29.29,0,0,0-.07-.19,1.16,1.16,0,0,0-.2-.13,1.89,1.89,0,0,0-.31-.1l-.37-.12a3.3,3.3,0,0,1-.48-.17,1.14,1.14,0,0,1-.32-.23.72.72,0,0,1-.2-.29,1.14,1.14,0,0,1-.06-.39,1.35,1.35,0,0,1,.11-.55,1.26,1.26,0,0,1,.32-.4,1.46,1.46,0,0,1,.46-.25,2,2,0,0,1,.56-.08,1.75,1.75,0,0,1,.4,0l.38.1a2.18,2.18,0,0,1,.34.14l.3.15Z"/><path class="cls-6" d="M437.52,206.83h-1.2V210h-.91v-3.13h-1.2V206h3.31Z"/><path class="cls-6" d="M440,210V206h1.77a1.07,1.07,0,0,1,.51.12,1.27,1.27,0,0,1,.41.31,1.51,1.51,0,0,1,.27.42,1.37,1.37,0,0,1,.1.48,1.42,1.42,0,0,1-.05.36,1.2,1.2,0,0,1-.13.31,1.14,1.14,0,0,1-.47.47l.87,1.46h-1l-.75-1.26h-.59V210Zm.91-2.05h.83a.33.33,0,0,0,.27-.16.61.61,0,0,0,.12-.39A.52.52,0,0,0,442,207a.4.4,0,0,0-.29-.15h-.8Z"/><path class="cls-6" d="M447.34,209.19a.71.71,0,0,0,.39-.1.69.69,0,0,0,.26-.25,1.09,1.09,0,0,0,.14-.37,2,2,0,0,0,0-.43v-2h.91v2a2.71,2.71,0,0,1-.1.77,1.74,1.74,0,0,1-.32.62,1.49,1.49,0,0,1-.54.41,1.73,1.73,0,0,1-.78.16,1.9,1.9,0,0,1-.8-.16,1.38,1.38,0,0,1-.54-.43,1.9,1.9,0,0,1-.31-.62,3.08,3.08,0,0,1-.09-.75v-2h.9v2a2.12,2.12,0,0,0,.05.44,1.13,1.13,0,0,0,.14.36.81.81,0,0,0,.26.26A.75.75,0,0,0,447.34,209.19Z"/><path class="cls-6" d="M454.54,209.17V210h-2.76V206h2.71v.8h-1.81v.77h1.55v.73h-1.55v.84Z"/><path class="cls-6" d="M460.36,210V206H462a1.14,1.14,0,0,1,.52.12,1.23,1.23,0,0,1,.4.31,1.32,1.32,0,0,1,.27.42,1.37,1.37,0,0,1,.1.48,1.39,1.39,0,0,1-.1.5,1.43,1.43,0,0,1-.25.43,1.35,1.35,0,0,1-.4.3,1.19,1.19,0,0,1-.51.11h-.8V210Zm.91-2.05H462a.37.37,0,0,0,.28-.14.63.63,0,0,0,.12-.41.53.53,0,0,0,0-.23.4.4,0,0,0-.1-.17.31.31,0,0,0-.13-.1l-.16,0h-.71Z"/><path class="cls-6" d="M467.53,210a1.91,1.91,0,0,1-.8-.17,2,2,0,0,1-.61-.46,1.88,1.88,0,0,1-.4-.63,2.12,2.12,0,0,1-.14-.75,1.92,1.92,0,0,1,.15-.74,2,2,0,0,1,.4-.64,2,2,0,0,1,.63-.43,1.85,1.85,0,0,1,.78-.17,1.91,1.91,0,0,1,.8.17,2,2,0,0,1,.61.46,2.23,2.23,0,0,1,.4.64,2.06,2.06,0,0,1,.14.73,1.93,1.93,0,0,1-.15.75,1.91,1.91,0,0,1-.41.63,2,2,0,0,1-.62.44A1.85,1.85,0,0,1,467.53,210Zm-1-2a1.37,1.37,0,0,0,.07.45,1.18,1.18,0,0,0,.19.37,1,1,0,0,0,.33.27.92.92,0,0,0,.44.1,1,1,0,0,0,.46-.11,1.18,1.18,0,0,0,.32-.27,1.23,1.23,0,0,0,.19-.38,1.61,1.61,0,0,0,.06-.44,1.35,1.35,0,0,0-.07-.44,1.18,1.18,0,0,0-.19-.37.93.93,0,0,0-.33-.26.89.89,0,0,0-.44-.1.93.93,0,0,0-.45.1,1,1,0,0,0-.51.65A1.29,1.29,0,0,0,466.5,208Z"/><path class="cls-6" d="M474.81,206.83h-1.19V210h-.91v-3.13h-1.2V206h3.3Z"/><path class="cls-6" d="M480,209.17V210h-2.76V206H480v.8h-1.8v.77h1.55v.73h-1.55v.84Z"/><path class="cls-6" d="M483.46,207.72V210h-.9V206h.71l1.83,2.31V206h.9V210h-.73Z"/><path class="cls-6" d="M491.74,206.83h-1.19V210h-.91v-3.13h-1.2V206h3.3Z"/><path class="cls-6" d="M494.18,210V206h.91V210Z"/><path class="cls-6" d="M498.9,206h.82l1.43,3.93h-.93l-.3-.88h-1.23l-.29.88h-.94Zm.87,2.43-.46-1.39-.47,1.39Z"/><path class="cls-6" d="M503.53,210V206h.91v3.14h1.9V210Z"/><path class="cls-6" d="M337.07,170.9v4.88h-14a4.54,4.54,0,0,0-3.23.95,3.38,3.38,0,0,0-1,2.56q0,3.32,4.26,3.31h13.73V187H323q-4.26,0-4.26,3.39a3.29,3.29,0,0,0,1,2.58,4.65,4.65,0,0,0,3.18.93h14.15v4.88H323a13.58,13.58,0,0,1-4.24-.58,7.94,7.94,0,0,1-2.89-1.59,5.82,5.82,0,0,1-1.65-2.42,8.56,8.56,0,0,1-.52-3,7.17,7.17,0,0,1,1-4,6.44,6.44,0,0,1,3-2.42c-2.62-1.07-3.93-3.17-3.93-6.28a8.41,8.41,0,0,1,.54-3.06A6.16,6.16,0,0,1,316,173a8,8,0,0,1,2.9-1.58,14.17,14.17,0,0,1,4.24-.55Z"/><path class="cls-6" d="M365.19,177c3.72,0,6.49.83,8.29,2.5a9.11,9.11,0,0,1,2.71,7.05v12.28h-4.42V186.53a5,5,0,0,0-1.55-4c-1-.91-2.71-1.37-5-1.37H358c-.36,0-.54.21-.54.62v17h-4.39V180.37a3.83,3.83,0,0,1,.71-2.67,3.19,3.19,0,0,1,2.35-.72Z"/><path class="cls-6" d="M396.66,167.5v31.31h-4.38V167.5Z"/><path class="cls-6" d="M425.9,177a9.08,9.08,0,0,1,6.91,2.7q2.56,2.72,2.56,8.21t-2.56,8.23a9.07,9.07,0,0,1-6.91,2.69h-4.59a9.07,9.07,0,0,1-6.93-2.69q-2.53-2.69-2.54-8.23t2.54-8.23a9.1,9.1,0,0,1,6.93-2.68Zm-4.18,4.21a5.09,5.09,0,0,0-4.15,1.58q-1.31,1.56-1.3,5.12t1.3,5.11a5.11,5.11,0,0,0,4.15,1.55h3.77a5.09,5.09,0,0,0,4.15-1.55q1.31-1.55,1.31-5.11t-1.31-5.12a5.07,5.07,0,0,0-4.15-1.58Z"/><path class="cls-6" d="M470.24,177v4.21H459.4a5.11,5.11,0,0,0-4.16,1.58c-.86,1-1.3,2.75-1.3,5.12s.44,4.08,1.3,5.11a5.13,5.13,0,0,0,4.16,1.55h10.84v4.26H459a9.07,9.07,0,0,1-6.93-2.69c-1.7-1.79-2.54-4.53-2.54-8.23s.84-6.43,2.54-8.23A9.1,9.1,0,0,1,459,177Z"/><path class="cls-6" d="M489.76,167.5V186h2q1.29,0,2.13-.06a4.33,4.33,0,0,0,1.43-.31,2.58,2.58,0,0,0,1-.74,9.24,9.24,0,0,0,.91-1.37l3.64-6.57h4.76l-3.81,6.86a12.49,12.49,0,0,1-1.69,2.38,6.62,6.62,0,0,1-2.19,1.51,5.45,5.45,0,0,1,2.52,1.47,14.56,14.56,0,0,1,1.94,2.75l3.93,6.86h-4.92l-3.64-6.45a8.34,8.34,0,0,0-.95-1.38,2.9,2.9,0,0,0-1.1-.79,5.66,5.66,0,0,0-1.57-.37,21.74,21.74,0,0,0-2.38-.11h-2v9.1h-4.39V167.5Z"/><path class="cls-7" d="M442.61,163.13a129.55,129.55,0,0,0-8.93-19.44c-.61-1.06-1.23-2.12-1.87-3.17q4.8-4.83,9.05-10c3.1-3.78,6-7.65,8.87-11.57,1.4-2,2.86-3.88,4.18-6s2.4-4.21,3.7-6.26c-1.72,1.71-3.35,3.53-5,5.26-.82.88-1.66,1.65-2.56,2.49L447.44,117c-3.52,3.3-7,6.62-10.55,9.76-3,2.64-6,5.2-9.08,7.59-.68-1-1.37-2-2.09-3a111.09,111.09,0,0,0-11.54-13.53c-26.64-12.67-35.86,0-35.86,0a9,9,0,0,1,4.17-2.72,12.42,12.42,0,0,1,9.2,1.18l1.14.65,1.35.91c.9.6,1.81,1.18,2.67,1.87s1.76,1.3,2.59,2L402,123.9a96.56,96.56,0,0,1,13,14.79c.71,1,1.4,2,2.08,3-.87.5-1.73,1-2.61,1.44l-.59.29a40.57,40.57,0,0,1-11.44,4,28,28,0,0,1-5.89.29,21,21,0,0,1-5.53-1.16,27.28,27.28,0,0,1-2.62-1.09c-.85-.45-1.7-.91-2.53-1.43a28.2,28.2,0,0,1-2.4-1.75c-.78-.65-1.6-1.28-2.23-1.93a20.84,20.84,0,0,1-5.11-7.85c2.2,8.08,9,20,29.8,24.92a49.78,49.78,0,0,0,12.84-6.07l.42-.27c.87-.59,1.72-1.2,2.55-1.82l.82,1.42,1,1.83c.74,1.41,1.48,2.82,2.16,4.26,1,2.1,2,4.24,2.85,6.4Z"/><polygon class="cls-3" points="417.06 141.66 424.28 129.41 427.81 134.31 417.06 141.66"/><path class="cls-4" d="M375.12,126.36a29.16,29.16,0,0,0,1,6.1c-.16-.47-.31-.94-.44-1.42A17.11,17.11,0,0,1,375.12,126.36Z"/><path class="cls-8" d="M378.32,117.83a12.4,12.4,0,0,0-2.05,3.31,13.36,13.36,0,0,0-1.15,5.22,17.4,17.4,0,0,1,0-1.9,17.4,17.4,0,0,0,0,1.9,17.11,17.11,0,0,0,.55,4.68c.13.48.28,1,.44,1.42,2.2,8.08,9,20,29.8,24.92-.41.12-.81.25-1.23.36a35,35,0,0,1-8.43,1.14,32.1,32.1,0,0,1-8.65-1.17,31.54,31.54,0,0,1-4.14-1.41c-1.3-.6-2.61-1.23-3.85-1.93s-2.46-1.45-3.54-2.31a34.76,34.76,0,0,1-3.33-2.67,31.68,31.68,0,0,1-9.31-15,27.32,27.32,0,0,1,1.21-18.32,25.1,25.1,0,0,1,5.46-7.94,21.73,21.73,0,0,1,8.68-5.12,23.34,23.34,0,0,1,9.78-.82,27.27,27.27,0,0,1,9,2.81c.67.37,1.37.75,2,1.13l1.66,1.08c1.1.73,2.22,1.44,3.25,2.24s2.12,1.55,3.11,2.39l3,2.51c1.26,1.14,2.47,2.3,3.66,3.48C387.54,105.15,378.32,117.82,378.32,117.83Z"/><rect class="cls-6" x="795.14" width="24.86" height="312"/><rect class="cls-6" x="751.15" width="24.86" height="312"/><rect class="cls-6" x="43.99" width="24.86" height="312"/><rect class="cls-6" width="24.86" height="312"/></svg>