<?xml version="1.0" encoding="utf-8"?>
<!-- Generator: Adobe Illustrator 25.2.0, SVG Export Plug-In . SVG Version: 6.00 Build 0)  -->
<svg version="1.1" id="Layer_1" xmlns="http://www.w3.org/2000/svg" xmlns:xlink="http://www.w3.org/1999/xlink" x="0px" y="0px"
	 viewBox="0 0 2000 2000" style="enable-background:new 0 0 2000 2000;" xml:space="preserve">
<style type="text/css">
	.st0{display:none;fill:#422052;}
	.st1{fill:#422052;}
	.st2{fill:#EE7E73;}
	.st3{fill:url(#SVGID_1_);}
	.st4{opacity:0.3;fill:#422052;}
	.st5{fill:none;}
	.st6{fill:url(#SVGID_2_);}
	.st7{fill:#FFFFFF;}
</style>
<rect y="0" class="st0" width="2000" height="2000"/>
<g>
	<g>
		<path class="st1" d="M546,1257.94v3.87h-13.4v-19.06h13.16v3.87h-8.75v3.71h7.52v3.57h-7.52v4.05H546z"/>
		<path class="st1" d="M562.76,1250.9v10.9h-4.4v-19.06h3.44l8.89,11.2v-11.2h4.4v19.06h-3.54L562.76,1250.9z"/>
		<path class="st1" d="M588.4,1261.8v-19.06h4.4v15.2h9.24v3.87H588.4z"/>
		<path class="st1" d="M620.91,1261.96c-1.41,0-2.7-0.28-3.87-0.83c-1.16-0.56-2.16-1.29-2.98-2.19c-0.82-0.9-1.46-1.94-1.92-3.1
			c-0.46-1.17-0.68-2.36-0.68-3.6c0-1.25,0.24-2.46,0.71-3.63c0.48-1.16,1.14-2.18,1.99-3.07c0.85-0.89,1.86-1.59,3.02-2.12
			c1.16-0.53,2.43-0.79,3.81-0.79c1.41,0,2.7,0.28,3.87,0.83c1.16,0.56,2.15,1.29,2.98,2.2c0.82,0.91,1.46,1.95,1.91,3.12
			c0.45,1.16,0.67,2.34,0.67,3.54c0,1.25-0.24,2.46-0.71,3.63c-0.47,1.16-1.13,2.18-1.97,3.07s-1.84,1.6-3.01,2.14
			C623.56,1261.7,622.29,1261.96,620.91,1261.96z M615.94,1252.3c0,0.73,0.11,1.45,0.32,2.14c0.22,0.69,0.53,1.3,0.95,1.84
			c0.42,0.54,0.94,0.97,1.57,1.29c0.63,0.32,1.34,0.48,2.15,0.48c0.84,0,1.57-0.17,2.2-0.51s1.15-0.78,1.56-1.33
			c0.41-0.54,0.72-1.16,0.93-1.85c0.21-0.69,0.31-1.39,0.31-2.11c0-0.73-0.11-1.45-0.32-2.13c-0.22-0.69-0.54-1.3-0.97-1.83
			c-0.43-0.53-0.95-0.95-1.57-1.26c-0.62-0.32-1.33-0.47-2.13-0.47c-0.84,0-1.57,0.16-2.19,0.5c-0.62,0.33-1.14,0.77-1.56,1.3
			c-0.42,0.54-0.73,1.15-0.94,1.84C616.04,1250.88,615.94,1251.58,615.94,1252.3z"/>
		<path class="st1" d="M641.53,1252.11c0-1.14,0.22-2.28,0.65-3.42c0.43-1.13,1.05-2.15,1.88-3.05c0.82-0.89,1.83-1.62,3.01-2.17
			c1.18-0.56,2.52-0.83,4.03-0.83c1.79,0,3.34,0.39,4.66,1.16c1.31,0.77,2.29,1.77,2.94,3l-3.38,2.36c-0.22-0.5-0.49-0.92-0.82-1.25
			c-0.33-0.33-0.69-0.6-1.09-0.8c-0.39-0.21-0.8-0.35-1.21-0.43s-0.81-0.12-1.21-0.12c-0.84,0-1.57,0.17-2.2,0.51
			c-0.63,0.34-1.15,0.78-1.56,1.31s-0.71,1.15-0.91,1.83c-0.2,0.68-0.3,1.37-0.3,2.07c0,0.75,0.12,1.47,0.35,2.17
			c0.23,0.7,0.57,1.32,1.01,1.85c0.44,0.54,0.97,0.96,1.58,1.27c0.62,0.32,1.31,0.47,2.08,0.47c0.39,0,0.8-0.05,1.22-0.15
			c0.42-0.1,0.82-0.25,1.21-0.46c0.38-0.21,0.74-0.48,1.06-0.81s0.58-0.74,0.78-1.22l3.6,2.12c-0.29,0.7-0.71,1.33-1.27,1.88
			c-0.57,0.56-1.21,1.02-1.95,1.39c-0.73,0.38-1.51,0.66-2.34,0.86c-0.82,0.2-1.63,0.3-2.42,0.3c-1.38,0-2.64-0.28-3.8-0.84
			c-1.15-0.57-2.15-1.31-2.98-2.24c-0.83-0.93-1.48-1.99-1.93-3.17C641.75,1254.53,641.53,1253.33,641.53,1252.11z"/>
		<path class="st1" d="M670.76,1261.8v-19.06h4.4v8.22l6.98-8.22h4.94l-7.14,8.51l7.62,10.55h-5.02l-5.4-7.68l-1.99,2.06v5.61
			H670.76z"/>
		<path class="st1" d="M716.3,1242.74l4.11,8.76l4.16-8.76h4.8l-6.79,12.57v6.5h-4.38v-6.55l-6.69-12.51H716.3z"/>
		<path class="st1" d="M747.87,1261.96c-1.41,0-2.7-0.28-3.87-0.83c-1.16-0.56-2.16-1.29-2.98-2.19c-0.82-0.9-1.46-1.94-1.92-3.1
			c-0.46-1.17-0.68-2.36-0.68-3.6c0-1.25,0.24-2.46,0.71-3.63c0.48-1.16,1.14-2.18,1.99-3.07c0.85-0.89,1.86-1.59,3.02-2.12
			c1.16-0.53,2.43-0.79,3.81-0.79c1.41,0,2.7,0.28,3.87,0.83c1.16,0.56,2.15,1.29,2.98,2.2c0.82,0.91,1.46,1.95,1.91,3.12
			c0.45,1.16,0.67,2.34,0.67,3.54c0,1.25-0.24,2.46-0.71,3.63c-0.47,1.16-1.13,2.18-1.97,3.07s-1.84,1.6-3.01,2.14
			C750.52,1261.7,749.25,1261.96,747.87,1261.96z M742.9,1252.3c0,0.73,0.11,1.45,0.32,2.14c0.22,0.69,0.53,1.3,0.95,1.84
			c0.42,0.54,0.94,0.97,1.57,1.29s1.34,0.48,2.15,0.48c0.84,0,1.57-0.17,2.2-0.51s1.15-0.78,1.56-1.33
			c0.41-0.54,0.72-1.16,0.93-1.85c0.21-0.69,0.31-1.39,0.31-2.11c0-0.73-0.11-1.45-0.32-2.13c-0.22-0.69-0.54-1.3-0.97-1.83
			c-0.43-0.53-0.95-0.95-1.57-1.26c-0.62-0.32-1.33-0.47-2.13-0.47c-0.84,0-1.57,0.16-2.19,0.5c-0.62,0.33-1.14,0.77-1.56,1.3
			c-0.42,0.54-0.73,1.15-0.94,1.84C743.01,1250.88,742.9,1251.58,742.9,1252.3z"/>
		<path class="st1" d="M777.78,1258.05c0.75,0,1.39-0.16,1.91-0.47c0.52-0.31,0.94-0.73,1.26-1.25c0.32-0.52,0.55-1.11,0.68-1.79
			c0.13-0.67,0.2-1.36,0.2-2.06v-9.75h4.4v9.75c0,1.33-0.16,2.56-0.5,3.71c-0.33,1.15-0.84,2.15-1.53,3.01
			c-0.69,0.86-1.57,1.53-2.63,2.03c-1.06,0.5-2.33,0.74-3.8,0.74c-1.52,0-2.82-0.26-3.89-0.78c-1.07-0.52-1.95-1.21-2.62-2.08
			c-0.67-0.87-1.16-1.87-1.48-3.02c-0.31-1.15-0.47-2.34-0.47-3.6v-9.75h4.4v9.75c0,0.73,0.07,1.43,0.21,2.1
			c0.14,0.66,0.38,1.25,0.7,1.77c0.32,0.52,0.74,0.93,1.25,1.24C776.4,1257.89,777.03,1258.05,777.78,1258.05z"/>
		<path class="st1" d="M799.31,1261.8v-19.06h8.59c0.89,0,1.72,0.19,2.48,0.57c0.76,0.38,1.42,0.87,1.97,1.47
			c0.56,0.61,0.99,1.3,1.3,2.07c0.31,0.77,0.47,1.55,0.47,2.34c0,0.59-0.07,1.16-0.21,1.71c-0.14,0.54-0.35,1.06-0.62,1.54
			c-0.27,0.48-0.6,0.92-0.98,1.3c-0.39,0.38-0.82,0.71-1.3,0.98l4.19,7.09h-4.97l-3.65-6.15h-2.87v6.15H799.31z M803.72,1251.82
			h4.03c0.52,0,0.97-0.24,1.34-0.73c0.38-0.5,0.56-1.13,0.56-1.89c0-0.79-0.21-1.41-0.65-1.88c-0.43-0.46-0.89-0.7-1.4-0.7h-3.89
			V1251.82z"/>
		<path class="st1" d="M858.65,1256.92c0,0.82-0.17,1.54-0.51,2.14c-0.34,0.61-0.8,1.11-1.4,1.52c-0.59,0.4-1.28,0.71-2.07,0.91
			c-0.79,0.2-1.62,0.31-2.5,0.31h-9.29v-19.06h10.61c0.66,0,1.26,0.14,1.8,0.43c0.54,0.29,0.99,0.66,1.37,1.11
			c0.38,0.46,0.67,0.97,0.87,1.56c0.21,0.58,0.31,1.17,0.31,1.79c0,0.91-0.23,1.77-0.68,2.58c-0.46,0.81-1.14,1.41-2.05,1.83
			c1.09,0.32,1.96,0.89,2.59,1.72C858.33,1254.58,858.65,1255.63,858.65,1256.92z M847.29,1246.5v3.95h4.32
			c0.48,0,0.91-0.16,1.29-0.48c0.38-0.32,0.56-0.82,0.56-1.51c0-0.63-0.17-1.11-0.5-1.45c-0.33-0.34-0.73-0.51-1.19-0.51H847.29z
			 M854.16,1256.03c0-0.59-0.17-1.09-0.51-1.51s-0.77-0.62-1.29-0.62h-5.07v4.16h4.89c0.57,0,1.05-0.19,1.42-0.57
			C853.98,1257.13,854.16,1256.64,854.16,1256.03z"/>
		<path class="st1" d="M879.11,1258.05c0.75,0,1.39-0.16,1.91-0.47c0.52-0.31,0.94-0.73,1.26-1.25c0.32-0.52,0.55-1.11,0.68-1.79
			s0.2-1.36,0.2-2.06v-9.75h4.4v9.75c0,1.33-0.16,2.56-0.5,3.71c-0.33,1.15-0.84,2.15-1.53,3.01s-1.57,1.53-2.63,2.03
			c-1.06,0.5-2.33,0.74-3.8,0.74c-1.52,0-2.82-0.26-3.89-0.78c-1.07-0.52-1.95-1.21-2.62-2.08c-0.67-0.87-1.16-1.87-1.48-3.02
			c-0.31-1.15-0.47-2.34-0.47-3.6v-9.75h4.4v9.75c0,0.73,0.07,1.43,0.21,2.1c0.14,0.66,0.38,1.25,0.7,1.77
			c0.32,0.52,0.74,0.93,1.25,1.24C877.72,1257.89,878.35,1258.05,879.11,1258.05z"/>
		<path class="st1" d="M912.07,1248.33c-0.05-0.07-0.24-0.21-0.56-0.4c-0.32-0.2-0.72-0.4-1.21-0.62c-0.48-0.22-1.01-0.4-1.58-0.56
			s-1.15-0.24-1.72-0.24c-1.57,0-2.36,0.53-2.36,1.59c0,0.32,0.09,0.59,0.26,0.81c0.17,0.21,0.42,0.41,0.75,0.58
			c0.33,0.17,0.75,0.33,1.25,0.47c0.5,0.14,1.08,0.3,1.75,0.48c0.91,0.25,1.74,0.52,2.47,0.82c0.73,0.3,1.36,0.66,1.87,1.1
			c0.51,0.44,0.9,0.97,1.18,1.6c0.28,0.63,0.42,1.38,0.42,2.26c0,1.07-0.2,1.98-0.61,2.72c-0.4,0.74-0.93,1.34-1.6,1.8
			c-0.66,0.46-1.42,0.79-2.28,0.99c-0.86,0.21-1.74,0.31-2.66,0.31c-0.7,0-1.42-0.06-2.15-0.16c-0.73-0.1-1.45-0.26-2.15-0.47
			c-0.7-0.21-1.37-0.45-2.03-0.74c-0.65-0.29-1.26-0.62-1.81-0.99l1.93-3.84c0.07,0.09,0.3,0.26,0.7,0.51
			c0.39,0.25,0.88,0.5,1.46,0.75s1.23,0.48,1.95,0.67c0.71,0.2,1.44,0.3,2.17,0.3c1.56,0,2.33-0.48,2.33-1.42
			c0-0.36-0.12-0.66-0.35-0.89c-0.23-0.23-0.56-0.44-0.97-0.63c-0.41-0.19-0.9-0.36-1.46-0.52c-0.56-0.16-1.18-0.34-1.84-0.54
			c-0.88-0.27-1.64-0.56-2.28-0.87c-0.64-0.31-1.18-0.67-1.6-1.09c-0.42-0.41-0.73-0.89-0.94-1.43c-0.21-0.54-0.31-1.16-0.31-1.88
			c0-1,0.19-1.89,0.57-2.66c0.38-0.77,0.88-1.42,1.53-1.95s1.39-0.93,2.24-1.19c0.85-0.27,1.75-0.4,2.7-0.4
			c0.66,0,1.31,0.06,1.96,0.19c0.65,0.12,1.26,0.29,1.85,0.48c0.59,0.2,1.14,0.42,1.65,0.67c0.51,0.25,0.98,0.5,1.41,0.75
			L912.07,1248.33z"/>
		<path class="st1" d="M926.81,1261.8v-19.06h4.4v19.06H926.81z"/>
		<path class="st1" d="M948.94,1250.9v10.9h-4.4v-19.06h3.44l8.89,11.2v-11.2h4.4v19.06h-3.54L948.94,1250.9z"/>
		<path class="st1" d="M987.97,1257.94v3.87h-13.4v-19.06h13.16v3.87h-8.75v3.71h7.52v3.57h-7.52v4.05H987.97z"/>
		<path class="st1" d="M1011.36,1248.33c-0.06-0.07-0.24-0.21-0.56-0.4c-0.32-0.2-0.73-0.4-1.21-0.62c-0.48-0.22-1.01-0.4-1.59-0.56
			c-0.57-0.16-1.14-0.24-1.72-0.24c-1.57,0-2.36,0.53-2.36,1.59c0,0.32,0.08,0.59,0.26,0.81c0.17,0.21,0.42,0.41,0.75,0.58
			c0.33,0.17,0.75,0.33,1.25,0.47c0.5,0.14,1.08,0.3,1.75,0.48c0.91,0.25,1.74,0.52,2.47,0.82c0.73,0.3,1.35,0.66,1.87,1.1
			c0.51,0.44,0.9,0.97,1.18,1.6c0.28,0.63,0.42,1.38,0.42,2.26c0,1.07-0.2,1.98-0.6,2.72c-0.4,0.74-0.94,1.34-1.6,1.8
			c-0.66,0.46-1.43,0.79-2.28,0.99c-0.86,0.21-1.75,0.31-2.66,0.31c-0.7,0-1.41-0.06-2.15-0.16c-0.73-0.1-1.45-0.26-2.15-0.47
			c-0.7-0.21-1.37-0.45-2.02-0.74c-0.66-0.29-1.26-0.62-1.81-0.99l1.93-3.84c0.07,0.09,0.3,0.26,0.7,0.51
			c0.39,0.25,0.88,0.5,1.46,0.75s1.23,0.48,1.95,0.67c0.72,0.2,1.44,0.3,2.18,0.3c1.56,0,2.34-0.48,2.34-1.42
			c0-0.36-0.12-0.66-0.35-0.89c-0.23-0.23-0.56-0.44-0.97-0.63c-0.41-0.19-0.9-0.36-1.46-0.52c-0.56-0.16-1.18-0.34-1.84-0.54
			c-0.88-0.27-1.64-0.56-2.28-0.87c-0.64-0.31-1.18-0.67-1.6-1.09s-0.73-0.89-0.94-1.43c-0.21-0.54-0.31-1.16-0.31-1.88
			c0-1,0.19-1.89,0.56-2.66c0.38-0.77,0.89-1.42,1.53-1.95s1.39-0.93,2.24-1.19c0.85-0.27,1.75-0.4,2.7-0.4
			c0.66,0,1.31,0.06,1.96,0.19c0.64,0.12,1.26,0.29,1.85,0.48c0.59,0.2,1.14,0.42,1.65,0.67c0.51,0.25,0.98,0.5,1.41,0.75
			L1011.36,1248.33z"/>
		<path class="st1" d="M1037.53,1248.33c-0.06-0.07-0.24-0.21-0.56-0.4c-0.32-0.2-0.73-0.4-1.21-0.62c-0.48-0.22-1.01-0.4-1.59-0.56
			c-0.57-0.16-1.14-0.24-1.72-0.24c-1.57,0-2.36,0.53-2.36,1.59c0,0.32,0.08,0.59,0.26,0.81c0.17,0.21,0.42,0.41,0.75,0.58
			c0.33,0.17,0.75,0.33,1.25,0.47c0.5,0.14,1.08,0.3,1.75,0.48c0.91,0.25,1.74,0.52,2.47,0.82c0.73,0.3,1.35,0.66,1.87,1.1
			c0.51,0.44,0.9,0.97,1.18,1.6c0.28,0.63,0.42,1.38,0.42,2.26c0,1.07-0.2,1.98-0.6,2.72c-0.4,0.74-0.94,1.34-1.6,1.8
			c-0.66,0.46-1.43,0.79-2.28,0.99c-0.86,0.21-1.75,0.31-2.66,0.31c-0.7,0-1.41-0.06-2.15-0.16c-0.73-0.1-1.45-0.26-2.15-0.47
			c-0.7-0.21-1.37-0.45-2.03-0.74c-0.66-0.29-1.26-0.62-1.81-0.99l1.93-3.84c0.07,0.09,0.3,0.26,0.7,0.51
			c0.39,0.25,0.88,0.5,1.46,0.75s1.23,0.48,1.95,0.67c0.72,0.2,1.44,0.3,2.18,0.3c1.56,0,2.34-0.48,2.34-1.42
			c0-0.36-0.12-0.66-0.35-0.89c-0.23-0.23-0.56-0.44-0.97-0.63c-0.41-0.19-0.9-0.36-1.46-0.52c-0.56-0.16-1.18-0.34-1.84-0.54
			c-0.88-0.27-1.64-0.56-2.28-0.87c-0.64-0.31-1.18-0.67-1.6-1.09c-0.42-0.41-0.73-0.89-0.94-1.43c-0.21-0.54-0.31-1.16-0.31-1.88
			c0-1,0.19-1.89,0.56-2.66c0.38-0.77,0.89-1.42,1.53-1.95c0.64-0.53,1.39-0.93,2.24-1.19s1.75-0.4,2.7-0.4
			c0.66,0,1.31,0.06,1.96,0.19c0.64,0.12,1.26,0.29,1.85,0.48c0.59,0.2,1.14,0.42,1.65,0.67c0.51,0.25,0.98,0.5,1.41,0.75
			L1037.53,1248.33z"/>
		<path class="st1" d="M1065.67,1257.94v3.87h-13.4v-19.06h13.16v3.87h-8.75v3.71h7.52v3.57h-7.52v4.05H1065.67z"/>
		<path class="st1" d="M1089.06,1248.33c-0.06-0.07-0.24-0.21-0.56-0.4c-0.32-0.2-0.73-0.4-1.21-0.62c-0.48-0.22-1.01-0.4-1.59-0.56
			c-0.57-0.16-1.14-0.24-1.72-0.24c-1.57,0-2.36,0.53-2.36,1.59c0,0.32,0.08,0.59,0.26,0.81c0.17,0.21,0.42,0.41,0.75,0.58
			c0.33,0.17,0.75,0.33,1.25,0.47c0.5,0.14,1.08,0.3,1.75,0.48c0.91,0.25,1.74,0.52,2.47,0.82c0.73,0.3,1.35,0.66,1.87,1.1
			c0.51,0.44,0.9,0.97,1.18,1.6c0.28,0.63,0.42,1.38,0.42,2.26c0,1.07-0.2,1.98-0.6,2.72c-0.4,0.74-0.94,1.34-1.6,1.8
			c-0.66,0.46-1.43,0.79-2.28,0.99c-0.86,0.21-1.75,0.31-2.66,0.31c-0.7,0-1.41-0.06-2.15-0.16c-0.73-0.1-1.45-0.26-2.15-0.47
			c-0.7-0.21-1.37-0.45-2.02-0.74c-0.66-0.29-1.26-0.62-1.81-0.99l1.93-3.84c0.07,0.09,0.3,0.26,0.7,0.51
			c0.39,0.25,0.88,0.5,1.46,0.75c0.58,0.25,1.23,0.48,1.95,0.67c0.72,0.2,1.44,0.3,2.18,0.3c1.56,0,2.34-0.48,2.34-1.42
			c0-0.36-0.12-0.66-0.35-0.89c-0.23-0.23-0.56-0.44-0.97-0.63c-0.41-0.19-0.9-0.36-1.46-0.52c-0.56-0.16-1.18-0.34-1.84-0.54
			c-0.88-0.27-1.64-0.56-2.28-0.87c-0.64-0.31-1.18-0.67-1.6-1.09c-0.42-0.41-0.73-0.89-0.94-1.43c-0.21-0.54-0.31-1.16-0.31-1.88
			c0-1,0.19-1.89,0.56-2.66c0.38-0.77,0.89-1.42,1.53-1.95c0.64-0.53,1.39-0.93,2.24-1.19s1.75-0.4,2.7-0.4
			c0.66,0,1.31,0.06,1.96,0.19c0.64,0.12,1.26,0.29,1.85,0.48c0.59,0.2,1.14,0.42,1.65,0.67c0.51,0.25,0.98,0.5,1.41,0.75
			L1089.06,1248.33z"/>
		<path class="st1" d="M1133.49,1246.61h-5.8v15.2h-4.41v-15.2h-5.82v-3.87h16.03V1246.61z"/>
		<path class="st1" d="M1145.3,1261.8v-19.06h8.59c0.89,0,1.72,0.19,2.48,0.57c0.76,0.38,1.42,0.87,1.97,1.47
			c0.56,0.61,0.99,1.3,1.3,2.07c0.31,0.77,0.47,1.55,0.47,2.34c0,0.59-0.07,1.16-0.22,1.71c-0.14,0.54-0.35,1.06-0.62,1.54
			c-0.27,0.48-0.6,0.92-0.98,1.3c-0.39,0.38-0.82,0.71-1.3,0.98l4.19,7.09h-4.97l-3.65-6.15h-2.87v6.15H1145.3z M1149.71,1251.82
			h4.03c0.52,0,0.97-0.24,1.34-0.73c0.38-0.5,0.56-1.13,0.56-1.89c0-0.79-0.22-1.41-0.64-1.88c-0.43-0.46-0.89-0.7-1.4-0.7h-3.89
			V1251.82z"/>
		<path class="st1" d="M1181.14,1258.05c0.75,0,1.39-0.16,1.91-0.47c0.52-0.31,0.94-0.73,1.26-1.25c0.32-0.52,0.55-1.11,0.68-1.79
			c0.14-0.67,0.2-1.36,0.2-2.06v-9.75h4.41v9.75c0,1.33-0.17,2.56-0.5,3.71c-0.33,1.15-0.84,2.15-1.53,3.01
			c-0.69,0.86-1.57,1.53-2.63,2.03c-1.06,0.5-2.33,0.74-3.8,0.74c-1.52,0-2.82-0.26-3.89-0.78c-1.07-0.52-1.95-1.21-2.62-2.08
			c-0.67-0.87-1.16-1.87-1.47-3.02c-0.32-1.15-0.47-2.34-0.47-3.6v-9.75h4.4v9.75c0,0.73,0.07,1.43,0.22,2.1
			c0.14,0.66,0.38,1.25,0.7,1.77c0.32,0.52,0.74,0.93,1.25,1.24C1179.76,1257.89,1180.39,1258.05,1181.14,1258.05z"/>
		<path class="st1" d="M1216.07,1257.94v3.87h-13.4v-19.06h13.16v3.87h-8.75v3.71h7.52v3.57h-7.52v4.05H1216.07z"/>
		<path class="st1" d="M1244.34,1261.8v-19.06h8.14c0.91,0,1.75,0.19,2.51,0.57c0.76,0.38,1.41,0.87,1.96,1.47
			c0.55,0.61,0.97,1.3,1.29,2.07c0.31,0.77,0.47,1.55,0.47,2.34c0,0.84-0.15,1.65-0.44,2.42c-0.29,0.77-0.71,1.46-1.23,2.06
			c-0.53,0.61-1.17,1.09-1.92,1.45c-0.75,0.36-1.59,0.54-2.5,0.54h-3.86v6.15H1244.34z M1248.75,1251.82h3.59
			c0.52,0,0.97-0.22,1.34-0.67c0.38-0.45,0.57-1.1,0.57-1.96c0-0.45-0.06-0.83-0.18-1.15c-0.12-0.32-0.28-0.59-0.47-0.81
			s-0.42-0.37-0.67-0.47c-0.25-0.1-0.5-0.15-0.75-0.15h-3.43V1251.82z"/>
		<path class="st1" d="M1279.09,1261.96c-1.41,0-2.7-0.28-3.87-0.83c-1.17-0.56-2.16-1.29-2.98-2.19c-0.83-0.9-1.47-1.94-1.92-3.1
			c-0.46-1.17-0.69-2.36-0.69-3.6c0-1.25,0.24-2.46,0.71-3.63c0.47-1.16,1.13-2.18,1.99-3.07s1.86-1.59,3.02-2.12
			c1.17-0.53,2.44-0.79,3.81-0.79c1.41,0,2.7,0.28,3.87,0.83c1.16,0.56,2.16,1.29,2.98,2.2c0.82,0.91,1.46,1.95,1.91,3.12
			c0.45,1.16,0.67,2.34,0.67,3.54c0,1.25-0.24,2.46-0.71,3.63c-0.48,1.16-1.13,2.18-1.97,3.07c-0.84,0.89-1.85,1.6-3.01,2.14
			C1281.74,1261.7,1280.47,1261.96,1279.09,1261.96z M1274.12,1252.3c0,0.73,0.11,1.45,0.32,2.14c0.22,0.69,0.53,1.3,0.95,1.84
			c0.42,0.54,0.95,0.97,1.57,1.29c0.62,0.32,1.34,0.48,2.14,0.48c0.84,0,1.58-0.17,2.2-0.51c0.62-0.34,1.14-0.78,1.55-1.33
			c0.41-0.54,0.72-1.16,0.93-1.85c0.21-0.69,0.31-1.39,0.31-2.11c0-0.73-0.11-1.45-0.32-2.13c-0.22-0.69-0.54-1.3-0.97-1.83
			c-0.43-0.53-0.95-0.95-1.57-1.26c-0.62-0.32-1.33-0.47-2.14-0.47c-0.84,0-1.57,0.16-2.18,0.5c-0.62,0.33-1.14,0.77-1.56,1.3
			c-0.42,0.54-0.73,1.15-0.94,1.84C1274.22,1250.88,1274.12,1251.58,1274.12,1252.3z"/>
		<path class="st1" d="M1314.45,1246.61h-5.8v15.2h-4.41v-15.2h-5.82v-3.87h16.03V1246.61z"/>
		<path class="st1" d="M1339.65,1257.94v3.87h-13.4v-19.06h13.16v3.87h-8.75v3.71h7.52v3.57h-7.52v4.05H1339.65z"/>
		<path class="st1" d="M1356.41,1250.9v10.9H1352v-19.06h3.44l8.89,11.2v-11.2h4.4v19.06h-3.54L1356.41,1250.9z"/>
		<path class="st1" d="M1396.57,1246.61h-5.8v15.2h-4.41v-15.2h-5.82v-3.87h16.03V1246.61z"/>
		<path class="st1" d="M1408.38,1261.8v-19.06h4.41v19.06H1408.38z"/>
		<path class="st1" d="M1431.29,1242.74h3.97l6.95,19.06h-4.51l-1.48-4.27h-5.93l-1.45,4.27h-4.51L1431.29,1242.74z M1435.5,1254.5
			l-2.23-6.74l-2.28,6.74H1435.5z"/>
		<path class="st1" d="M1453.76,1261.8v-19.06h4.41v15.2h9.23v3.87H1453.76z"/>
		<g>
			<path class="st1" d="M646.17,1072.27v23.68h-67.81c-7.22,0-12.44,1.53-15.65,4.61c-3.21,3.08-4.82,7.22-4.82,12.44
				c0,10.7,6.89,16.05,20.66,16.05h66.62v21.48h-67.22c-13.78,0-20.66,5.48-20.66,16.45c0,5.35,1.67,9.53,5.02,12.54
				c3.34,3.01,8.49,4.51,15.45,4.51h68.62v23.68h-68.62c-8.02,0-14.88-0.93-20.57-2.81c-5.69-1.88-10.37-4.44-14.04-7.73
				c-3.68-3.28-6.36-7.19-8.03-11.74c-1.67-4.54-2.51-9.42-2.51-14.65c0-7.75,1.67-14.21,5.02-19.36
				c3.34-5.14,8.16-9.06,14.45-11.74c-12.71-5.21-19.06-15.37-19.06-30.5c0-5.35,0.87-10.29,2.61-14.84
				c1.74-4.55,4.45-8.46,8.13-11.74c3.68-3.28,8.36-5.82,14.05-7.63c5.68-1.8,12.54-2.7,20.57-2.7H646.17z"/>
			<path class="st1" d="M782.61,1101.76c18.06,0,31.47,4.05,40.23,12.14c8.76,8.09,13.14,19.49,13.14,34.2v59.59h-21.47v-59.59
				c0-8.43-2.51-14.84-7.52-19.26c-5.02-4.42-13.14-6.62-24.38-6.62h-34.71c-1.74,0-2.61,1.01-2.61,3.02v82.46h-21.27v-89.49
				c0-6.28,1.14-10.6,3.41-12.94c2.28-2.33,6.09-3.51,11.44-3.51H782.61z"/>
			<path class="st1" d="M935.3,1055.81v151.89h-21.27v-151.89H935.3z"/>
			<path class="st1" d="M1077.14,1101.76c14.05,0,25.22,4.38,33.51,13.14c8.29,8.77,12.44,22.04,12.44,39.83
				c0,17.92-4.15,31.23-12.44,39.93c-8.29,8.7-19.46,13.04-33.51,13.04h-22.27c-14.18,0-25.38-4.34-33.61-13.04
				s-12.34-22.01-12.34-39.93c0-17.92,4.11-31.23,12.34-39.93s19.43-13.04,33.61-13.04H1077.14z M1056.88,1122.22
				c-9.23,0-15.95,2.55-20.17,7.63c-4.21,5.08-6.32,13.37-6.32,24.88c0,11.51,2.1,19.76,6.32,24.78c4.21,5.02,10.94,7.52,20.17,7.52
				h18.26c9.23,0,15.95-2.5,20.17-7.52s6.32-13.27,6.32-24.78c0-11.51-2.1-19.8-6.32-24.88c-4.21-5.08-10.94-7.63-20.17-7.63
				H1056.88z"/>
			<path class="st1" d="M1292.24,1101.76v20.46h-52.57c-9.23,0-15.95,2.55-20.17,7.63c-4.21,5.08-6.32,13.37-6.32,24.88
				c0,11.51,2.1,19.76,6.32,24.78c4.21,5.02,10.94,7.52,20.17,7.52h52.57v20.67h-54.58c-14.18,0-25.38-4.34-33.61-13.04
				c-8.23-8.7-12.34-22.01-12.34-39.93c0-17.92,4.11-31.23,12.34-39.93c8.23-8.7,19.43-13.04,33.61-13.04H1292.24z"/>
			<path class="st1" d="M1386.94,1055.81v89.89h9.83c4.14,0,7.59-0.1,10.33-0.31c2.74-0.2,5.05-0.7,6.92-1.5
				c1.87-0.81,3.48-2.01,4.82-3.62c1.33-1.6,2.81-3.81,4.42-6.61l17.65-31.91h23.07l-18.46,33.31c-2.68,4.68-5.42,8.53-8.23,11.54
				c-2.81,3.01-6.35,5.45-10.63,7.32c5.08,1.47,9.16,3.84,12.24,7.12c3.07,3.28,6.22,7.73,9.43,13.35l19.06,33.31h-23.88
				l-17.65-31.3c-1.61-2.81-3.15-5.04-4.62-6.71c-1.47-1.68-3.24-2.94-5.31-3.81c-2.08-0.87-4.62-1.47-7.63-1.8
				c-3.01-0.33-6.85-0.5-11.53-0.5h-9.83v44.14h-21.27v-151.89H1386.94z"/>
		</g>
	</g>
	<g>
		
			<linearGradient id="SVGID_1_" gradientUnits="userSpaceOnUse" x1="1144.2778" y1="1167.9849" x2="842.6668" y2="1469.5959" gradientTransform="matrix(1 0 0 -1 0 2116.2439)">
			<stop  offset="0" style="stop-color:#EE7E73"/>
			<stop  offset="1" style="stop-color:#422052"/>
		</linearGradient>
		<path class="st3" d="M1158.2,1034.57c-11.93-32.69-26.3-64.22-43.34-94.27c-2.94-5.18-5.93-10.33-9.03-15.42
			c15.5-15.61,30.13-31.75,43.9-48.46c15.03-18.34,29.3-37.07,43.01-56.14c6.8-9.56,13.89-18.79,20.28-29.05
			c6.34-10.03,11.68-20.42,17.94-30.35c-8.34,8.27-16.22,17.12-24.17,25.52c-3.99,4.23-8.07,8.01-12.43,12.05l-12.73,12.09
			c-17.05,16-33.83,32.1-51.15,47.36c-14.45,12.78-29.03,25.22-44.04,36.84c-3.3-4.84-6.69-9.62-10.14-14.36
			c-16.82-23.14-35.43-45.13-55.99-65.59c-129.24-61.5-173.97,0-174,0.04c5.6-6.39,12.35-10.8,20.22-13.19
			c13.21-4.21,29.93-2.03,44.67,5.72l5.53,3.15l6.55,4.4c4.36,2.93,8.8,5.72,12.95,9.09c4.18,3.3,8.54,6.28,12.58,9.8l12.2,10.46
			c23.24,21.32,44.36,45.59,63.19,71.77c3.42,4.75,6.79,9.55,10.05,14.42c-4.18,2.41-8.38,4.77-12.62,6.96
			c-0.95,0.49-1.91,0.95-2.86,1.43c-18.29,9.21-37.05,16.3-55.54,19.36c-9.72,1.54-19.28,1.87-28.55,1.37
			c-9.22-0.94-18.28-2.27-26.85-5.63c-4.4-1.18-8.46-3.62-12.72-5.28c-4.12-2.19-8.23-4.4-12.24-6.93c-3.87-2.9-8.01-5.1-11.68-8.48
			c-3.74-3.14-7.73-6.23-10.77-9.35c-11.12-10.78-19.84-24.09-24.81-38.12c10.64,39.2,43.64,97.23,144.59,120.89
			c22.86-6.86,43.58-17.23,62.28-29.44c0.68-0.44,1.37-0.87,2.05-1.31c4.22-2.85,8.3-5.83,12.36-8.82c1.32,2.3,2.64,4.6,3.96,6.9
			c1.55,2.96,3.11,5.91,4.67,8.86c3.6,6.83,7.18,13.67,10.49,20.65c4.94,10.22,9.51,20.6,13.83,31.05H1158.2z"/>
		<polygon class="st4" points="1034.23,930.44 1069.3,870.99 1086.43,894.75 		"/>
		<g>
			<path class="st5" d="M830.77,856.22c0.35,6.94,1.5,17.33,4.82,29.57c-0.8-2.27-1.52-4.56-2.12-6.87
				C831.52,871.33,830.58,863.69,830.77,856.22z"/>
			
				<linearGradient id="SVGID_2_" gradientUnits="userSpaceOnUse" x1="809.6235" y1="1436.502" x2="1042.5852" y2="962.3079" gradientTransform="matrix(1 0 0 -1 0 2116.2439)">
				<stop  offset="0" style="stop-color:#EE7E73"/>
				<stop  offset="1" style="stop-color:#422052"/>
			</linearGradient>
			<path class="st6" d="M846.29,814.83c-3.87,4.4-7.19,9.74-9.96,16.02c-3.58,7.99-5.35,16.56-5.57,25.36
				c-0.3-5.84-0.04-9.25-0.04-9.25s-0.26,3.41,0.04,9.25c-0.18,7.47,0.75,15.11,2.7,22.7c0.6,2.3,1.32,4.59,2.12,6.87
				c10.64,39.2,43.64,97.23,144.59,120.89c-1.99,0.6-3.97,1.21-5.99,1.76c-13.1,3.29-26.84,5.47-40.91,5.53
				c-14-0.25-28.35-1.58-41.96-5.65c-6.97-1.58-13.43-4.37-20.05-6.86c-6.35-2.89-12.68-5.96-18.68-9.38
				c-5.73-3.7-11.98-7-17.2-11.21c-5.42-4.08-10.86-7.89-16.15-12.96c-21.04-19.29-37.45-44.18-45.18-72.82
				c-8.01-28.33-6.67-60.86,5.89-88.84c6.08-13.65,14.65-27.22,26.48-38.54c11.71-11.33,26.45-20.09,42.11-24.86
				c15.67-4.84,32.01-5.91,47.45-3.96c15.47,1.96,30.13,6.77,43.47,13.62c3.23,1.79,6.65,3.65,9.69,5.47l8.04,5.26
				c5.35,3.52,10.79,6.96,15.76,10.87c5.03,3.86,10.3,7.5,15.1,11.57l14.46,12.2c6.09,5.49,12,11.14,17.78,16.89
				C891.05,753.3,846.32,814.8,846.29,814.83z"/>
		</g>
	</g>
</g>
</svg>
