<svg id="Layer_1" data-name="Layer 1" xmlns="http://www.w3.org/2000/svg" xmlns:xlink="http://www.w3.org/1999/xlink" viewBox="0 0 1500 500"><defs><style>.cls-1{opacity:0.1;}.cls-2{fill:url(#linear-gradient);}.cls-3,.cls-6{fill:#422052;}.cls-3{opacity:0.3;}.cls-4{fill:none;}.cls-5{fill:url(#linear-gradient-2);}.cls-7{fill:url(#linear-gradient-3);}.cls-8{fill:url(#linear-gradient-4);}</style><linearGradient id="linear-gradient" x1="993.22" y1="335.64" x2="484.77" y2="844.09" gradientTransform="matrix(1, 0, 0, -1, 0, 690.13)" gradientUnits="userSpaceOnUse"><stop offset="0" stop-color="#ee7e73"/><stop offset="1" stop-color="#422052"/></linearGradient><linearGradient id="linear-gradient-2" x1="429.06" y1="788.3" x2="821.79" y2="-11.09" xlink:href="#linear-gradient"/><linearGradient id="linear-gradient-3" x1="797" y1="456.98" x2="698.75" y2="555.23" xlink:href="#linear-gradient"/><linearGradient id="linear-gradient-4" x1="687.99" y1="544.45" x2="763.87" y2="389.98" xlink:href="#linear-gradient"/></defs><g class="cls-1"><path class="cls-2" d="M1016.69,500a1055.68,1055.68,0,0,0-73.06-158.93c-5-8.73-10-17.41-15.22-26q39.18-39.48,74-81.69c25.34-30.92,49.4-62.5,72.51-94.64,11.47-16.11,23.41-31.68,34.18-49,10.68-16.91,19.69-34.43,30.25-51.16-14.07,13.93-27.35,28.86-40.75,43-6.73,7.13-13.6,13.5-21,20.31l-21.46,20.39c-28.74,27-57,54.1-86.23,79.84-24.36,21.55-48.94,42.51-74.25,62.1q-8.36-12.22-17.1-24.21A913.28,913.28,0,0,0,784.21,129.5c-217.88-103.68-293.28,0-293.33.06A72.85,72.85,0,0,1,525,107.32c22.26-7.1,50.45-3.41,75.29,9.65l9.32,5.3,11,7.41c7.35,4.95,14.83,9.65,21.82,15.33s14.39,10.59,21.21,16.52l20.57,17.63C723.41,215.1,759,256,790.75,300.15c5.77,8,11.45,16.09,17,24.31-7.05,4.07-14.12,8-21.27,11.73-1.6.83-3.21,1.6-4.82,2.41-30.84,15.53-62.45,27.48-93.64,32.64a228.82,228.82,0,0,1-48.12,2.31c-15.54-1.58-30.83-3.82-45.26-9.49-7.41-2-14.26-6.09-21.45-8.89-6.94-3.69-13.88-7.42-20.63-11.68-6.51-4.9-13.5-8.6-19.69-14.3-6.31-5.29-13-10.49-18.16-15.76-18.75-18.17-33.45-40.61-41.82-64.26,18,66.08,73.57,163.91,243.75,203.8,38.53-11.56,73.47-29.05,105-49.63,1.14-.75,2.31-1.46,3.45-2.21,7.11-4.81,14-9.82,20.83-14.87q3.33,5.83,6.68,11.64,3.91,7.47,7.87,14.94c6.07,11.51,12.11,23.05,17.67,34.81,8.33,17.23,16,34.72,23.31,52.35Z"/><polygon class="cls-3" points="807.7 324.46 866.83 224.23 895.7 264.28 807.7 324.46"/><path class="cls-4" d="M464.71,199.33a237.93,237.93,0,0,0,8.13,49.84c-1.35-3.83-2.56-7.69-3.57-11.57A140,140,0,0,1,464.71,199.33Z"/><path class="cls-5" d="M490.88,129.56a104.23,104.23,0,0,0-16.78,27,110.64,110.64,0,0,0-9.39,42.76,136.15,136.15,0,0,1-.06-15.59,136.15,136.15,0,0,0,.06,15.59,140,140,0,0,0,4.56,38.27c1,3.88,2.22,7.74,3.57,11.57,18,66.08,73.57,163.91,243.75,203.81-3.36,1-6.7,2-10.11,3-22.08,5.55-45.25,9.22-69,9.31-23.6-.41-47.79-2.67-70.73-9.52-11.76-2.66-22.63-7.37-33.8-11.56-10.7-4.88-21.37-10.06-31.49-15.81-9.67-6.24-20.2-11.8-29-18.9-9.13-6.88-18.3-13.3-27.22-21.85-35.47-32.52-63.14-74.47-76.17-122.75C355.6,217.1,357.85,162.26,379,115.1c10.26-23,24.69-45.9,44.65-65a177.92,177.92,0,0,1,71-41.9,190.86,190.86,0,0,1,80-6.68,221.76,221.76,0,0,1,73.29,23c5.45,3,11.2,6.15,16.34,9.22l13.55,8.87c9,5.94,18.19,11.73,26.58,18.33s17.36,12.64,25.46,19.51L754.25,101c10.27,9.26,20.22,18.78,30,28.48C566.33,25.82,490.93,129.5,490.88,129.56Z"/></g><path class="cls-6" d="M602.11,334v1.26h-4.36v-6.21H602v1.26h-2.85v1.21h2.45v1.16h-2.45V334Z"/><path class="cls-6" d="M607.57,331.73v3.55h-1.44v-6.21h1.12l2.9,3.65v-3.65h1.43v6.21h-1.15Z"/><path class="cls-6" d="M615.92,335.28v-6.21h1.44V334h3v1.26Z"/><path class="cls-6" d="M626.51,335.33a2.91,2.91,0,0,1-1.26-.27,3.16,3.16,0,0,1-1-.71,3,3,0,0,1-.62-1,3.12,3.12,0,0,1,0-2.35,3.38,3.38,0,0,1,.65-1,3.15,3.15,0,0,1,1-.69,2.84,2.84,0,0,1,1.24-.26,2.91,2.91,0,0,1,1.26.27,3,3,0,0,1,1,.72,3.16,3.16,0,0,1,.62,1,3.3,3.3,0,0,1,.22,1.15,3.23,3.23,0,0,1-.23,1.19,3.32,3.32,0,0,1-.65,1,3,3,0,0,1-1,.69A2.84,2.84,0,0,1,626.51,335.33Zm-1.62-3.14a2.26,2.26,0,0,0,.11.69,1.71,1.71,0,0,0,.31.6,1.5,1.5,0,0,0,1.21.58,1.53,1.53,0,0,0,.72-.17,1.63,1.63,0,0,0,.51-.43,2.11,2.11,0,0,0,.3-.6,2.74,2.74,0,0,0,.1-.69,2.38,2.38,0,0,0-.11-.7,1.75,1.75,0,0,0-.31-.59,1.57,1.57,0,0,0-.51-.41,1.6,1.6,0,0,0-.7-.16,1.46,1.46,0,0,0-.71.17,1.6,1.6,0,0,0-.51.42,1.8,1.8,0,0,0-.31.6A2.61,2.61,0,0,0,624.89,332.19Z"/><path class="cls-6" d="M633.23,332.12a3.12,3.12,0,0,1,.21-1.11,3,3,0,0,1,.61-1,3.21,3.21,0,0,1,1-.71,3,3,0,0,1,1.31-.27,3,3,0,0,1,1.52.37,2.44,2.44,0,0,1,1,1l-1.1.77a1.34,1.34,0,0,0-.27-.4,1.54,1.54,0,0,0-.36-.27,1.82,1.82,0,0,0-.39-.14,2.72,2.72,0,0,0-.39,0,1.47,1.47,0,0,0-.72.17,1.63,1.63,0,0,0-.51.43,1.71,1.71,0,0,0-.29.59,2.29,2.29,0,0,0-.1.68,2.45,2.45,0,0,0,.11.71,2.19,2.19,0,0,0,.33.6,1.6,1.6,0,0,0,.52.41,1.35,1.35,0,0,0,.67.16,1.83,1.83,0,0,0,.4-.05,1.49,1.49,0,0,0,.4-.15,1.4,1.4,0,0,0,.34-.26,1.26,1.26,0,0,0,.26-.4l1.17.69a1.8,1.8,0,0,1-.42.61,2.43,2.43,0,0,1-.63.46,4.07,4.07,0,0,1-.76.28,3.61,3.61,0,0,1-.79.09,2.85,2.85,0,0,1-1.24-.27,3.35,3.35,0,0,1-1-.73,3.4,3.4,0,0,1-.63-1A3.24,3.24,0,0,1,633.23,332.12Z"/><path class="cls-6" d="M642.75,335.28v-6.21h1.44v2.68l2.27-2.68h1.61l-2.33,2.77,2.49,3.44h-1.64l-1.76-2.5-.64.67v1.83Z"/><path class="cls-6" d="M657.58,329.07l1.34,2.85,1.36-2.85h1.56l-2.21,4.1v2.11h-1.42v-2.13L656,329.07Z"/><path class="cls-6" d="M667.87,335.33a2.91,2.91,0,0,1-1.26-.27,3.16,3.16,0,0,1-1.6-1.72,3.37,3.37,0,0,1-.22-1.17,3.14,3.14,0,0,1,.88-2.18,3.22,3.22,0,0,1,1-.69,3.1,3.1,0,0,1,2.51,0,3.15,3.15,0,0,1,1,.72,3.35,3.35,0,0,1,.62,1,3.3,3.3,0,0,1,.22,1.15,3,3,0,0,1-.24,1.19,3.11,3.11,0,0,1-.64,1,3,3,0,0,1-1,.69A2.84,2.84,0,0,1,667.87,335.33Zm-1.62-3.14a2.26,2.26,0,0,0,.11.69,1.71,1.71,0,0,0,.31.6,1.31,1.31,0,0,0,.51.42,1.45,1.45,0,0,0,.7.16,1.53,1.53,0,0,0,.72-.17,1.49,1.49,0,0,0,.5-.43,1.69,1.69,0,0,0,.3-.6,2.25,2.25,0,0,0,0-1.39,1.75,1.75,0,0,0-.31-.59,1.5,1.5,0,0,0-.52-.41,1.53,1.53,0,0,0-.69-.16,1.43,1.43,0,0,0-.71.17,1.49,1.49,0,0,0-.51.42,1.8,1.8,0,0,0-.31.6A2.61,2.61,0,0,0,666.25,332.19Z"/><path class="cls-6" d="M677.61,334.06a1.1,1.1,0,0,0,.62-.16,1.12,1.12,0,0,0,.41-.4,1.76,1.76,0,0,0,.23-.58,3.79,3.79,0,0,0,.06-.67v-3.18h1.44v3.18a4.58,4.58,0,0,1-.16,1.2,2.84,2.84,0,0,1-.5,1,2.36,2.36,0,0,1-.86.66,3,3,0,0,1-1.24.24,2.91,2.91,0,0,1-1.27-.25,2.29,2.29,0,0,1-.85-.68,2.72,2.72,0,0,1-.48-1,4.47,4.47,0,0,1-.15-1.17v-3.18h1.43v3.18a3.73,3.73,0,0,0,.07.68,1.76,1.76,0,0,0,.23.58,1.12,1.12,0,0,0,.41.4A1.15,1.15,0,0,0,677.61,334.06Z"/><path class="cls-6" d="M684.63,335.28v-6.21h2.8a1.66,1.66,0,0,1,.8.19,2.07,2.07,0,0,1,.65.48,2.23,2.23,0,0,1,.42.67,2.06,2.06,0,0,1,.15.76,2.1,2.1,0,0,1-.07.56,1.94,1.94,0,0,1-.2.5,2,2,0,0,1-.74.74l1.36,2.31h-1.61l-1.19-2h-.94v2Zm1.43-3.25h1.31a.54.54,0,0,0,.44-.24,1,1,0,0,0,.18-.62.87.87,0,0,0-.21-.61.62.62,0,0,0-.45-.23h-1.27Z"/><path class="cls-6" d="M704,333.69a1.42,1.42,0,0,1-.17.7,1.35,1.35,0,0,1-.46.49,2,2,0,0,1-.67.3,3.1,3.1,0,0,1-.81.1h-3v-6.21h3.46a1.24,1.24,0,0,1,.58.14,1.49,1.49,0,0,1,.45.37,1.44,1.44,0,0,1,.28.5,1.69,1.69,0,0,1,.1.58,1.65,1.65,0,0,1-.22.84,1.41,1.41,0,0,1-.67.6,1.52,1.52,0,0,1,.84.56A1.62,1.62,0,0,1,704,333.69Zm-3.7-3.39v1.28h1.4a.64.64,0,0,0,.42-.15.6.6,0,0,0,.19-.49.65.65,0,0,0-.17-.48.49.49,0,0,0-.38-.16Zm2.23,3.1a.76.76,0,0,0-.16-.49.53.53,0,0,0-.42-.2h-1.65v1.36h1.59a.6.6,0,0,0,.46-.19A.65.65,0,0,0,702.49,333.4Z"/><path class="cls-6" d="M710.62,334.06a1.18,1.18,0,0,0,1-.56,1.56,1.56,0,0,0,.22-.58,3.05,3.05,0,0,0,.07-.67v-3.18h1.43v3.18a4.2,4.2,0,0,1-.16,1.2,2.68,2.68,0,0,1-.5,1,2.32,2.32,0,0,1-.85.66,3,3,0,0,1-1.24.24,2.88,2.88,0,0,1-1.27-.25,2.29,2.29,0,0,1-.85-.68,2.72,2.72,0,0,1-.48-1,4.08,4.08,0,0,1-.16-1.17v-3.18h1.44v3.18a3,3,0,0,0,.07.68,1.57,1.57,0,0,0,.23.58,1.11,1.11,0,0,0,1,.55Z"/><path class="cls-6" d="M721.36,330.89a1,1,0,0,0-.18-.13c-.11-.06-.24-.13-.4-.2a3.82,3.82,0,0,0-.51-.18,1.85,1.85,0,0,0-.56-.08c-.52,0-.77.17-.77.51a.4.4,0,0,0,.08.27.79.79,0,0,0,.24.18,2.34,2.34,0,0,0,.41.16l.57.15a8.28,8.28,0,0,1,.8.27,2.23,2.23,0,0,1,.61.36,1.43,1.43,0,0,1,.39.52,1.8,1.8,0,0,1,.13.73,1.86,1.86,0,0,1-.19.89,1.77,1.77,0,0,1-.53.59,2.16,2.16,0,0,1-.74.32,3.55,3.55,0,0,1-.86.1,5.49,5.49,0,0,1-.7-.05,5.1,5.1,0,0,1-.7-.15,6.42,6.42,0,0,1-.66-.24,4.12,4.12,0,0,1-.59-.33l.63-1.25a.84.84,0,0,0,.22.17,3.56,3.56,0,0,0,.48.24,4.63,4.63,0,0,0,.63.22,2.48,2.48,0,0,0,.71.1c.51,0,.76-.16.76-.47a.39.39,0,0,0-.11-.28,1,1,0,0,0-.32-.21,3.14,3.14,0,0,0-.47-.17l-.6-.18a4.43,4.43,0,0,1-.74-.28,2.12,2.12,0,0,1-.53-.35,1.45,1.45,0,0,1-.3-.47,1.63,1.63,0,0,1-.1-.61,2,2,0,0,1,.18-.87,1.82,1.82,0,0,1,.5-.63,2.22,2.22,0,0,1,.73-.39,2.84,2.84,0,0,1,.88-.13,3.39,3.39,0,0,1,.64.06,5.25,5.25,0,0,1,.6.16,4.35,4.35,0,0,1,.54.22l.46.24Z"/><path class="cls-6" d="M726.16,335.28v-6.21h1.43v6.21Z"/><path class="cls-6" d="M733.37,331.73v3.55h-1.44v-6.21h1.12l2.9,3.65v-3.65h1.43v6.21h-1.15Z"/><path class="cls-6" d="M746.08,334v1.26h-4.36v-6.21H746v1.26h-2.85v1.21h2.45v1.16h-2.45V334Z"/><path class="cls-6" d="M753.7,330.89a1,1,0,0,0-.18-.13l-.4-.2a3.38,3.38,0,0,0-.51-.18,1.85,1.85,0,0,0-.56-.08c-.52,0-.77.17-.77.51a.46.46,0,0,0,.08.27.85.85,0,0,0,.25.18,2,2,0,0,0,.4.16l.57.15a8.52,8.52,0,0,1,.81.27,2.33,2.33,0,0,1,.6.36,1.43,1.43,0,0,1,.39.52,1.8,1.8,0,0,1,.13.73,1.86,1.86,0,0,1-.19.89,1.75,1.75,0,0,1-.52.59,2.3,2.3,0,0,1-.75.32,3.55,3.55,0,0,1-.86.1,5.62,5.62,0,0,1-.7-.05,5.44,5.44,0,0,1-.7-.15,6.42,6.42,0,0,1-.66-.24,4.12,4.12,0,0,1-.59-.33l.63-1.25a1.09,1.09,0,0,0,.22.17,3.56,3.56,0,0,0,.48.24,4.63,4.63,0,0,0,.63.22,2.48,2.48,0,0,0,.71.1c.51,0,.76-.16.76-.47a.36.36,0,0,0-.11-.28,1.05,1.05,0,0,0-.31-.21,3.79,3.79,0,0,0-.48-.17l-.6-.18a4.43,4.43,0,0,1-.74-.28,1.89,1.89,0,0,1-.52-.35,1.33,1.33,0,0,1-.31-.47,1.63,1.63,0,0,1-.1-.61,2,2,0,0,1,.18-.87,1.94,1.94,0,0,1,.5-.63,2.22,2.22,0,0,1,.73-.39,2.84,2.84,0,0,1,.88-.13,3.39,3.39,0,0,1,.64.06,5.25,5.25,0,0,1,.6.16,3.8,3.8,0,0,1,.54.22l.46.24Z"/><path class="cls-6" d="M762.23,330.89a.9.9,0,0,0-.19-.13,3.43,3.43,0,0,0-.39-.2,3.52,3.52,0,0,0-.52-.18,1.77,1.77,0,0,0-.56-.08c-.51,0-.77.17-.77.51a.4.4,0,0,0,.09.27.68.68,0,0,0,.24.18,2.34,2.34,0,0,0,.41.16l.57.15c.29.09.56.17.8.27a2.4,2.4,0,0,1,.61.36,1.4,1.4,0,0,1,.38.52,1.79,1.79,0,0,1,.14.73,1.86,1.86,0,0,1-.2.89,1.65,1.65,0,0,1-.52.59,2.16,2.16,0,0,1-.74.32,3.57,3.57,0,0,1-.87.1,5.76,5.76,0,0,1-.7-.05,5.44,5.44,0,0,1-.7-.15l-.66-.24a4.75,4.75,0,0,1-.59-.33l.63-1.25a1.3,1.3,0,0,0,.23.17,3.56,3.56,0,0,0,.48.24,4.63,4.63,0,0,0,.63.22,2.44,2.44,0,0,0,.71.1c.51,0,.76-.16.76-.47a.39.39,0,0,0-.11-.28,1,1,0,0,0-.32-.21,3.14,3.14,0,0,0-.47-.17l-.6-.18a4.56,4.56,0,0,1-.75-.28,2.05,2.05,0,0,1-.52-.35,1.3,1.3,0,0,1-.3-.47,1.63,1.63,0,0,1-.1-.61,2,2,0,0,1,.18-.87,1.82,1.82,0,0,1,.5-.63,2.22,2.22,0,0,1,.73-.39,2.8,2.8,0,0,1,.88-.13,3.47,3.47,0,0,1,.64.06,5.25,5.25,0,0,1,.6.16,4.35,4.35,0,0,1,.54.22l.46.24Z"/><path class="cls-6" d="M771.39,334v1.26H767v-6.21h4.28v1.26h-2.85v1.21h2.45v1.16h-2.45V334Z"/><path class="cls-6" d="M779,330.89a1,1,0,0,0-.18-.13c-.11-.06-.24-.13-.4-.2a3.38,3.38,0,0,0-.51-.18,1.85,1.85,0,0,0-.56-.08c-.52,0-.77.17-.77.51a.46.46,0,0,0,.08.27.85.85,0,0,0,.25.18,2,2,0,0,0,.4.16l.57.15a8.52,8.52,0,0,1,.81.27,2.33,2.33,0,0,1,.6.36,1.43,1.43,0,0,1,.39.52,1.8,1.8,0,0,1,.13.73,1.86,1.86,0,0,1-.19.89,1.75,1.75,0,0,1-.52.59,2.3,2.3,0,0,1-.75.32,3.55,3.55,0,0,1-.86.1,5.62,5.62,0,0,1-.7-.05,5.1,5.1,0,0,1-.7-.15,6.42,6.42,0,0,1-.66-.24,4.12,4.12,0,0,1-.59-.33l.63-1.25a1.09,1.09,0,0,0,.22.17,3.56,3.56,0,0,0,.48.24,4.63,4.63,0,0,0,.63.22,2.48,2.48,0,0,0,.71.1c.51,0,.76-.16.76-.47a.36.36,0,0,0-.11-.28,1,1,0,0,0-.32-.21,3.14,3.14,0,0,0-.47-.17l-.6-.18a4.43,4.43,0,0,1-.74-.28,1.89,1.89,0,0,1-.52-.35,1.33,1.33,0,0,1-.31-.47,1.63,1.63,0,0,1-.1-.61,2,2,0,0,1,.18-.87,1.94,1.94,0,0,1,.5-.63,2.22,2.22,0,0,1,.73-.39,2.84,2.84,0,0,1,.88-.13,3.39,3.39,0,0,1,.64.06,5.25,5.25,0,0,1,.6.16,4.35,4.35,0,0,1,.54.22l.46.24Z"/><path class="cls-6" d="M793.48,330.33H791.6v4.95h-1.44v-4.95h-1.9v-1.26h5.22Z"/><path class="cls-6" d="M797.33,335.28v-6.21h2.8a1.73,1.73,0,0,1,.81.19,2,2,0,0,1,.64.48,2.48,2.48,0,0,1,.43.67,2.06,2.06,0,0,1,.15.76,2.1,2.1,0,0,1-.07.56,2.37,2.37,0,0,1-.2.5,1.94,1.94,0,0,1-.32.42,1.8,1.8,0,0,1-.42.32l1.36,2.31h-1.62l-1.19-2h-.93v2Zm1.44-3.25h1.31a.55.55,0,0,0,.44-.24,1,1,0,0,0,.18-.62.87.87,0,0,0-.21-.61.62.62,0,0,0-.46-.23h-1.26Z"/><path class="cls-6" d="M809,334.06a1.18,1.18,0,0,0,1-.56,1.75,1.75,0,0,0,.22-.58,3.05,3.05,0,0,0,.07-.67v-3.18h1.43v3.18a4.2,4.2,0,0,1-.16,1.2,2.68,2.68,0,0,1-.5,1,2.28,2.28,0,0,1-.86.66,3.31,3.31,0,0,1-2.5,0,2.29,2.29,0,0,1-.85-.68,2.72,2.72,0,0,1-.48-1,4.08,4.08,0,0,1-.16-1.17v-3.18h1.44v3.18a3,3,0,0,0,.07.68,1.75,1.75,0,0,0,.22.58,1.3,1.3,0,0,0,.41.4A1.19,1.19,0,0,0,809,334.06Z"/><path class="cls-6" d="M820.39,334v1.26H816v-6.21h4.29v1.26h-2.85v1.21h2.45v1.16h-2.45V334Z"/><path class="cls-6" d="M829.59,335.28v-6.21h2.65a1.74,1.74,0,0,1,.82.19,2,2,0,0,1,.64.48,2.23,2.23,0,0,1,.42.67,2.06,2.06,0,0,1,.15.76,2.3,2.3,0,0,1-.14.79,2.38,2.38,0,0,1-.4.67,1.83,1.83,0,0,1-.63.47,1.79,1.79,0,0,1-.81.18H831v2ZM831,332h1.17a.56.56,0,0,0,.44-.22,1,1,0,0,0,.18-.64,1,1,0,0,0-.06-.37.7.7,0,0,0-.15-.27.54.54,0,0,0-.22-.15.69.69,0,0,0-.24-.05H831Z"/><path class="cls-6" d="M840.91,335.33a2.91,2.91,0,0,1-1.26-.27,3.16,3.16,0,0,1-1-.71,3,3,0,0,1-.62-1,3.17,3.17,0,0,1-.23-1.17,3.26,3.26,0,0,1,.88-2.18,3.15,3.15,0,0,1,1-.69,2.84,2.84,0,0,1,1.24-.26,2.91,2.91,0,0,1,1.26.27,3,3,0,0,1,1,.72,3.16,3.16,0,0,1,.62,1,3.3,3.3,0,0,1,.22,1.15,3.23,3.23,0,0,1-.23,1.19,3.32,3.32,0,0,1-.65,1,3,3,0,0,1-1,.69A2.84,2.84,0,0,1,840.91,335.33Zm-1.62-3.14a2.26,2.26,0,0,0,.11.69,1.71,1.71,0,0,0,.31.6,1.48,1.48,0,0,0,.51.42,1.45,1.45,0,0,0,.7.16,1.53,1.53,0,0,0,.72-.17,1.49,1.49,0,0,0,.5-.43,1.9,1.9,0,0,0,.31-.6,2.74,2.74,0,0,0,.1-.69,2.38,2.38,0,0,0-.11-.7,1.75,1.75,0,0,0-.31-.59,1.57,1.57,0,0,0-.51-.41,1.6,1.6,0,0,0-.7-.16,1.46,1.46,0,0,0-.71.17,1.6,1.6,0,0,0-.51.42,1.8,1.8,0,0,0-.31.6A2.61,2.61,0,0,0,839.29,332.19Z"/><path class="cls-6" d="M852.43,330.33h-1.89v4.95h-1.43v-4.95h-1.9v-1.26h5.22Z"/><path class="cls-6" d="M860.64,334v1.26h-4.36v-6.21h4.28v1.26h-2.85v1.21h2.45v1.16h-2.45V334Z"/><path class="cls-6" d="M866.1,331.73v3.55h-1.44v-6.21h1.12l2.9,3.65v-3.65h1.43v6.21H869Z"/><path class="cls-6" d="M879.18,330.33h-1.89v4.95h-1.43v-4.95H874v-1.26h5.22Z"/><path class="cls-6" d="M883,335.28v-6.21h1.43v6.21Z"/><path class="cls-6" d="M890.49,329.07h1.29l2.27,6.21h-1.47l-.48-1.39h-1.93l-.48,1.39h-1.47Zm1.37,3.83-.72-2.19-.75,2.19Z"/><path class="cls-6" d="M897.81,335.28v-6.21h1.43V334h3v1.26Z"/><path class="cls-6" d="M634.74,273.54v7.71H612.65q-3.52,0-5.1,1.51a5.36,5.36,0,0,0-1.57,4.05c0,3.48,2.25,5.23,6.73,5.23h21.7v7H612.52q-6.74,0-6.73,5.36a5.22,5.22,0,0,0,1.63,4.09,7.4,7.4,0,0,0,5,1.47h22.36v7.71H612.45a21.6,21.6,0,0,1-6.7-.92,12.76,12.76,0,0,1-4.57-2.51,9.49,9.49,0,0,1-2.62-3.83,13.81,13.81,0,0,1-.81-4.77,11.36,11.36,0,0,1,1.63-6.31,10.22,10.22,0,0,1,4.71-3.82q-6.21-2.55-6.21-9.93a13.34,13.34,0,0,1,.85-4.84,9.56,9.56,0,0,1,2.65-3.82,12.35,12.35,0,0,1,4.57-2.49,22.21,22.21,0,0,1,6.7-.88Z"/><path class="cls-6" d="M679.18,283.15c5.89,0,10.25,1.32,13.11,4s4.28,6.35,4.28,11.15v19.41h-7V298.25a7.93,7.93,0,0,0-2.45-6.28q-2.46-2.16-8-2.16h-11.3c-.57,0-.85.33-.85,1v26.86H660.1V288.51c0-2.05.37-3.46,1.11-4.22a5.06,5.06,0,0,1,3.73-1.14Z"/><path class="cls-6" d="M728.92,268.18v49.48H722V268.18Z"/><path class="cls-6" d="M775.13,283.15q6.86,0,10.91,4.28t4.06,13q0,8.76-4.06,13t-10.91,4.25h-7.26q-6.92,0-10.94-4.25t-4-13q0-8.75,4-13t10.94-4.25Zm-6.6,6.66q-4.51,0-6.57,2.49c-1.37,1.65-2.06,4.36-2.06,8.1s.69,6.44,2.06,8.08,3.56,2.45,6.57,2.45h6q4.5,0,6.57-2.45t2.05-8.08c0-3.74-.68-6.45-2.05-8.1s-3.57-2.49-6.57-2.49Z"/><path class="cls-6" d="M845.2,283.15v6.66H828.07q-4.5,0-6.57,2.49c-1.37,1.65-2.06,4.36-2.06,8.1s.69,6.44,2.06,8.08,3.57,2.45,6.57,2.45H845.2v6.73H827.42q-6.93,0-10.95-4.25t-4-13q0-8.75,4-13t10.95-4.25Z"/><path class="cls-6" d="M876,268.18v29.28h3.21c1.35,0,2.47,0,3.36-.1a6.94,6.94,0,0,0,2.26-.49,4.18,4.18,0,0,0,1.57-1.17,15.18,15.18,0,0,0,1.43-2.16l5.76-10.39h7.51l-6,10.85a20.51,20.51,0,0,1-2.68,3.76,10.39,10.39,0,0,1-3.46,2.38,8.59,8.59,0,0,1,4,2.32,23.19,23.19,0,0,1,3.07,4.35l6.21,10.85h-7.78l-5.75-10.2a13.7,13.7,0,0,0-1.5-2.19,4.87,4.87,0,0,0-1.73-1.24,9.3,9.3,0,0,0-2.49-.59c-1-.1-2.23-.16-3.75-.16H876v14.38h-6.92V268.18Z"/><path class="cls-7" d="M801.53,261.26a203.29,203.29,0,0,0-14.12-30.71c-.95-1.68-1.93-3.36-2.94-5q7.57-7.64,14.3-15.79c4.9-6,9.55-12.07,14-18.28,2.22-3.12,4.53-6.12,6.61-9.47s3.8-6.65,5.84-9.88c-2.71,2.69-5.28,5.57-7.87,8.31-1.3,1.38-2.63,2.61-4.05,3.93l-4.15,3.94c-5.55,5.21-11,10.45-16.66,15.42-4.71,4.17-9.46,8.22-14.35,12-1.07-1.57-2.18-3.13-3.3-4.67a175.78,175.78,0,0,0-18.24-21.37c-42.1-20-56.67,0-56.68,0a14,14,0,0,1,6.59-4.29c4.3-1.38,9.75-.66,14.55,1.86l1.8,1,2.13,1.44c1.42.95,2.87,1.86,4.22,3s2.78,2,4.1,3.19l4,3.41a152.12,152.12,0,0,1,20.58,23.38c1.12,1.54,2.22,3.1,3.28,4.69q-2,1.18-4.11,2.27l-.93.46a63.77,63.77,0,0,1-18.1,6.31,44.34,44.34,0,0,1-9.29.45A33.1,33.1,0,0,1,720,235a42.51,42.51,0,0,1-4.14-1.72c-1.35-.72-2.69-1.44-4-2.26s-2.61-1.66-3.81-2.76-2.51-2-3.5-3a32.75,32.75,0,0,1-8.09-12.41c3.47,12.76,14.22,31.67,47.1,39.38a78.34,78.34,0,0,0,20.29-9.6l.67-.42c1.37-.93,2.7-1.9,4-2.87l1.3,2.24c.5,1,1,1.93,1.52,2.89,1.17,2.23,2.34,4.45,3.41,6.73,1.61,3.33,3.1,6.71,4.51,10.11Z"/><polygon class="cls-3" points="761.15 227.34 772.57 207.97 778.15 215.71 761.15 227.34"/><path class="cls-4" d="M694.87,203.16a46.56,46.56,0,0,0,1.57,9.64c-.26-.75-.49-1.49-.69-2.24A27.28,27.28,0,0,1,694.87,203.16Z"/><path class="cls-8" d="M699.93,189.68a20.13,20.13,0,0,0-3.24,5.22,21.31,21.31,0,0,0-1.82,8.26,28,28,0,0,1,0-3,28,28,0,0,0,0,3,27.28,27.28,0,0,0,.88,7.4c.2.75.43,1.49.69,2.24,3.47,12.76,14.22,31.67,47.1,39.38-.64.19-1.29.39-1.95.57a55.87,55.87,0,0,1-13.33,1.8,51,51,0,0,1-13.66-1.84,50.25,50.25,0,0,1-6.53-2.24c-2.07-.94-4.13-1.94-6.09-3.05a65.69,65.69,0,0,1-5.6-3.65,54,54,0,0,1-5.26-4.22,50.09,50.09,0,0,1-14.72-23.72,43.09,43.09,0,0,1,1.92-28.94,39.58,39.58,0,0,1,8.62-12.56,34.5,34.5,0,0,1,13.72-8.09A36.78,36.78,0,0,1,716.12,165a42.68,42.68,0,0,1,14.16,4.44c1.05.58,2.17,1.18,3.16,1.78l2.62,1.71c1.74,1.15,3.51,2.27,5.13,3.54s3.36,2.45,4.92,3.77l4.71,4c2,1.79,3.91,3.63,5.79,5.5C714.51,169.64,699.94,189.67,699.93,189.68Z"/><rect class="cls-6" x="1454.53" width="45.47" height="500"/><rect class="cls-6" x="1374.06" width="45.47" height="500"/><rect class="cls-6" x="80.47" width="45.47" height="500"/><rect class="cls-6" width="45.47" height="500"/></svg>