<?xml version="1.0" encoding="utf-8"?>
<!-- Generator: Adobe Illustrator 25.0.0, SVG Export Plug-In . SVG Version: 6.00 Build 0)  -->
<svg version="1.1" id="Layer_1" xmlns="http://www.w3.org/2000/svg" xmlns:xlink="http://www.w3.org/1999/xlink" x="0px" y="0px"
	 viewBox="0 0 192 192" style="enable-background:new 0 0 192 192;" xml:space="preserve">
<style type="text/css">
	.st0{display:none;}
	.st1{display:inline;fill:#1D1D1B;}
	.st2{fill:url(#SVGID_1_);}
	.st3{opacity:0.3;fill:#422052;}
	.st4{fill:none;}
	.st5{fill:url(#SVGID_2_);}
	.st6{fill:url(#SVGID_3_);}
	.st7{fill:url(#SVGID_4_);}
	.st8{fill:url(#SVGID_5_);}
	.st9{fill:url(#SVGID_6_);}
	.st10{fill:url(#SVGID_7_);}
	.st11{fill:url(#SVGID_8_);}
	.st12{fill:url(#SVGID_9_);}
	.st13{fill:url(#SVGID_10_);}
	.st14{fill:url(#SVGID_11_);}
	.st15{fill:url(#SVGID_12_);}
</style>
<g>
	
		<linearGradient id="SVGID_1_" gradientUnits="userSpaceOnUse" x1="155.9712" y1="316.3626" x2="30.6022" y2="441.7316" gradientTransform="matrix(1 0 0 -1 0 438.1263)">
		<stop  offset="0" style="stop-color:#EE7E73"/>
		<stop  offset="1" style="stop-color:#422052"/>
	</linearGradient>
	<path class="st2" d="M161.8,157.6c-5-13.6-10.9-26.7-18-39.2c-1.2-2.2-2.5-4.3-3.8-6.4c6.4-6.5,12.5-13.2,18.2-20.1
		c6.2-7.6,12.2-15.4,17.9-23.3c2.8-4,5.8-7.8,8.4-12.1c2.6-4.2,4.9-8.5,7.5-12.6c-3.5,3.4-6.7,7.1-10,10.6c-1.7,1.8-3.4,3.3-5.2,5
		l-5.3,5c-7.1,6.7-14.1,13.3-21.3,19.7c-6,5.3-12.1,10.5-18.3,15.3c-1.4-2-2.8-4-4.2-6c-7-9.6-14.7-18.8-23.3-27.3
		c-53.7-25.6-72.3,0-72.3,0c2.3-2.7,5.1-4.5,8.4-5.5C46,59.1,53,60,59.1,63.2l2.3,1.3l2.7,1.8c1.8,1.2,3.7,2.4,5.4,3.8
		c1.7,1.4,3.5,2.6,5.2,4.1l5.1,4.3c9.7,8.9,18.4,19,26.3,29.8c1.4,2,2.8,4,4.2,6c-1.7,1-3.5,2-5.2,2.9c-0.4,0.2-0.8,0.4-1.2,0.6
		c-7.6,3.8-15.4,6.8-23.1,8c-4,0.6-8,0.8-11.9,0.6c-3.8-0.4-7.6-0.9-11.2-2.3c-1.8-0.5-3.5-1.5-5.3-2.2c-1.7-0.9-3.4-1.8-5.1-2.9
		c-1.6-1.2-3.3-2.1-4.9-3.5c-1.6-1.3-3.2-2.6-4.5-3.9c-4.6-4.5-8.2-10-10.3-15.8c4.4,16.3,18.1,40.4,60.1,50.3
		c9.5-2.9,18.1-7.2,25.9-12.2c0.3-0.2,0.6-0.4,0.9-0.5c1.8-1.2,3.4-2.4,5.1-3.7c0.5,1,1.1,1.9,1.6,2.9c0.6,1.2,1.3,2.5,1.9,3.7
		c1.5,2.8,3,5.7,4.4,8.6c2.1,4.2,4,8.6,5.7,12.9H161.8z"/>
	<polygon class="st3" points="110.2,114.4 124.8,89.6 131.9,99.5 	"/>
	<g>
		<path class="st4" d="M25.7,83.5c0.1,2.9,0.6,7.2,2,12.3c-0.3-0.9-0.6-1.9-0.9-2.9C26,89.8,25.6,86.6,25.7,83.5z"/>
		
			<linearGradient id="SVGID_2_" gradientUnits="userSpaceOnUse" x1="16.8673" y1="427.9756" x2="113.7012" y2="230.8699" gradientTransform="matrix(1 0 0 -1 0 438.1263)">
			<stop  offset="0" style="stop-color:#EE7E73"/>
			<stop  offset="1" style="stop-color:#422052"/>
		</linearGradient>
		<path class="st5" d="M32.1,66.3c-1.6,1.8-3,4-4.1,6.7c-1.5,3.3-2.2,6.9-2.3,10.5c-0.1-2.4,0-3.8,0-3.8s-0.1,1.4,0,3.8
			c-0.1,3.1,0.3,6.3,1.1,9.4c0.2,1,0.5,1.9,0.9,2.9c4.4,16.3,18.1,40.4,60.1,50.3c-0.8,0.2-1.7,0.5-2.5,0.7
			c-5.4,1.4-11.2,2.3-17,2.3c-5.8-0.1-11.8-0.7-17.4-2.3c-2.9-0.7-5.6-1.8-8.3-2.9c-2.6-1.2-5.3-2.5-7.8-3.9c-2.4-1.5-5-2.9-7.2-4.7
			c-2.3-1.7-4.5-3.3-6.7-5.4c-8.7-8-15.6-18.4-18.8-30.3c-3.3-11.8-2.8-25.3,2.5-36.9c2.5-5.7,6.1-11.3,11-16
			c4.9-4.7,11-8.3,17.5-10.3c6.5-2,13.3-2.5,19.7-1.6c6.4,0.8,12.5,2.8,18.1,5.7c1.3,0.7,2.8,1.5,4,2.3l3.3,2.2
			c2.2,1.5,4.5,2.9,6.6,4.5c2.1,1.6,4.3,3.1,6.3,4.8l6,5.1c2.5,2.3,5,4.6,7.4,7C50.7,40.7,32.1,66.3,32.1,66.3z"/>
	</g>
</g>
</svg>
