<?xml version="1.0" encoding="utf-8"?>
<!-- Generator: Adobe Illustrator 25.0.0, SVG Export Plug-In . SVG Version: 6.00 Build 0)  -->
<svg version="1.1" id="Layer_1" xmlns="http://www.w3.org/2000/svg" xmlns:xlink="http://www.w3.org/1999/xlink" x="0px" y="0px"
	 viewBox="0 0 180 180" style="enable-background:new 0 0 180 180;" xml:space="preserve">
<style type="text/css">
	.st0{display:none;}
	.st1{display:inline;fill:#1D1D1B;}
	.st2{fill:url(#SVGID_1_);}
	.st3{opacity:0.3;fill:#422052;}
	.st4{fill:none;}
	.st5{fill:url(#SVGID_2_);}
	.st6{fill:url(#SVGID_3_);}
	.st7{fill:url(#SVGID_4_);}
	.st8{fill:url(#SVGID_5_);}
	.st9{fill:url(#SVGID_6_);}
	.st10{fill:url(#SVGID_7_);}
	.st11{fill:url(#SVGID_8_);}
	.st12{fill:url(#SVGID_9_);}
	.st13{fill:url(#SVGID_10_);}
	.st14{fill:url(#SVGID_11_);}
	.st15{fill:url(#SVGID_12_);}
</style>
<g>
	
		<linearGradient id="SVGID_1_" gradientUnits="userSpaceOnUse" x1="146.223" y1="311.9728" x2="28.6895" y2="429.5063" gradientTransform="matrix(1 0 0 -1 0 426.1263)">
		<stop  offset="0" style="stop-color:#EE7E73"/>
		<stop  offset="1" style="stop-color:#422052"/>
	</linearGradient>
	<path class="st2" d="M151.6,147.8c-4.6-12.7-10.3-25-16.9-36.7c-1.1-2-2.3-4-3.5-6c6-6.1,11.7-12.4,17.1-18.9
		c5.9-7.1,11.4-14.4,16.8-21.9c2.7-3.7,5.4-7.3,7.9-11.3c2.5-3.9,4.6-8,7-11.8c-3.3,3.2-6.3,6.7-9.4,9.9c-1.6,1.6-3.1,3.1-4.8,4.7
		l-5,4.7c-6.6,6.2-13.2,12.5-19.9,18.5c-5.6,5-11.3,9.8-17.2,14.4c-1.3-1.9-2.6-3.7-4-5.6c-6.6-9-13.8-17.6-21.8-25.6
		c-50.4-24-67.8,0-67.8,0c2.2-2.5,4.8-4.2,7.9-5.1c5.1-1.6,11.7-0.8,17.4,2.2l2.2,1.2l2.6,1.7c1.7,1.1,3.4,2.2,5,3.5
		c1.6,1.3,3.3,2.4,4.9,3.8l4.8,4.1c9.1,8.3,17.3,17.8,24.6,28c1.3,1.9,2.6,3.7,3.9,5.6c-1.6,0.9-3.3,1.9-4.9,2.7
		c-0.4,0.2-0.7,0.4-1.1,0.6c-7.1,3.6-14.4,6.4-21.6,7.5c-3.8,0.6-7.5,0.7-11.1,0.5c-3.6-0.4-7.1-0.9-10.5-2.2
		c-1.7-0.5-3.3-1.4-5-2.1c-1.6-0.9-3.2-1.7-4.8-2.7c-1.5-1.1-3.1-2-4.6-3.3c-1.5-1.2-3-2.4-4.2-3.6c-4.3-4.2-7.7-9.4-9.7-14.9
		c4.1,15.3,17,37.9,56.3,47.1c8.9-2.7,17-6.7,24.3-11.5c0.3-0.2,0.5-0.3,0.8-0.5c1.6-1.1,3.2-2.3,4.8-3.4c0.5,0.9,1,1.8,1.5,2.7
		c0.6,1.2,1.2,2.3,1.8,3.5c1.4,2.7,2.8,5.3,4.1,8c1.9,4,3.7,8,5.4,12.1H151.6z"/>
	<polygon class="st3" points="103.3,107.2 117,84 123.7,93.3 	"/>
	<g>
		<path class="st4" d="M24.1,78.3c0.1,2.7,0.6,6.8,1.9,11.5c-0.3-0.9-0.6-1.8-0.8-2.7C24.3,84.2,24,81.2,24.1,78.3z"/>
		
			<linearGradient id="SVGID_2_" gradientUnits="userSpaceOnUse" x1="15.8131" y1="416.61" x2="106.5948" y2="231.8235" gradientTransform="matrix(1 0 0 -1 0 426.1263)">
			<stop  offset="0" style="stop-color:#EE7E73"/>
			<stop  offset="1" style="stop-color:#422052"/>
		</linearGradient>
		<path class="st5" d="M30.1,62.2c-1.5,1.7-2.8,3.8-3.9,6.2c-1.4,3.1-2.1,6.5-2.2,9.9c-0.1-2.3,0-3.6,0-3.6s-0.1,1.3,0,3.6
			c-0.1,2.9,0.3,5.9,1.1,8.8c0.2,0.9,0.5,1.8,0.8,2.7c4.1,15.3,17,37.9,56.3,47.1c-0.8,0.2-1.5,0.5-2.3,0.7
			c-5.1,1.3-10.5,2.1-15.9,2.2c-5.5-0.1-11-0.6-16.4-2.2c-2.7-0.6-5.2-1.7-7.8-2.7c-2.5-1.1-4.9-2.3-7.3-3.7
			c-2.2-1.4-4.7-2.7-6.7-4.4c-2.1-1.6-4.2-3.1-6.3-5C11.4,114.3,5,104.6,2,93.4c-3.1-11-2.6-23.7,2.3-34.6c2.4-5.3,5.7-10.6,10.3-15
			c4.6-4.4,10.3-7.8,16.4-9.7c6.1-1.9,12.5-2.3,18.5-1.5c6,0.8,11.7,2.6,16.9,5.3c1.3,0.7,2.6,1.4,3.8,2.1l3.1,2.1
			c2.1,1.4,4.2,2.7,6.1,4.2c2,1.5,4,2.9,5.9,4.5l5.6,4.8c2.4,2.1,4.7,4.3,6.9,6.6C47.5,38.2,30.1,62.1,30.1,62.2z"/>
	</g>
</g>
</svg>
