<?xml version="1.0" encoding="utf-8"?>
<!-- Generator: Adobe Illustrator 25.0.0, SVG Export Plug-In . SVG Version: 6.00 Build 0)  -->
<svg version="1.1" id="Layer_1" xmlns="http://www.w3.org/2000/svg" xmlns:xlink="http://www.w3.org/1999/xlink" x="0px" y="0px"
	 viewBox="0 0 48 48" style="enable-background:new 0 0 48 48;" xml:space="preserve">
<style type="text/css">
	.st0{display:none;}
	.st1{display:inline;fill:#1D1D1B;}
	.st2{fill:url(#SVGID_1_);}
	.st3{opacity:0.3;fill:#422052;}
	.st4{fill:none;}
	.st5{fill:url(#SVGID_2_);}
	.st6{fill:url(#SVGID_3_);}
	.st7{fill:url(#SVGID_4_);}
	.st8{fill:url(#SVGID_5_);}
	.st9{fill:url(#SVGID_6_);}
	.st10{fill:url(#SVGID_7_);}
	.st11{fill:url(#SVGID_8_);}
	.st12{fill:url(#SVGID_9_);}
	.st13{fill:url(#SVGID_10_);}
	.st14{fill:url(#SVGID_11_);}
	.st15{fill:url(#SVGID_12_);}
</style>
<g>
	
		<linearGradient id="SVGID_1_" gradientUnits="userSpaceOnUse" x1="38.9928" y1="263.6854" x2="7.6505" y2="295.0276" gradientTransform="matrix(1 0 0 -1 0 294.1263)">
		<stop  offset="0" style="stop-color:#EE7E73"/>
		<stop  offset="1" style="stop-color:#422052"/>
	</linearGradient>
	<path class="st2" d="M40.4,39.4c-1.2-3.4-2.7-6.7-4.5-9.8c-0.3-0.5-0.6-1.1-0.9-1.6c1.6-1.6,3.1-3.3,4.6-5c1.6-1.9,3-3.9,4.5-5.8
		c0.7-1,1.4-2,2.1-3c0.7-1,1.2-2.1,1.9-3.2c-0.9,0.9-1.7,1.8-2.5,2.7c-0.4,0.4-0.8,0.8-1.3,1.3l-1.3,1.3c-1.8,1.7-3.5,3.3-5.3,4.9
		c-1.5,1.3-3,2.6-4.6,3.8c-0.3-0.5-0.7-1-1.1-1.5c-1.7-2.4-3.7-4.7-5.8-6.8c-13.4-6.4-18.1,0-18.1,0c0.6-0.7,1.3-1.1,2.1-1.4
		c1.4-0.4,3.1-0.2,4.6,0.6l0.6,0.3l0.7,0.5c0.5,0.3,0.9,0.6,1.3,0.9c0.4,0.3,0.9,0.7,1.3,1l1.3,1.1c2.4,2.2,4.6,4.7,6.6,7.5
		c0.4,0.5,0.7,1,1,1.5c-0.4,0.3-0.9,0.5-1.3,0.7c-0.1,0.1-0.2,0.1-0.3,0.1c-1.9,1-3.8,1.7-5.8,2c-1,0.2-2,0.2-3,0.1
		c-1-0.1-1.9-0.2-2.8-0.6c-0.5-0.1-0.9-0.4-1.3-0.5c-0.4-0.2-0.9-0.5-1.3-0.7c-0.4-0.3-0.8-0.5-1.2-0.9c-0.4-0.3-0.8-0.6-1.1-1
		c-1.2-1.1-2.1-2.5-2.6-4c1.1,4.1,4.5,10.1,15,12.6c2.4-0.7,4.5-1.8,6.5-3.1c0.1,0,0.1-0.1,0.2-0.1c0.4-0.3,0.9-0.6,1.3-0.9
		c0.1,0.2,0.3,0.5,0.4,0.7c0.2,0.3,0.3,0.6,0.5,0.9c0.4,0.7,0.7,1.4,1.1,2.1c0.5,1.1,1,2.1,1.4,3.2H40.4z"/>
	<polygon class="st3" points="27.6,28.6 31.2,22.4 33,24.9 	"/>
	<g>
		<path class="st4" d="M6.4,20.9c0,0.7,0.2,1.8,0.5,3.1c-0.1-0.2-0.2-0.5-0.2-0.7C6.5,22.4,6.4,21.7,6.4,20.9z"/>
		
			<linearGradient id="SVGID_2_" gradientUnits="userSpaceOnUse" x1="4.2168" y1="291.5887" x2="28.4253" y2="242.3122" gradientTransform="matrix(1 0 0 -1 0 294.1263)">
			<stop  offset="0" style="stop-color:#EE7E73"/>
			<stop  offset="1" style="stop-color:#422052"/>
		</linearGradient>
		<path class="st5" d="M8,16.6c-0.4,0.5-0.7,1-1,1.7c-0.4,0.8-0.6,1.7-0.6,2.6c0-0.6,0-1,0-1s0,0.4,0,1c0,0.8,0.1,1.6,0.3,2.4
			c0.1,0.2,0.1,0.5,0.2,0.7c1.1,4.1,4.5,10.1,15,12.6c-0.2,0.1-0.4,0.1-0.6,0.2c-1.4,0.3-2.8,0.6-4.3,0.6c-1.5,0-2.9-0.2-4.4-0.6
			c-0.7-0.2-1.4-0.5-2.1-0.7c-0.7-0.3-1.3-0.6-1.9-1c-0.6-0.4-1.2-0.7-1.8-1.2c-0.6-0.4-1.1-0.8-1.7-1.3c-2.2-2-3.9-4.6-4.7-7.6
			c-0.8-2.9-0.7-6.3,0.6-9.2c0.6-1.4,1.5-2.8,2.8-4c1.2-1.2,2.7-2.1,4.4-2.6c1.6-0.5,3.3-0.6,4.9-0.4c1.6,0.2,3.1,0.7,4.5,1.4
			c0.3,0.2,0.7,0.4,1,0.6l0.8,0.5c0.6,0.4,1.1,0.7,1.6,1.1c0.5,0.4,1.1,0.8,1.6,1.2l1.5,1.3c0.6,0.6,1.2,1.2,1.8,1.8
			C12.7,10.2,8,16.6,8,16.6z"/>
	</g>
</g>
</svg>
