<?xml version="1.0" encoding="utf-8"?>
<!-- Generator: Adobe Illustrator 25.0.0, SVG Export Plug-In . SVG Version: 6.00 Build 0)  -->
<svg version="1.1" id="Layer_1" xmlns="http://www.w3.org/2000/svg" xmlns:xlink="http://www.w3.org/1999/xlink" x="0px" y="0px"
	 viewBox="0 0 16 16" style="enable-background:new 0 0 16 16;" xml:space="preserve">
<style type="text/css">
	.st0{display:none;}
	.st1{display:inline;fill:#1D1D1B;}
	.st2{fill:url(#SVGID_1_);}
	.st3{opacity:0.3;fill:#422052;}
	.st4{fill:none;}
	.st5{fill:url(#SVGID_2_);}
	.st6{fill:url(#SVGID_3_);}
	.st7{fill:url(#SVGID_4_);}
	.st8{fill:url(#SVGID_5_);}
	.st9{fill:url(#SVGID_6_);}
	.st10{fill:url(#SVGID_7_);}
	.st11{fill:url(#SVGID_8_);}
	.st12{fill:url(#SVGID_9_);}
	.st13{fill:url(#SVGID_10_);}
	.st14{fill:url(#SVGID_11_);}
	.st15{fill:url(#SVGID_12_);}
</style>
<g>
	
		<linearGradient id="SVGID_1_" gradientUnits="userSpaceOnUse" x1="12.9976" y1="251.9793" x2="2.5502" y2="262.4268" gradientTransform="matrix(1 0 0 -1 0 262.1263)">
		<stop  offset="0" style="stop-color:#EE7E73"/>
		<stop  offset="1" style="stop-color:#422052"/>
	</linearGradient>
	<path class="st2" d="M13.5,13.1c-0.4-1.1-0.9-2.2-1.5-3.3c-0.1-0.2-0.2-0.4-0.3-0.5c0.5-0.5,1-1.1,1.5-1.7c0.5-0.6,1-1.3,1.5-1.9
		c0.2-0.3,0.5-0.7,0.7-1C15.6,4.4,15.8,4,16,3.7c-0.3,0.3-0.6,0.6-0.8,0.9C15,4.7,14.9,4.8,14.7,5l-0.4,0.4
		c-0.6,0.6-1.2,1.1-1.8,1.6c-0.5,0.4-1,0.9-1.5,1.3c-0.1-0.2-0.2-0.3-0.4-0.5C10.1,7,9.4,6.2,8.7,5.5c-4.5-2.1-6,0-6,0
		c0.2-0.2,0.4-0.4,0.7-0.5c0.5-0.1,1-0.1,1.5,0.2l0.2,0.1l0.2,0.2c0.2,0.1,0.3,0.2,0.4,0.3C5.9,6,6.1,6.1,6.2,6.2l0.4,0.4
		C7.5,7.3,8.2,8.1,8.8,9C9,9.2,9.1,9.4,9.2,9.5C9,9.6,8.9,9.7,8.7,9.8c0,0-0.1,0-0.1,0c-0.6,0.3-1.3,0.6-1.9,0.7
		c-0.3,0.1-0.7,0.1-1,0c-0.3,0-0.6-0.1-0.9-0.2c-0.2,0-0.3-0.1-0.4-0.2C4.2,10.1,4.1,10,3.9,9.9C3.8,9.8,3.7,9.7,3.5,9.6
		C3.4,9.5,3.3,9.4,3.2,9.3C2.8,8.9,2.5,8.5,2.3,8c0.4,1.4,1.5,3.4,5,4.2c0.8-0.2,1.5-0.6,2.2-1c0,0,0,0,0.1,0
		c0.1-0.1,0.3-0.2,0.4-0.3c0,0.1,0.1,0.2,0.1,0.2c0.1,0.1,0.1,0.2,0.2,0.3c0.1,0.2,0.2,0.5,0.4,0.7c0.2,0.4,0.3,0.7,0.5,1.1H13.5z"
		/>
	<polygon class="st3" points="9.2,9.5 10.4,7.5 11,8.3 	"/>
	<g>
		<path class="st4" d="M2.1,7c0,0.2,0.1,0.6,0.2,1c0-0.1-0.1-0.2-0.1-0.2C2.2,7.5,2.1,7.2,2.1,7z"/>
		
			<linearGradient id="SVGID_2_" gradientUnits="userSpaceOnUse" x1="1.4056" y1="261.2804" x2="9.4751" y2="244.8549" gradientTransform="matrix(1 0 0 -1 0 262.1263)">
			<stop  offset="0" style="stop-color:#EE7E73"/>
			<stop  offset="1" style="stop-color:#422052"/>
		</linearGradient>
		<path class="st5" d="M2.7,5.5C2.5,5.7,2.4,5.9,2.3,6.1C2.2,6.4,2.1,6.7,2.1,7c0-0.2,0-0.3,0-0.3s0,0.1,0,0.3c0,0.3,0,0.5,0.1,0.8
			c0,0.1,0,0.2,0.1,0.2c0.4,1.4,1.5,3.4,5,4.2c-0.1,0-0.1,0-0.2,0.1c-0.5,0.1-0.9,0.2-1.4,0.2c-0.5,0-1-0.1-1.5-0.2
			C4,12.2,3.8,12.1,3.5,12c-0.2-0.1-0.4-0.2-0.6-0.3c-0.2-0.1-0.4-0.2-0.6-0.4c-0.2-0.1-0.4-0.3-0.6-0.4C1,10.2,0.4,9.3,0.2,8.3
			c-0.3-1-0.2-2.1,0.2-3.1c0.2-0.5,0.5-0.9,0.9-1.3C1.7,3.5,2.2,3.2,2.8,3c0.5-0.2,1.1-0.2,1.6-0.1c0.5,0.1,1,0.2,1.5,0.5
			C6,3.4,6.1,3.5,6.2,3.6l0.3,0.2C6.7,3.9,6.9,4,7.1,4.1c0.2,0.1,0.4,0.3,0.5,0.4l0.5,0.4c0.2,0.2,0.4,0.4,0.6,0.6
			C4.2,3.4,2.7,5.5,2.7,5.5z"/>
	</g>
</g>
</svg>
