<?xml version="1.0" encoding="utf-8"?>
<!-- Generator: Adobe Illustrator 25.0.0, SVG Export Plug-In . SVG Version: 6.00 Build 0)  -->
<svg version="1.1" id="Layer_1" xmlns="http://www.w3.org/2000/svg" xmlns:xlink="http://www.w3.org/1999/xlink" x="0px" y="0px"
	 viewBox="0 0 32 32" style="enable-background:new 0 0 32 32;" xml:space="preserve">
<style type="text/css">
	.st0{display:none;}
	.st1{display:inline;fill:#1D1D1B;}
	.st2{fill:url(#SVGID_1_);}
	.st3{opacity:0.3;fill:#422052;}
	.st4{fill:none;}
	.st5{fill:url(#SVGID_2_);}
	.st6{fill:url(#SVGID_3_);}
	.st7{fill:url(#SVGID_4_);}
	.st8{fill:url(#SVGID_5_);}
	.st9{fill:url(#SVGID_6_);}
	.st10{fill:url(#SVGID_7_);}
	.st11{fill:url(#SVGID_8_);}
	.st12{fill:url(#SVGID_9_);}
	.st13{fill:url(#SVGID_10_);}
	.st14{fill:url(#SVGID_11_);}
	.st15{fill:url(#SVGID_12_);}
</style>
<g>
	
		<linearGradient id="SVGID_1_" gradientUnits="userSpaceOnUse" x1="25.9952" y1="257.8324" x2="5.1004" y2="278.7272" gradientTransform="matrix(1 0 0 -1 0 278.1263)">
		<stop  offset="0" style="stop-color:#EE7E73"/>
		<stop  offset="1" style="stop-color:#422052"/>
	</linearGradient>
	<path class="st2" d="M27,26.3c-0.8-2.3-1.8-4.4-3-6.5c-0.2-0.4-0.4-0.7-0.6-1.1c1.1-1.1,2.1-2.2,3-3.4c1-1.3,2-2.6,3-3.9
		c0.5-0.7,1-1.3,1.4-2C31.2,8.7,31.6,8,32,7.3c-0.6,0.6-1.1,1.2-1.7,1.8c-0.3,0.3-0.6,0.6-0.9,0.8l-0.9,0.8C27.4,11.9,26.2,13,25,14
		c-1,0.9-2,1.7-3.1,2.6c-0.2-0.3-0.5-0.7-0.7-1c-1.2-1.6-2.5-3.1-3.9-4.5c-9-4.3-12.1,0-12.1,0c0.4-0.4,0.9-0.7,1.4-0.9
		c0.9-0.3,2.1-0.1,3.1,0.4l0.4,0.2l0.5,0.3c0.3,0.2,0.6,0.4,0.9,0.6c0.3,0.2,0.6,0.4,0.9,0.7l0.8,0.7c1.6,1.5,3.1,3.2,4.4,5
		c0.2,0.3,0.5,0.7,0.7,1c-0.3,0.2-0.6,0.3-0.9,0.5c-0.1,0-0.1,0.1-0.2,0.1c-1.3,0.6-2.6,1.1-3.8,1.3c-0.7,0.1-1.3,0.1-2,0.1
		c-0.6-0.1-1.3-0.2-1.9-0.4c-0.3-0.1-0.6-0.3-0.9-0.4c-0.3-0.2-0.6-0.3-0.8-0.5c-0.3-0.2-0.6-0.4-0.8-0.6c-0.3-0.2-0.5-0.4-0.7-0.6
		C5.6,17.9,5,16.9,4.6,16c0.7,2.7,3,6.7,10,8.4c1.6-0.5,3-1.2,4.3-2c0,0,0.1-0.1,0.1-0.1c0.3-0.2,0.6-0.4,0.9-0.6
		c0.1,0.2,0.2,0.3,0.3,0.5c0.1,0.2,0.2,0.4,0.3,0.6c0.2,0.5,0.5,0.9,0.7,1.4c0.3,0.7,0.7,1.4,1,2.2H27z"/>
	<polygon class="st3" points="18.4,19.1 20.8,14.9 22,16.6 	"/>
	<g>
		<path class="st4" d="M4.3,13.9c0,0.5,0.1,1.2,0.3,2c-0.1-0.2-0.1-0.3-0.1-0.5C4.3,15,4.3,14.4,4.3,13.9z"/>
		
			<linearGradient id="SVGID_2_" gradientUnits="userSpaceOnUse" x1="2.8112" y1="276.4345" x2="18.9502" y2="243.5836" gradientTransform="matrix(1 0 0 -1 0 278.1263)">
			<stop  offset="0" style="stop-color:#EE7E73"/>
			<stop  offset="1" style="stop-color:#422052"/>
		</linearGradient>
		<path class="st5" d="M5.4,11.1c-0.3,0.3-0.5,0.7-0.7,1.1c-0.2,0.6-0.4,1.1-0.4,1.8c0-0.4,0-0.6,0-0.6s0,0.2,0,0.6
			c0,0.5,0.1,1,0.2,1.6c0,0.2,0.1,0.3,0.1,0.5c0.7,2.7,3,6.7,10,8.4c-0.1,0-0.3,0.1-0.4,0.1c-0.9,0.2-1.9,0.4-2.8,0.4
			c-1,0-2-0.1-2.9-0.4C8,24.3,7.5,24.2,7.1,24c-0.4-0.2-0.9-0.4-1.3-0.6c-0.4-0.3-0.8-0.5-1.2-0.8c-0.4-0.3-0.8-0.5-1.1-0.9
			c-1.5-1.3-2.6-3.1-3.1-5c-0.6-2-0.5-4.2,0.4-6.2c0.4-0.9,1-1.9,1.8-2.7C3.4,7,4.4,6.4,5.5,6.1c1.1-0.3,2.2-0.4,3.3-0.3
			c1.1,0.1,2.1,0.5,3,0.9C12,6.9,12.3,7,12.5,7.1L13,7.5c0.4,0.2,0.7,0.5,1.1,0.8c0.3,0.3,0.7,0.5,1,0.8l1,0.8
			c0.4,0.4,0.8,0.8,1.2,1.2C8.5,6.8,5.4,11,5.4,11.1z"/>
	</g>
</g>
</svg>
