<svg id="Layer_1" data-name="Layer 1" xmlns="http://www.w3.org/2000/svg" xmlns:xlink="http://www.w3.org/1999/xlink" viewBox="0 0 252 144"><defs><style>.cls-1{fill:url(#linear-gradient);}.cls-12,.cls-16,.cls-2,.cls-20,.cls-23,.cls-6{fill:#fff;}.cls-3{fill:url(#linear-gradient-2);}.cls-4,.cls-5{fill:none;}.cls-5{stroke-miterlimit:10;stroke:url(#Degradado_sin_nombre_90);}.cls-6{font-size:6.42px;letter-spacing:0.04em;}.cls-12,.cls-16,.cls-20,.cls-23,.cls-6{font-family:Montserrat-Medium, Montserrat;font-weight:500;}.cls-7{letter-spacing:0.05em;}.cls-8{font-size:10.54px;font-family:Montserrat-SemiBold, Montserrat;font-weight:600;letter-spacing:-0.05em;}.cls-25,.cls-8{fill:#010101;}.cls-9{letter-spacing:0.01em;}.cls-10{letter-spacing:0.01em;}.cls-11{letter-spacing:0.01em;}.cls-12,.cls-16,.cls-20,.cls-23{font-size:6.72px;}.cls-12{letter-spacing:0.06em;}.cls-13{letter-spacing:0.05em;}.cls-14,.cls-23{letter-spacing:0.05em;}.cls-15{letter-spacing:0.03em;}.cls-16{letter-spacing:0.04em;}.cls-17{letter-spacing:0.04em;}.cls-18{letter-spacing:0.05em;}.cls-19{letter-spacing:0.04em;}.cls-20{letter-spacing:0.04em;}.cls-21{letter-spacing:0.02em;}.cls-22{letter-spacing:0.04em;}.cls-24{letter-spacing:0.04em;}.cls-26{fill:url(#linear-gradient-3);}.cls-27{fill:#3f1d56;opacity:0.3;}.cls-28{fill:url(#linear-gradient-4);}</style><linearGradient id="linear-gradient" x1="38.5" y1="135.11" x2="271.44" y2="-32.89" gradientUnits="userSpaceOnUse"><stop offset="0" stop-color="#f48073"/><stop offset="1" stop-color="#3f1d56"/></linearGradient><linearGradient id="linear-gradient-2" x1="43.88" y1="72" x2="124.69" y2="72" xlink:href="#linear-gradient"/><linearGradient id="Degradado_sin_nombre_90" x1="211.78" y1="71.17" x2="176.37" y2="30.74" gradientUnits="userSpaceOnUse"><stop offset="0" stop-color="#001021"/><stop offset="1" stop-color="#003849"/></linearGradient><linearGradient id="linear-gradient-3" x1="71.7" y1="249.31" x2="19.06" y2="301.95" gradientTransform="matrix(1, 0, 0, -1, 0, 334.13)" xlink:href="#linear-gradient"/><linearGradient id="linear-gradient-4" x1="13.3" y1="296.17" x2="53.95" y2="213.42" gradientTransform="matrix(1, 0, 0, -1, 0, 334.13)" xlink:href="#linear-gradient"/></defs><rect class="cls-1" x="-3" y="-5.39" width="258" height="154.79"/><path class="cls-2" d="M131,149.4H-3V-5.4H59.75a0,0,0,0,1,0,0A123.58,123.58,0,0,1,95.05,42.93l34.14,83.69A37.07,37.07,0,0,1,131,149.4Z"/><path class="cls-3" d="M122.09,120.3,91.72,45.84A112.1,112.1,0,0,0,49.56-5.39H43.89A109,109,0,0,1,88.94,47l30.38,74.46a31.57,31.57,0,0,1-2,28h3.42A34.55,34.55,0,0,0,122.09,120.3Z"/><rect class="cls-4" x="-3" y="-5.4" width="258" height="154.8"/><line class="cls-5" x1="153.86" y1="50.96" x2="234.29" y2="50.96"/><text class="cls-6" transform="translate(218.82 45.03)">T<tspan class="cls-7" x="4.01" y="0">itle</tspan></text><text class="cls-8" transform="translate(172.8 35.71)">Y<tspan class="cls-9" x="6.44" y="0">our Na</tspan><tspan class="cls-10" x="43.33" y="0">m</tspan><tspan class="cls-11" x="54.59" y="0">e</tspan></text><text class="cls-12" transform="translate(167.1 78.27)">+<tspan class="cls-13" x="4.29" y="0">0</tspan><tspan class="cls-14" x="9.09" y="0">1 23</tspan><tspan class="cls-13" x="22.42" y="0">4</tspan><tspan class="cls-14" x="27.23" y="0">5 </tspan><tspan class="cls-15" x="33.57" y="0">7</tspan><tspan class="cls-14" x="37.8" y="0">89</tspan></text><text class="cls-16" transform="translate(164.29 90.21)">A<tspan class="cls-14" x="5.22" y="0">dd</tspan><tspan class="cls-17" x="15.06" y="0">r</tspan><tspan class="cls-18" x="18.06" y="0">ess He</tspan><tspan class="cls-19" x="42.3" y="0">r</tspan><tspan class="cls-14" x="45.31" y="0">e</tspan></text><text class="cls-20" transform="translate(146.67 102.68)">ww<tspan class="cls-21" x="12.64" y="0">w.</tspan><tspan class="cls-22" x="20.44" y="0">w</tspan><tspan class="cls-14" x="26.71" y="0">ebsi</tspan><tspan class="cls-15" x="41.99" y="0">t</tspan><tspan class="cls-14" x="44.98" y="0">e</tspan><tspan class="cls-17" x="49.43" y="0">.</tspan><tspan x="51.21" y="0">c</tspan><tspan class="cls-18" x="55.33" y="0">om</tspan></text><text class="cls-23" transform="translate(151.95 115.14)">email@mail<tspan class="cls-17" x="44.15" y="0">.</tspan><tspan class="cls-24" x="45.93" y="0">c</tspan><tspan x="50.05" y="0">om</tspan></text><polygon class="cls-25" points="234.29 71.09 234.29 80.91 224.03 80.91 219.15 76.03 224.06 71.11 234.29 71.09"/><polygon class="cls-25" points="234.29 83.2 234.29 93.03 224.03 93.03 219.15 88.14 224.06 83.23 234.29 83.2"/><polygon class="cls-25" points="234.29 95.32 234.29 105.14 224.03 105.14 219.15 100.25 224.06 95.34 234.29 95.32"/><polygon class="cls-25" points="234.29 107.43 234.29 117.25 224.03 117.25 219.15 112.37 224.06 107.45 234.29 107.43"/><path class="cls-2" d="M226,73.88a.66.66,0,0,1,.17-.44.67.67,0,0,1,.48-.21h.87a.66.66,0,0,1,.65.58,2.9,2.9,0,0,0,.12.57.65.65,0,0,1-.16.65l-.36.35A4.07,4.07,0,0,0,229.34,77l.35-.36a.65.65,0,0,1,.65-.16,2.9,2.9,0,0,0,.57.12.65.65,0,0,1,.58.65v.87a.65.65,0,0,1-.71.65,5.47,5.47,0,0,1-3.29-1.54,5.74,5.74,0,0,1-1.05-1.49,5.35,5.35,0,0,1-.49-1.8v-.06Zm1.88.69a.17.17,0,0,0,0-.07,3.56,3.56,0,0,1-.13-.65.23.23,0,0,0-.22-.19h-.87a.24.24,0,0,0-.16.07.19.19,0,0,0-.06.17,4.91,4.91,0,0,0,4.44,4.44.23.23,0,0,0,.16-.06.21.21,0,0,0,.08-.16v-.87a.23.23,0,0,0-.2-.22,3.46,3.46,0,0,1-.64-.13.2.2,0,0,0-.22,0l-.58.58-.14-.07a4.54,4.54,0,0,1-2-2l-.07-.14.58-.58a.2.2,0,0,0,.06-.15Zm0,0"/><path class="cls-2" d="M228.72,84.72a2.62,2.62,0,0,0-2.62,2.62,4.61,4.61,0,0,0,1.25,3,6.37,6.37,0,0,0,1.24,1.12.2.2,0,0,0,.13,0,.22.22,0,0,0,.13,0,6.71,6.71,0,0,0,1.24-1.12,4.65,4.65,0,0,0,1.24-3,2.61,2.61,0,0,0-2.61-2.62Zm0,6.27a5,5,0,0,1-2.15-3.65,2.15,2.15,0,0,1,4.3,0A5,5,0,0,1,228.72,91Zm0,0"/><path class="cls-2" d="M228.72,86.3a1,1,0,1,0,1,1,1,1,0,0,0-1-1Zm0,1.6a.57.57,0,1,1,0-1.13.57.57,0,1,1,0,1.13Zm0,0"/><path class="cls-2" d="M231.88,110.48h0v0h0v0h-6.21v0h0v0h0a.41.41,0,0,0,0,.19V114a.63.63,0,0,0,.6.62h5.17a.61.61,0,0,0,.59-.43,0,0,0,0,0,0,0,.88.88,0,0,0,0-.16v-3.34a.58.58,0,0,0,0-.19Zm-5.86,0h5.4l-2.56,2.56a.18.18,0,0,1-.14.06.2.2,0,0,1-.15-.06L226,110.51Zm-.08.52,1.32,1.31-1.32,1.32Zm5.35,3.19h-5.14a.21.21,0,0,1-.13,0l1.53-1.53.73.72a.6.6,0,0,0,.44.19.63.63,0,0,0,.44-.19l.73-.73,1.53,1.54a.21.21,0,0,1-.13,0Zm.21-.57-1.32-1.31L231.5,111Zm0,0"/><path class="cls-2" d="M231,98a3.17,3.17,0,0,0-2.26-.94h0a3.21,3.21,0,0,0-3.2,3.2,3.19,3.19,0,0,0,3.2,3.19,3.18,3.18,0,0,0,3.19-3.19A3.17,3.17,0,0,0,231,98Zm.21,3.62h-.94a4.11,4.11,0,0,0,.22-1.18h1.06a2.89,2.89,0,0,1-.34,1.18ZM228.72,103a2.67,2.67,0,0,1-1-1h1.93a2.57,2.57,0,0,1-1,1Zm-1.14-1.43a3.75,3.75,0,0,1-.24-1.18h2.75a3.75,3.75,0,0,1-.24,1.18Zm-1.68-1.18H227a4.11,4.11,0,0,0,.21,1.18h-.93a2.75,2.75,0,0,1-.35-1.18Zm.35-1.55h.93A4.17,4.17,0,0,0,227,100H225.9a2.84,2.84,0,0,1,.35-1.18Zm2.47-1.43a2.6,2.6,0,0,1,1,1.06h-1.93a2.7,2.7,0,0,1,1-1.06Zm1.13,1.43a3.75,3.75,0,0,1,.24,1.18h-2.75a3.75,3.75,0,0,1,.24-1.18Zm1.68,1.18h-1.06a4.18,4.18,0,0,0-.22-1.18h.94a3,3,0,0,1,.34,1.18Zm-1.43-1.55a3.15,3.15,0,0,0-.7-1,2.83,2.83,0,0,1,1.54,1Zm-2.07-1a3.32,3.32,0,0,0-.7,1h-.83a2.85,2.85,0,0,1,1.53-1Zm-.7,4.48a3.4,3.4,0,0,0,.7,1,2.83,2.83,0,0,1-1.53-1Zm2.07,1a3.22,3.22,0,0,0,.7-1h.84a2.82,2.82,0,0,1-1.54,1Zm0,0"/><path class="cls-26" d="M74.13,99.88a109,109,0,0,0-7.57-16.45c-.51-.91-1-1.8-1.57-2.69,2.7-2.73,5.26-5.54,7.66-8.46,2.62-3.2,5.11-6.47,7.5-9.8,1.19-1.66,2.43-3.28,3.54-5.07s2-3.56,3.13-5.29c-1.45,1.44-2.83,3-4.21,4.45-.7.74-1.41,1.4-2.17,2.1l-2.23,2.11c-3,2.8-5.9,5.61-8.92,8.27-2.52,2.23-5.07,4.4-7.69,6.43C61,74.63,60.43,73.8,59.83,73a93.62,93.62,0,0,0-9.77-11.44c-22.55-10.74-30.36,0-30.37,0a7.63,7.63,0,0,1,3.53-2.3,10.46,10.46,0,0,1,7.8,1l1,.55,1.15.76c.76.52,1.53,1,2.26,1.59s1.48,1.1,2.19,1.71l2.13,1.83a81.64,81.64,0,0,1,11,12.52c.59.83,1.18,1.67,1.75,2.52-.73.42-1.46.83-2.2,1.21l-.5.25a34.16,34.16,0,0,1-9.69,3.38,23.38,23.38,0,0,1-5,.24,17.65,17.65,0,0,1-4.69-1,22.56,22.56,0,0,1-2.22-.92c-.72-.38-1.44-.77-2.14-1.21s-1.39-.89-2-1.48-1.35-1.09-1.88-1.63a17.41,17.41,0,0,1-4.33-6.66c1.85,6.84,7.61,17,25.23,21.1a42,42,0,0,0,10.87-5.14l.36-.23c.73-.49,1.44-1,2.15-1.53l.69,1.2L58,90.86c.63,1.19,1.25,2.38,1.83,3.6.86,1.78,1.66,3.6,2.41,5.42Z"/><polygon class="cls-27" points="52.49 81.71 58.61 71.33 61.6 75.48 52.49 81.71"/><path class="cls-4" d="M17,68.75a24.4,24.4,0,0,0,.84,5.16c-.14-.39-.27-.79-.37-1.19A14.27,14.27,0,0,1,17,68.75Z"/><path class="cls-28" d="M19.69,61.53A10.82,10.82,0,0,0,18,64.33a11.2,11.2,0,0,0-1,4.42,12.54,12.54,0,0,1,0-1.61,12.54,12.54,0,0,0,0,1.61,14.27,14.27,0,0,0,.47,4c.1.4.23.8.37,1.19,1.85,6.84,7.61,17,25.23,21.1L42,95.32a30,30,0,0,1-7.14,1,27.18,27.18,0,0,1-7.32-1,28.31,28.31,0,0,1-3.5-1.2c-1.11-.5-2.21-1-3.26-1.64a34.3,34.3,0,0,1-3-1.95A31.35,31.35,0,0,1,15,88.25,26.86,26.86,0,0,1,7.09,75.54,23.07,23.07,0,0,1,8.12,60a21,21,0,0,1,4.62-6.72A18.29,18.29,0,0,1,20.09,49a19.83,19.83,0,0,1,8.28-.69A22.69,22.69,0,0,1,36,50.66l1.7,1,1.4.92c.93.62,1.88,1.22,2.75,1.9s1.8,1.31,2.64,2L47,58.58q1.59,1.44,3.1,3C27.51,50.79,19.7,61.53,19.69,61.53Z"/></svg>