<svg id="Layer_1" data-name="Layer 1" xmlns="http://www.w3.org/2000/svg" xmlns:xlink="http://www.w3.org/1999/xlink" viewBox="0 0 612 792"><defs><style>.cls-1{fill:#fff;}.cls-10,.cls-2{font-size:12.36px;font-family:Montserrat-Medium, Montserrat;font-weight:500;}.cls-10,.cls-15,.cls-17,.cls-2{fill:#3f1d56;}.cls-2{letter-spacing:0.06em;}.cls-3{letter-spacing:0.05em;}.cls-4{letter-spacing:0.05em;}.cls-5{letter-spacing:0.05em;}.cls-6{letter-spacing:0.05em;}.cls-7{letter-spacing:0.03em;}.cls-8{letter-spacing:0.04em;}.cls-9{letter-spacing:0.04em;}.cls-10{letter-spacing:0.04em;}.cls-11{letter-spacing:0.02em;}.cls-12{letter-spacing:0.04em;}.cls-13{letter-spacing:0.04em;}.cls-14{letter-spacing:0.04em;}.cls-16{fill:url(#linear-gradient);}.cls-17{opacity:0.3;}.cls-18{fill:none;}.cls-19{fill:url(#linear-gradient-2);}</style><linearGradient id="linear-gradient" x1="332.45" y1="929.43" x2="277.16" y2="984.72" gradientTransform="matrix(1, 0, 0, -1, 0, 981.13)" gradientUnits="userSpaceOnUse"><stop offset="0" stop-color="#f48073"/><stop offset="1" stop-color="#3f1d56"/></linearGradient><linearGradient id="linear-gradient-2" x1="271.1" y1="978.66" x2="313.81" y2="891.72" xlink:href="#linear-gradient"/></defs><rect class="cls-1" x="-3" y="-3" width="618" height="798"/><text class="cls-2" transform="translate(207.01 755.6)">+<tspan class="cls-3" x="7.9" y="0">0</tspan><tspan class="cls-4" x="16.72" y="0">1 23</tspan><tspan class="cls-5" x="41.25" y="0">4</tspan><tspan class="cls-6" x="50.1" y="0">5 </tspan><tspan class="cls-7" x="61.76" y="0">7</tspan><tspan class="cls-4" x="69.54" y="0" xml:space="preserve">89  |  </tspan><tspan class="cls-8" x="106.44" y="0">A</tspan><tspan class="cls-6" x="116.05" y="0">dd</tspan><tspan class="cls-9" x="134.14" y="0">r</tspan><tspan class="cls-6" x="139.68" y="0">ess He</tspan><tspan class="cls-9" x="184.26" y="0">r</tspan><tspan class="cls-6" x="189.79" y="0">e</tspan></text><text class="cls-10" transform="translate(176.88 775.6)">ww<tspan class="cls-11" x="23.26" y="0">w.</tspan><tspan class="cls-12" x="37.6" y="0">w</tspan><tspan class="cls-6" x="49.14" y="0">ebsi</tspan><tspan class="cls-7" x="77.24" y="0">t</tspan><tspan class="cls-6" x="82.75" y="0">e</tspan><tspan class="cls-13" x="90.94" y="0">.</tspan><tspan class="cls-14" x="94.21" y="0">c</tspan><tspan class="cls-6" x="101.79" y="0" xml:space="preserve">om  |  email@mail</tspan><tspan class="cls-9" x="225.24" y="0">.</tspan><tspan class="cls-14" x="228.51" y="0">c</tspan><tspan class="cls-6" x="236.09" y="0">om</tspan></text><path class="cls-15" d="M222.77,108.47v.71h-2.45v-3.5h2.41v.71h-1.61v.68h1.38v.65h-1.38v.75Z"/><path class="cls-15" d="M225.84,107.18v2H225v-3.5h.63l1.63,2v-2h.8v3.5h-.65Z"/><path class="cls-15" d="M230.54,109.18v-3.5h.81v2.79h1.7v.71Z"/><path class="cls-15" d="M236.5,109.21a1.63,1.63,0,0,1-.7-.16,1.59,1.59,0,0,1-.55-.4,1.89,1.89,0,0,1-.48-1.23,1.85,1.85,0,0,1,.13-.66,1.76,1.76,0,0,1,.37-.56,1.53,1.53,0,0,1,.55-.39,1.73,1.73,0,0,1,1.41,0,1.84,1.84,0,0,1,.54.41,1.69,1.69,0,0,1,.35.57,1.64,1.64,0,0,1,.13.65,1.85,1.85,0,0,1-.13.66,2,2,0,0,1-.36.57,1.87,1.87,0,0,1-.56.39A1.6,1.6,0,0,1,236.5,109.21Zm-.91-1.78a1.34,1.34,0,0,0,.06.4,1.06,1.06,0,0,0,.18.33.85.85,0,0,0,.29.24.8.8,0,0,0,.39.09.74.74,0,0,0,.4-.1.85.85,0,0,0,.29-.24,1.2,1.2,0,0,0,.17-.34,1.3,1.3,0,0,0,0-.78,1,1,0,0,0-.18-.33.88.88,0,0,0-.68-.32.84.84,0,0,0-.4.09,1,1,0,0,0-.29.24,1.25,1.25,0,0,0-.23.72Z"/><path class="cls-15" d="M240.28,107.4a1.76,1.76,0,0,1,.12-.63,1.82,1.82,0,0,1,.35-.56,1.9,1.9,0,0,1,.55-.4,1.75,1.75,0,0,1,.74-.15,1.67,1.67,0,0,1,.85.21,1.42,1.42,0,0,1,.54.55l-.62.44a.76.76,0,0,0-.15-.23,1,1,0,0,0-.2-.15,1,1,0,0,0-.22-.08l-.22,0a.88.88,0,0,0-.41.09,1,1,0,0,0-.28.25.94.94,0,0,0-.17.33,1.2,1.2,0,0,0,0,.38,1.34,1.34,0,0,0,.06.4.88.88,0,0,0,.19.34.82.82,0,0,0,.29.23.79.79,0,0,0,.38.09l.22,0,.22-.08a1,1,0,0,0,.2-.15.74.74,0,0,0,.14-.23l.66.39a1,1,0,0,1-.23.35,1.78,1.78,0,0,1-.36.25,2,2,0,0,1-.87.22,1.6,1.6,0,0,1-.7-.16,1.84,1.84,0,0,1-.55-.41,1.8,1.8,0,0,1-.35-.58A1.94,1.94,0,0,1,240.28,107.4Z"/><path class="cls-15" d="M245.64,109.18v-3.5h.81v1.51l1.28-1.51h.91l-1.31,1.56,1.4,1.94h-.92l-1-1.41-.37.38v1Z"/><path class="cls-15" d="M254,105.68l.75,1.61.77-1.61h.88l-1.25,2.3v1.2h-.8V108l-1.22-2.3Z"/><path class="cls-15" d="M259.78,109.21a1.65,1.65,0,0,1-.71-.16,1.73,1.73,0,0,1-.9-1,1.84,1.84,0,0,1-.12-.66,1.65,1.65,0,0,1,.13-.66,1.92,1.92,0,0,1,.36-.56,1.77,1.77,0,0,1,1.25-.54,1.64,1.64,0,0,1,.71.15,1.76,1.76,0,0,1,.55.41,1.87,1.87,0,0,1,.35.57,1.82,1.82,0,0,1,.12.65,1.65,1.65,0,0,1-.13.66,1.78,1.78,0,0,1-.36.57,1.83,1.83,0,0,1-.55.39A1.63,1.63,0,0,1,259.78,109.21Zm-.91-1.78a1.34,1.34,0,0,0,.06.4,1.29,1.29,0,0,0,.17.33,1,1,0,0,0,.29.24.87.87,0,0,0,.4.09.77.77,0,0,0,.4-.1.81.81,0,0,0,.28-.24.84.84,0,0,0,.17-.34,1.3,1.3,0,0,0,0-.78,1,1,0,0,0-.18-.33.7.7,0,0,0-.28-.23.86.86,0,0,0-.39-.09.88.88,0,0,0-.41.09.92.92,0,0,0-.28.24.84.84,0,0,0-.17.34A1.21,1.21,0,0,0,258.87,107.43Z"/><path class="cls-15" d="M265.26,108.49a.63.63,0,0,0,.35-.09.57.57,0,0,0,.23-.23.82.82,0,0,0,.13-.33,2.21,2.21,0,0,0,0-.37v-1.79h.8v1.79a2.48,2.48,0,0,1-.09.68,1.51,1.51,0,0,1-.28.55,1.27,1.27,0,0,1-.48.37,1.68,1.68,0,0,1-.7.14,1.55,1.55,0,0,1-.71-.15,1.21,1.21,0,0,1-.48-.38,1.66,1.66,0,0,1-.27-.55,2.39,2.39,0,0,1-.09-.66v-1.79h.81v1.79a1.58,1.58,0,0,0,0,.38,1.2,1.2,0,0,0,.13.33.61.61,0,0,0,.23.22A.62.62,0,0,0,265.26,108.49Z"/><path class="cls-15" d="M269.21,109.18v-3.5h1.58a1,1,0,0,1,.45.11,1,1,0,0,1,.36.27,1.31,1.31,0,0,1,.24.37,1.14,1.14,0,0,1,.09.43,1.65,1.65,0,0,1,0,.32,1.39,1.39,0,0,1-.12.28.81.81,0,0,1-.17.24l-.24.18.76,1.3h-.91l-.67-1.13H270v1.13Zm.81-1.84h.74a.3.3,0,0,0,.24-.13.56.56,0,0,0,.11-.35.47.47,0,0,0-.12-.34.35.35,0,0,0-.26-.13H270Z"/><path class="cls-15" d="M280.09,108.28a.71.71,0,0,1-.1.39.68.68,0,0,1-.25.28,1.19,1.19,0,0,1-.38.17,1.7,1.7,0,0,1-.46.06h-1.7v-3.5h1.94a.73.73,0,0,1,.33.08.82.82,0,0,1,.25.2.83.83,0,0,1,.16.29,1,1,0,0,1,.06.33.9.9,0,0,1-.13.47.71.71,0,0,1-.37.33.88.88,0,0,1,.47.32A.89.89,0,0,1,280.09,108.28ZM278,106.37v.72h.79A.36.36,0,0,0,279,107a.36.36,0,0,0,.11-.28.38.38,0,0,0-.09-.27.31.31,0,0,0-.22-.09Zm1.26,1.75a.45.45,0,0,0-.1-.28.3.3,0,0,0-.23-.11H278v.76h.89a.34.34,0,0,0,.26-.1A.37.37,0,0,0,279.27,108.12Z"/><path class="cls-15" d="M283.84,108.49a.65.65,0,0,0,.35-.09.72.72,0,0,0,.23-.23.81.81,0,0,0,.12-.33,1.5,1.5,0,0,0,0-.37v-1.79h.81v1.79a2.48,2.48,0,0,1-.09.68,1.68,1.68,0,0,1-.28.55,1.3,1.3,0,0,1-.49.37,1.79,1.79,0,0,1-1.41,0,1.37,1.37,0,0,1-.48-.38,1.66,1.66,0,0,1-.27-.55,2.84,2.84,0,0,1-.08-.66v-1.79h.8v1.79a2.33,2.33,0,0,0,0,.38,1.2,1.2,0,0,0,.13.33.69.69,0,0,0,.23.22A.63.63,0,0,0,283.84,108.49Z"/><path class="cls-15" d="M289.88,106.71s0,0-.1-.08a1.5,1.5,0,0,0-.22-.11l-.29-.11a1.75,1.75,0,0,0-.32,0c-.29,0-.43.1-.43.29a.2.2,0,0,0,.05.15.34.34,0,0,0,.13.1,1,1,0,0,0,.23.09l.32.09.45.15a1.19,1.19,0,0,1,.35.2.86.86,0,0,1,.21.29,1.08,1.08,0,0,1,.08.42,1.12,1.12,0,0,1-.11.5,1,1,0,0,1-.29.33,1.33,1.33,0,0,1-.42.18,2,2,0,0,1-.49.06,2.77,2.77,0,0,1-.79-.12,2.79,2.79,0,0,1-.37-.14,1.74,1.74,0,0,1-.33-.18l.35-.7.13.09a1.67,1.67,0,0,0,.27.14,1.9,1.9,0,0,0,.36.12,1.34,1.34,0,0,0,.4.06c.28,0,.42-.09.42-.26a.25.25,0,0,0-.06-.17.5.5,0,0,0-.18-.11,1.18,1.18,0,0,0-.27-.1l-.33-.1a2.85,2.85,0,0,1-.42-.16.79.79,0,0,1-.29-.2.68.68,0,0,1-.18-.26,1.22,1.22,0,0,1,.05-.83,1.09,1.09,0,0,1,.28-.36,1.23,1.23,0,0,1,.41-.21,1.64,1.64,0,0,1,.5-.08,1.47,1.47,0,0,1,.36,0l.34.08.3.13.26.14Z"/><path class="cls-15" d="M292.58,109.18v-3.5h.81v3.5Z"/><path class="cls-15" d="M296.64,107.18v2h-.81v-3.5h.63l1.63,2v-2h.81v3.5h-.65Z"/><path class="cls-15" d="M303.8,108.47v.71h-2.46v-3.5h2.41v.71h-1.6v.68h1.38v.65h-1.38v.75Z"/><path class="cls-15" d="M308.08,106.71s0,0-.1-.08l-.22-.11-.29-.11a1.75,1.75,0,0,0-.32,0c-.29,0-.43.1-.43.29a.25.25,0,0,0,0,.15.34.34,0,0,0,.13.1,1.23,1.23,0,0,0,.23.09l.32.09.46.15a1.27,1.27,0,0,1,.34.2.86.86,0,0,1,.21.29.93.93,0,0,1,.08.42,1.12,1.12,0,0,1-.11.5,1,1,0,0,1-.29.33,1.33,1.33,0,0,1-.42.18,2,2,0,0,1-.49.06,2.77,2.77,0,0,1-.79-.12,2.79,2.79,0,0,1-.37-.14,1.74,1.74,0,0,1-.33-.18l.35-.7.13.09a1.67,1.67,0,0,0,.27.14,1.9,1.9,0,0,0,.36.12,1.34,1.34,0,0,0,.4.06c.28,0,.42-.09.42-.26a.25.25,0,0,0-.06-.17.5.5,0,0,0-.18-.11,1.28,1.28,0,0,0-.26-.1l-.34-.1a2.85,2.85,0,0,1-.42-.16.79.79,0,0,1-.29-.2.68.68,0,0,1-.18-.26,1.22,1.22,0,0,1,.05-.83,1.09,1.09,0,0,1,.28-.36,1.23,1.23,0,0,1,.41-.21,1.64,1.64,0,0,1,.5-.08,1.47,1.47,0,0,1,.36,0l.34.08a2.71,2.71,0,0,1,.3.13l.26.14Z"/><path class="cls-15" d="M312.88,106.71s0,0-.1-.08a1.5,1.5,0,0,0-.22-.11l-.29-.11a1.75,1.75,0,0,0-.32,0c-.29,0-.43.1-.43.29a.2.2,0,0,0,.05.15.34.34,0,0,0,.13.1,1,1,0,0,0,.23.09l.32.09.45.15a1.19,1.19,0,0,1,.35.2.86.86,0,0,1,.21.29,1.08,1.08,0,0,1,.08.42,1.12,1.12,0,0,1-.11.5,1.15,1.15,0,0,1-.29.33,1.57,1.57,0,0,1-.42.18,2,2,0,0,1-.49.06,2.77,2.77,0,0,1-.79-.12,2.35,2.35,0,0,1-.37-.14,1.74,1.74,0,0,1-.33-.18l.35-.7.13.09a1.67,1.67,0,0,0,.27.14,1.69,1.69,0,0,0,.36.12,1.32,1.32,0,0,0,.39.06c.29,0,.43-.09.43-.26a.25.25,0,0,0-.06-.17.5.5,0,0,0-.18-.11,1.18,1.18,0,0,0-.27-.1l-.33-.1a2.85,2.85,0,0,1-.42-.16.93.93,0,0,1-.3-.2.78.78,0,0,1-.17-.26.87.87,0,0,1-.05-.34,1,1,0,0,1,.38-.85,1.14,1.14,0,0,1,.41-.21,1.64,1.64,0,0,1,.5-.08,1.47,1.47,0,0,1,.36,0l.33.08.31.13.26.14Z"/><path class="cls-15" d="M318,108.47v.71h-2.46v-3.5H318v.71h-1.61v.68h1.38v.65h-1.38v.75Z"/><path class="cls-15" d="M322.33,106.71s-.05,0-.11-.08l-.22-.11a2,2,0,0,0-.29-.11,1.65,1.65,0,0,0-.31,0c-.29,0-.44.1-.44.29a.25.25,0,0,0,.05.15.39.39,0,0,0,.14.1,1,1,0,0,0,.23.09l.32.09.45.15a1.13,1.13,0,0,1,.34.2.77.77,0,0,1,.22.29,1.09,1.09,0,0,1,.07.42,1,1,0,0,1-.11.5,1,1,0,0,1-.29.33,1.33,1.33,0,0,1-.42.18,2,2,0,0,1-.48.06l-.4,0a2.74,2.74,0,0,1-.39-.09,2.35,2.35,0,0,1-.37-.14,2.21,2.21,0,0,1-.34-.18l.36-.7a.48.48,0,0,0,.13.09,2,2,0,0,0,.26.14,1.9,1.9,0,0,0,.36.12,1.39,1.39,0,0,0,.4.06c.29,0,.43-.09.43-.26a.22.22,0,0,0-.07-.17.56.56,0,0,0-.17-.11,1.69,1.69,0,0,0-.27-.1l-.34-.1a2.85,2.85,0,0,1-.42-.16,1,1,0,0,1-.29-.2.65.65,0,0,1-.17-.26.86.86,0,0,1-.06-.34,1.1,1.1,0,0,1,.11-.49,1,1,0,0,1,.28-.36,1.06,1.06,0,0,1,.41-.21,1.57,1.57,0,0,1,.49-.08,1.47,1.47,0,0,1,.36,0l.34.08a2.08,2.08,0,0,1,.3.13,1.59,1.59,0,0,1,.26.14Z"/><path class="cls-15" d="M330.47,106.39h-1.06v2.79h-.81v-2.79h-1.07v-.71h2.94Z"/><path class="cls-15" d="M332.64,109.18v-3.5h1.57a1,1,0,0,1,.46.11,1,1,0,0,1,.36.27,1.31,1.31,0,0,1,.24.37,1.12,1.12,0,0,1,.08.43,1.66,1.66,0,0,1,0,.32,1.39,1.39,0,0,1-.12.28,1.06,1.06,0,0,1-.42.42l.77,1.3h-.91l-.67-1.13h-.52v1.13Zm.81-1.84h.73a.3.3,0,0,0,.25-.13.56.56,0,0,0,.1-.35.47.47,0,0,0-.12-.34.31.31,0,0,0-.25-.13h-.71Z"/><path class="cls-15" d="M339.21,108.49a.65.65,0,0,0,.35-.09.72.72,0,0,0,.23-.23,1,1,0,0,0,.13-.33,2.22,2.22,0,0,0,0-.37v-1.79h.81v1.79a2.48,2.48,0,0,1-.09.68,1.68,1.68,0,0,1-.28.55,1.3,1.3,0,0,1-.49.37,1.6,1.6,0,0,1-.69.14,1.52,1.52,0,0,1-.71-.15,1.21,1.21,0,0,1-.48-.38,1.51,1.51,0,0,1-.28-.55,2.84,2.84,0,0,1-.08-.66v-1.79h.81v1.79a2.34,2.34,0,0,0,0,.38,1.2,1.2,0,0,0,.13.33.69.69,0,0,0,.23.22A.65.65,0,0,0,339.21,108.49Z"/><path class="cls-15" d="M345.61,108.47v.71h-2.45v-3.5h2.41v.71H344v.68h1.38v.65H344v.75Z"/><path class="cls-15" d="M350.79,109.18v-3.5h1.5a1,1,0,0,1,.46.11.92.92,0,0,1,.35.27,1.12,1.12,0,0,1,.24.37,1.14,1.14,0,0,1,.09.43,1.38,1.38,0,0,1-.08.45,1.28,1.28,0,0,1-.23.37.92.92,0,0,1-.35.27,1,1,0,0,1-.46.1h-.71v1.13Zm.81-1.84h.66a.32.32,0,0,0,.25-.12.53.53,0,0,0,.1-.36.66.66,0,0,0,0-.21.38.38,0,0,0-.09-.15.25.25,0,0,0-.12-.08.35.35,0,0,0-.14,0h-.63Z"/><path class="cls-15" d="M357.16,109.21a1.68,1.68,0,0,1-.71-.16,1.8,1.8,0,0,1-.89-2.29,1.76,1.76,0,0,1,.37-.56,1.53,1.53,0,0,1,.55-.39,1.63,1.63,0,0,1,.7-.15,1.67,1.67,0,0,1,.71.15,1.84,1.84,0,0,1,.54.41,1.87,1.87,0,0,1,.35.57,1.72,1.72,0,0,1,0,1.31,1.81,1.81,0,0,1-.37.57,1.71,1.71,0,0,1-.55.39A1.6,1.6,0,0,1,357.16,109.21Zm-.91-1.78a1.34,1.34,0,0,0,.06.4,1.06,1.06,0,0,0,.18.33.81.81,0,0,0,.28.24.87.87,0,0,0,.4.09.74.74,0,0,0,.4-.1.85.85,0,0,0,.29-.24,1.2,1.2,0,0,0,.17-.34,1.74,1.74,0,0,0,.05-.39A1.32,1.32,0,0,0,358,107a.88.88,0,0,0-.85-.65.82.82,0,0,0-.4.09.85.85,0,0,0-.29.24,1,1,0,0,0-.17.34A1.21,1.21,0,0,0,356.25,107.43Z"/><path class="cls-15" d="M363.65,106.39h-1.07v2.79h-.81v-2.79h-1.06v-.71h2.94Z"/><path class="cls-15" d="M368.27,108.47v.71h-2.46v-3.5h2.41v.71h-1.6v.68H368v.65h-1.38v.75Z"/><path class="cls-15" d="M371.34,107.18v2h-.81v-3.5h.63l1.63,2v-2h.81v3.5H373Z"/><path class="cls-15" d="M378.7,106.39h-1.06v2.79h-.81v-2.79h-1.07v-.71h2.94Z"/><path class="cls-15" d="M380.87,109.18v-3.5h.8v3.5Z"/><path class="cls-15" d="M385.06,105.68h.73l1.28,3.5h-.83l-.27-.79h-1.09l-.26.79h-.83Zm.78,2.16-.41-1.24-.42,1.24Z"/><path class="cls-15" d="M389.18,109.18v-3.5H390v2.79h1.69v.71Z"/><path class="cls-15" d="M241.14,74.43v4.34H228.7a4,4,0,0,0-2.87.85A3,3,0,0,0,225,81.9q0,2.94,3.79,2.94H241v3.94H228.63q-3.8,0-3.79,3a3,3,0,0,0,.92,2.3,4.14,4.14,0,0,0,2.83.83h12.58v4.34H228.59a11.92,11.92,0,0,1-3.77-.52,7.11,7.11,0,0,1-2.57-1.41,5.15,5.15,0,0,1-1.47-2.16,7.58,7.58,0,0,1-.46-2.68,6.33,6.33,0,0,1,.92-3.55,5.73,5.73,0,0,1,2.64-2.15c-2.32-1-3.49-2.82-3.49-5.59a7.51,7.51,0,0,1,.48-2.72,5.39,5.39,0,0,1,1.49-2.16,6.94,6.94,0,0,1,2.57-1.39,12.3,12.3,0,0,1,3.77-.5Z"/><path class="cls-15" d="M266.15,79.84q5,0,7.37,2.22a8.12,8.12,0,0,1,2.41,6.27V99.26H272V88.33a4.46,4.46,0,0,0-1.38-3.53,6.69,6.69,0,0,0-4.47-1.21h-6.37c-.31,0-.47.18-.47.55V99.26h-3.9V82.85a3.46,3.46,0,0,1,.62-2.37,2.85,2.85,0,0,1,2.1-.64Z"/><path class="cls-15" d="M294.14,71.41V99.26h-3.9V71.41Z"/><path class="cls-15" d="M320.14,79.84a8.05,8.05,0,0,1,6.15,2.41c1.52,1.6,2.28,4,2.28,7.3s-.76,5.72-2.28,7.32a8.11,8.11,0,0,1-6.15,2.39h-4.08a8.09,8.09,0,0,1-6.16-2.39q-2.26-2.4-2.26-7.32t2.26-7.32a8.05,8.05,0,0,1,6.16-2.39Zm-3.71,3.75a4.55,4.55,0,0,0-3.7,1.4,7.15,7.15,0,0,0-1.16,4.56c0,2.11.39,3.62,1.16,4.54a4.57,4.57,0,0,0,3.7,1.38h3.35a4.55,4.55,0,0,0,3.69-1.38c.77-.92,1.16-2.43,1.16-4.54A7.15,7.15,0,0,0,323.47,85a4.53,4.53,0,0,0-3.69-1.4Z"/><path class="cls-15" d="M359.57,79.84v3.75h-9.63a4.55,4.55,0,0,0-3.7,1.4,7.15,7.15,0,0,0-1.16,4.56c0,2.11.39,3.62,1.16,4.54a4.57,4.57,0,0,0,3.7,1.38h9.63v3.79h-10a8.09,8.09,0,0,1-6.16-2.39q-2.27-2.4-2.26-7.32t2.26-7.32a8.05,8.05,0,0,1,6.16-2.39Z"/><path class="cls-15" d="M376.94,71.41V87.89h1.8c.76,0,1.39,0,1.89,0a4,4,0,0,0,1.27-.28,2.38,2.38,0,0,0,.88-.66,7.86,7.86,0,0,0,.81-1.21l3.24-5.85h4.23l-3.38,6.1a12,12,0,0,1-1.51,2.12,5.88,5.88,0,0,1-1.95,1.34,4.76,4.76,0,0,1,2.24,1.31,13.23,13.23,0,0,1,1.73,2.44l3.49,6.11h-4.37l-3.24-5.74a6.82,6.82,0,0,0-.85-1.23,2.6,2.6,0,0,0-1-.7,5.06,5.06,0,0,0-1.4-.33,20.09,20.09,0,0,0-2.11-.09h-1.8v8.09H373V71.41Z"/><path class="cls-16" d="M335,67.52a114.51,114.51,0,0,0-7.94-17.28c-.54-1-1.09-1.9-1.66-2.83q4.26-4.29,8.05-8.88,4.13-5.06,7.88-10.29c1.25-1.76,2.55-3.45,3.72-5.33s2.14-3.74,3.29-5.56c-1.53,1.51-3,3.13-4.43,4.68-.73.77-1.48,1.46-2.28,2.2l-2.33,2.22c-3.13,2.93-6.21,5.88-9.38,8.68-2.65,2.35-5.32,4.63-8.08,6.76-.6-.89-1.22-1.77-1.85-2.64a99.9,99.9,0,0,0-10.27-12c-23.69-11.27-31.89,0-31.9,0a8,8,0,0,1,3.71-2.42,11,11,0,0,1,8.19,1.05l1,.57,1.2.81c.8.54,1.61,1.05,2.38,1.67s1.56,1.15,2.3,1.79l2.24,1.92a85.86,85.86,0,0,1,11.58,13.16c.63.87,1.25,1.75,1.85,2.64-.77.44-1.54.87-2.32,1.28l-.52.26a36.16,36.16,0,0,1-10.18,3.55,25.18,25.18,0,0,1-5.24.25,18.59,18.59,0,0,1-4.92-1,24.88,24.88,0,0,1-2.33-1c-.76-.4-1.51-.81-2.25-1.27s-1.46-.94-2.14-1.55-1.41-1.15-2-1.72a18.36,18.36,0,0,1-4.55-7c1.95,7.19,8,17.83,26.51,22.17A44.15,44.15,0,0,0,313.79,57l.37-.24c.77-.53,1.52-1.07,2.27-1.62l.72,1.27L318,58c.66,1.25,1.31,2.51,1.92,3.79.91,1.87,1.74,3.77,2.53,5.69Z"/><polygon class="cls-17" points="312.27 48.43 318.7 37.53 321.85 41.89 312.27 48.43"/><path class="cls-18" d="M275,34.82a25.39,25.39,0,0,0,.88,5.42,13.15,13.15,0,0,1-.39-1.26A14.88,14.88,0,0,1,275,34.82Z"/><path class="cls-19" d="M277.82,27.24A11,11,0,0,0,276,30.17a12,12,0,0,0-1,4.65,13.75,13.75,0,0,1,0-1.69,13.75,13.75,0,0,0,0,1.69,14.88,14.88,0,0,0,.49,4.16,13.15,13.15,0,0,0,.39,1.26c1.95,7.19,8,17.83,26.51,22.17l-1.1.32a31.47,31.47,0,0,1-7.5,1,28.62,28.62,0,0,1-7.69-1,29.56,29.56,0,0,1-3.68-1.26c-1.16-.53-2.32-1.1-3.42-1.72a34.3,34.3,0,0,1-3.16-2.06,29.82,29.82,0,0,1-3-2.37A28.29,28.29,0,0,1,264.58,42a24.3,24.3,0,0,1,1.08-16.29,22.42,22.42,0,0,1,4.85-7.06A19.41,19.41,0,0,1,278.23,14a20.85,20.85,0,0,1,8.7-.72,24.17,24.17,0,0,1,8,2.49c.6.33,1.22.67,1.78,1l1.47,1c1,.65,2,1.28,2.89,2s1.89,1.38,2.77,2.13l2.65,2.23c1.12,1,2.2,2.05,3.26,3.1C286,16,277.83,27.23,277.82,27.24Z"/></svg>