<?xml version="1.0" encoding="utf-8"?>
<!-- Generator: Adobe Illustrator 25.2.0, SVG Export Plug-In . SVG Version: 6.00 Build 0)  -->
<svg version="1.1" id="Layer_1" xmlns="http://www.w3.org/2000/svg" xmlns:xlink="http://www.w3.org/1999/xlink" x="0px" y="0px"
	 viewBox="0 0 2000 2000" style="enable-background:new 0 0 2000 2000;" xml:space="preserve">
<style type="text/css">
	.st0{display:none;fill:#422052;}
	.st1{fill:#422052;}
	.st2{fill:#EE7E73;}
	.st3{fill:url(#SVGID_1_);}
	.st4{opacity:0.3;fill:#422052;}
	.st5{fill:none;}
	.st6{fill:url(#SVGID_2_);}
	.st7{fill:#FFFFFF;}
</style>
<rect y="0" class="st1" width="2000" height="2000"/>
<g>
	<g>
		<path class="st7" d="M508.68,1340.9h81.5v18.21h-99.54v-127.37h99.54v18.12h-81.5V1340.9z M588.79,1281.34v17.94h-70.06v-17.94
			H588.79z"/>
		<path class="st7" d="M762.33,1329.19v-97.54h18.12v127.37h-18.3l-72.23-96.51v96.51H671.2v-127.37h17.26L762.33,1329.19z"/>
		<path class="st7" d="M879.25,1340.9h81.93v18.21h-99.89v-127.37h17.95V1340.9z"/>
		<path class="st7" d="M1059.97,1231.65h54.63c18.26,0,27.4,9.02,27.4,27.05v73.01c-0.06,18.27-9.19,27.4-27.4,27.4h-54.63
			c-18.21,0-27.31-9.11-27.31-27.32v-72.83C1032.66,1240.76,1041.77,1231.65,1059.97,1231.65z M1050.87,1262.87v65.9
			c0,8.09,4.01,12.13,12.05,12.13h48.82c7.98,0,11.97-3.98,11.97-11.96v-66.85c0-8.15-4.07-12.23-12.23-12.23h-48.38
			C1054.95,1249.85,1050.87,1254.19,1050.87,1262.87z"/>
		<path class="st7" d="M1322.65,1249.85h-68.76c-8.67,0.07-13,4.81-13,14.23v63.56c-0.06,8.84,4.6,13.26,13.96,13.26h67.72
			l0.09,18.21l-72.92-0.09c-18.15,0.06-27.23-9.02-27.23-27.23l0.09-72.83c0-18.26,9.05-27.39,27.14-27.39h72.83L1322.65,1249.85z"
			/>
		<path class="st7" d="M1421.27,1359.02l-18.03,0.09v-127.46h18.03V1359.02z M1430.54,1289.83l54.97-57.92h23.5l-55.84,58.44
			l56.19,68.75h-21.94L1430.54,1289.83z"/>
	</g>
	<g>
		<g>
			<g>
				<g>
					<circle class="st2" cx="905.24" cy="804.75" r="57.43"/>
					<circle class="st2" cx="1094.75" cy="994.26" r="57.43"/>
					<circle class="st2" cx="1094.75" cy="804.75" r="57.43"/>
				</g>
				<g>
					<path class="st7" d="M791.3,920.19c-3.2,3.2-10.14,8.56-20.68,8.57c-10.54,0-17.48-5.37-20.68-8.57
						c-3.2-3.2-8.57-10.14-8.56-20.67c0-10.54,5.37-17.49,8.56-20.68c3.2-3.2,10.14-8.57,20.68-8.57
						c16.12,0,29.24,13.12,29.24,29.25C799.87,910.05,794.5,916.99,791.3,920.19z"/>
					<path class="st2" d="M1250.05,920.18c-3.2,3.2-10.14,8.57-20.68,8.57c-16.12,0-29.24-13.12-29.24-29.24
						c0-10.54,5.37-17.48,8.57-20.68s10.14-8.57,20.68-8.57c16.12,0,29.24,13.12,29.24,29.24
						C1258.62,910.05,1253.25,916.99,1250.05,920.18z"/>
					<path class="st7" d="M1020.67,1149.56c-3.2,3.2-10.14,8.57-20.68,8.57c-16.12,0-29.24-13.12-29.24-29.25
						c0-10.54,5.37-17.48,8.57-20.68c3.2-3.2,10.14-8.57,20.68-8.57c16.12,0,29.24,13.12,29.24,29.25
						C1029.24,1139.42,1023.87,1146.36,1020.67,1149.56z"/>
					<path class="st2" d="M1020.68,690.81c-3.2,3.2-10.14,8.56-20.68,8.56c-10.54,0-17.48-5.37-20.68-8.56
						c-3.2-3.2-8.57-10.14-8.56-20.67c0-10.54,5.37-17.49,8.56-20.68c3.2-3.2,10.14-8.56,20.68-8.56c10.54,0,17.48,5.37,20.68,8.56
						s8.57,10.14,8.57,20.68C1029.24,680.67,1023.88,687.61,1020.68,690.81z"/>
					<path class="st7" d="M1020.68,920.19c-3.2,3.2-10.14,8.56-20.68,8.56c-10.54,0-17.48-5.37-20.68-8.56
						c-3.2-3.2-8.57-10.14-8.56-20.67c0-10.54,5.37-17.49,8.56-20.68c3.2-3.2,10.14-8.56,20.68-8.56c10.54,0,17.48,5.37,20.68,8.56
						c3.2,3.2,8.57,10.14,8.57,20.68C1029.24,910.05,1023.88,916.99,1020.68,920.19z"/>
				</g>
			</g>
			<polygon class="st7" points="1008.11,1128.88 991.89,1128.88 991.89,907.62 770.62,907.62 770.62,891.4 1008.11,891.4 			"/>
		</g>
		<g>
			<polygon class="st7" points="924.16,922.01 837.96,1008.21 849.94,1020.19 948.12,922.01 			"/>
			<polygon class="st7" points="977.49,951.39 879.32,1049.56 891.3,1061.54 977.49,975.35 			"/>
		</g>
	</g>
</g>
</svg>
