<?xml version="1.0" encoding="utf-8"?>
<!-- Generator: Adobe Illustrator 25.2.0, SVG Export Plug-In . SVG Version: 6.00 Build 0)  -->
<svg version="1.1" id="Layer_1" xmlns="http://www.w3.org/2000/svg" xmlns:xlink="http://www.w3.org/1999/xlink" x="0px" y="0px"
	 viewBox="0 0 2000 2000" style="enable-background:new 0 0 2000 2000;" xml:space="preserve">
<style type="text/css">
	.st0{display:none;fill:#422052;}
	.st1{fill:#422052;}
	.st2{fill:#EE7E73;}
	.st3{fill:url(#SVGID_1_);}
	.st4{opacity:0.3;fill:#422052;}
	.st5{fill:none;}
	.st6{fill:url(#SVGID_2_);}
	.st7{fill:#FFFFFF;}
</style>
<rect y="0" class="st1" width="2000" height="2000"/>
<g>
	<g>
		<g>
			<g>
				<g>
					<path class="st2" d="M544.44,931.77c-22.23,0-40.31-18.08-40.31-40.31s18.08-40.31,40.31-40.31
						c22.23,0,40.31,18.08,40.31,40.31S566.67,931.77,544.44,931.77z"/>
				</g>
				<g>
					<path class="st2" d="M544.44,1148.85c-22.23,0-40.31-18.08-40.31-40.31s18.08-40.31,40.31-40.31
						c22.23,0,40.31,18.08,40.31,40.31S566.67,1148.85,544.44,1148.85z"/>
				</g>
				<g>
					<path class="st2" d="M435.9,1040.31c-22.23,0-40.31-18.08-40.31-40.31s18.08-40.31,40.31-40.31
						c22.23,0,40.31,18.08,40.31,40.31S458.13,1040.31,435.9,1040.31z"/>
				</g>
			</g>
			<g>
				<polygon class="st2" points="537.35,1115.63 421.72,1000 544.44,877.28 677.19,1010.03 513.52,1010.03 513.52,989.97 
					628.77,989.97 544.44,905.64 450.09,1000 551.53,1101.45 				"/>
			</g>
		</g>
		<g>
			<polygon class="st2" points="820.09,1077.22 730.57,974.65 730.57,1077.22 709.17,1077.22 709.17,943.05 732.39,943.05 
				821.94,1048.92 821.94,943.05 843.35,943.05 843.35,1077.22 			"/>
			<polygon class="st2" points="900.89,1077.22 900.89,943.05 922.29,943.05 922.29,1055.83 1013.66,1055.83 1013.66,1027.63 
				1035.06,1027.63 1035.06,1077.22 			"/>
			<path class="st2" d="M1092.6,1077.22V943.05h134.18v134.17H1092.6z M1114,1055.83h91.37v-91.38H1114V1055.83z"/>
			<polygon class="st2" points="1284.32,1077.22 1284.32,943.05 1418.5,943.05 1418.5,964.45 1305.72,964.45 1305.72,1055.83 
				1418.5,1055.83 1418.5,1077.22 			"/>
			<polygon class="st2" points="1573.38,1077.22 1497.44,1017.22 1497.44,1077.22 1476.04,1077.22 1476.04,943.05 1497.44,943.05 
				1497.44,1003.03 1573.81,943.05 1604.4,943.05 1523.73,1011.96 1604.05,1077.22 			"/>
		</g>
	</g>
</g>
</svg>
