<?xml version="1.0" encoding="utf-8"?>
<!-- Generator: Adobe Illustrator 25.2.0, SVG Export Plug-In . SVG Version: 6.00 Build 0)  -->
<svg version="1.1" id="Layer_1" xmlns="http://www.w3.org/2000/svg" xmlns:xlink="http://www.w3.org/1999/xlink" x="0px" y="0px"
	 viewBox="0 0 2000 2000" style="enable-background:new 0 0 2000 2000;" xml:space="preserve">
<style type="text/css">
	.st0{display:none;fill:#422052;}
	.st1{fill:#422052;}
	.st2{fill:#EE7E73;}
	.st3{fill:url(#SVGID_1_);}
	.st4{opacity:0.3;fill:#422052;}
	.st5{fill:none;}
	.st6{fill:url(#SVGID_2_);}
	.st7{fill:#FFFFFF;}
</style>
<rect class="st0" width="2000" height="2000"/>
<g>
	<g>
		<g>
			<g>
				<path class="st1" d="M702.18,871.82h131.69v34.45H702.18v-0.14H685.6L702.18,871.82z M735.88,932.45v102.66h97.99v34.31H702.18
					V932.45H735.88z M752.46,991.29h-16.58l16.58-34.31h63.22v34.31H752.46z"/>
				<path class="st1" d="M989.67,871.96h33.56v197.46l-33.56-54.02l-67.93-109.27h-39.36H865.8l16.58-34.17v-0.14h18.06l33.43,0.14
					l55.8,85.71V871.96z M916.07,1069.42h-33.7V932.45h33.7V1069.42z"/>
				<path class="st1" d="M1185.63,1035.11v34.31h-80.2h-33.56h-0.14v-34.31h0.14V906.13h-16.72l16.58-34.31l0.14,0.14h33.56v163.15
					H1185.63z"/>
				<path class="st1" d="M1292.64,871.82c13.03,0,25.49,2.61,37.4,7.82c11.91,5.21,22.15,12.22,30.73,21.03
					c8.58,8.81,15.41,19.32,20.49,31.54c5.07,12.22,7.62,25.03,7.62,38.42c0,13.39-2.54,26.19-7.62,38.41
					c-5.08,12.22-11.91,22.73-20.49,31.54c-8.58,8.81-18.8,15.82-30.66,21.02c-11.86,5.21-24.35,7.82-37.47,7.82
					c-13.12,0-25.61-2.6-37.47-7.82c-11.86-5.21-22.1-12.22-30.73-21.02c-8.63-8.81-15.48-19.32-20.56-31.54
					c-5.08-12.22-7.62-25.02-7.62-38.41c0-13.39,2.54-26.19,7.62-38.42c5.07-12.22,11.93-22.73,20.56-31.54
					c8.63-8.81,18.87-15.82,30.73-21.03C1267.03,874.42,1279.52,871.82,1292.64,871.82z M1247.69,1016.71
					c12.45,12.76,27.43,19.14,44.95,19.14c17.52,0,32.48-6.38,44.88-19.14c12.4-12.76,18.6-28.12,18.6-46.1
					c0-17.97-6.2-33.34-18.6-46.1c-12.4-12.76-27.36-19.14-44.88-19.14c-17.52,0-32.51,6.38-44.95,19.14
					c-12.45,12.76-18.67,28.13-18.67,46.1C1229.02,988.59,1235.24,1003.96,1247.69,1016.71z"/>
				<path class="st1" d="M1517.05,1035.86c8.71,0,16.98-1.75,24.8-5.26c7.82-3.51,14.69-8.36,20.62-14.56l23.46,23.45
					c-8.99,9.43-19.39,16.78-31.21,22.04c-11.82,5.25-24.38,7.88-37.67,7.88c-13.12,0-25.61-2.6-37.47-7.82
					c-11.86-5.21-22.1-12.22-30.73-21.02s-15.48-19.32-20.56-31.54c-5.08-12.22-7.62-25.02-7.62-38.41
					c0-13.39,2.54-26.19,7.62-38.42c5.07-12.22,11.93-22.73,20.56-31.54c8.63-8.81,18.87-15.82,30.73-21.03
					c11.86-5.21,24.35-7.82,37.47-7.82c13.3,0,25.85,2.63,37.67,7.89c11.81,5.26,22.22,12.6,31.21,22.04l-23.46,23.45
					c-12.58-13.12-27.72-19.68-45.42-19.68c-17.52,0-32.51,6.36-44.95,19.07c-12.45,12.72-18.67,28.06-18.67,46.03
					c0,17.97,6.22,33.34,18.67,46.1C1484.54,1029.48,1499.52,1035.86,1517.05,1035.86z"/>
				<path class="st1" d="M1669.74,979.85c11.77,0,22.64,2.96,32.62,8.89c9.98,5.93,17.86,13.97,23.65,24.12
					c5.8,10.15,8.69,21.25,8.69,33.28v23.29h-33.7v-22.32c0-9.09-3.14-16.86-9.43-23.29c-6.29-6.43-13.88-9.64-22.78-9.64h-0.94
					v55.26h-33.56V906.13h-16.58l16.58-34.31h33.56v107.34l33.16-107.34h33.7l-33.43,108.03h-33.43H1669.74z"/>
			</g>
			<g>
				<g>
					<path class="st2" d="M702.18,1127.45v-27.46h16.17v4.95h-10.3v5.65h10.3v4.99h-10.3v6.88h10.3v4.99H702.18z"/>
					<path class="st2" d="M729.48,1127.45v-27.46h6.1l12.15,15.98c0.35,0.45,0.74,1.08,1.15,1.9c0.42,0.82,0.85,1.79,1.3,2.9
						c-0.14-0.81-0.24-1.62-0.3-2.42c-0.06-0.8-0.1-1.8-0.1-3v-15.36h5.61v27.46h-5.76l-12.49-16.28c-0.35-0.45-0.73-1.08-1.14-1.9
						c-0.41-0.82-0.85-1.8-1.31-2.94c0.14,0.79,0.24,1.58,0.3,2.39c0.06,0.81,0.09,1.83,0.09,3.05v15.68H729.48z"/>
					<path class="st2" d="M766.9,1127.45v-27.46h5.87v22.47h9.38v4.99H766.9z"/>
					<path class="st2" d="M817.96,1113.78c0,1.97-0.37,3.82-1.1,5.57c-0.73,1.75-1.79,3.29-3.16,4.62
						c-1.43,1.36-3.03,2.41-4.82,3.13c-1.79,0.73-3.64,1.09-5.55,1.09c-1.67,0-3.32-0.28-4.92-0.85c-1.61-0.57-3.08-1.39-4.42-2.45
						c-1.73-1.37-3.05-3.02-3.97-4.93c-0.92-1.91-1.38-3.97-1.38-6.17c0-1.98,0.36-3.83,1.09-5.56c0.72-1.73,1.79-3.27,3.19-4.62
						c1.38-1.34,2.97-2.37,4.79-3.11s3.69-1.11,5.62-1.11c1.91,0,3.77,0.37,5.58,1.11s3.41,1.78,4.79,3.11
						c1.39,1.35,2.44,2.9,3.17,4.63C817.6,1109.97,817.96,1111.82,817.96,1113.78z M803.33,1122.95c2.49,0,4.54-0.87,6.16-2.62
						c1.62-1.75,2.43-3.93,2.43-6.56c0-2.6-0.82-4.79-2.46-6.56c-1.64-1.78-3.68-2.66-6.13-2.66c-2.49,0-4.55,0.89-6.19,2.65
						c-1.64,1.77-2.46,3.96-2.46,6.57c0,2.65,0.81,4.84,2.42,6.58S800.79,1122.95,803.33,1122.95z"/>
					<path class="st2" d="M850.4,1107.14c-1.19-1.06-2.41-1.84-3.66-2.33s-2.59-0.74-4.01-0.74c-2.93,0-5.26,0.88-7,2.63
						c-1.74,1.75-2.61,4.1-2.61,7.05c0,2.89,0.81,5.18,2.42,6.87c1.61,1.7,3.81,2.54,6.6,2.54c1.59,0,3.06-0.26,4.43-0.8
						c1.36-0.53,2.62-1.33,3.79-2.39l-0.04,6.02c-1.25,0.74-2.56,1.29-3.93,1.65c-1.37,0.36-2.81,0.54-4.32,0.54
						c-4.38,0-7.97-1.36-10.78-4.08c-2.81-2.72-4.21-6.17-4.21-10.36c0-4.18,1.41-7.62,4.22-10.33c2.81-2.71,6.44-4.07,10.88-4.07
						c1.49,0,2.93,0.15,4.31,0.47c1.39,0.31,2.76,0.79,4.11,1.44L850.4,1107.14z"/>
					<path class="st2" d="M861.24,1127.45v-27.46h5.87v12.43l9.15-12.43h6.79l-9.83,12.51l10.18,14.95h-7.07l-9.23-14.37v14.37
						H861.24z"/>
					<path class="st2" d="M914.32,1127.45v-12.53l-9.3-14.93h6.88l4.07,7.52c0.2,0.37,0.41,0.85,0.62,1.42
						c0.21,0.57,0.43,1.24,0.66,1.99c0.17-0.64,0.37-1.24,0.59-1.8s0.47-1.11,0.74-1.65l4.04-7.48h6.87l-9.3,14.93v12.53H914.32z"/>
					<path class="st2" d="M964.08,1113.78c0,1.97-0.37,3.82-1.1,5.57c-0.73,1.75-1.79,3.29-3.16,4.62
						c-1.43,1.36-3.03,2.41-4.82,3.13c-1.79,0.73-3.64,1.09-5.55,1.09c-1.67,0-3.32-0.28-4.92-0.85c-1.61-0.57-3.08-1.39-4.42-2.45
						c-1.73-1.37-3.05-3.02-3.97-4.93c-0.92-1.91-1.38-3.97-1.38-6.17c0-1.98,0.36-3.83,1.09-5.56c0.72-1.73,1.79-3.27,3.19-4.62
						c1.38-1.34,2.97-2.37,4.79-3.11s3.69-1.11,5.62-1.11c1.91,0,3.77,0.37,5.58,1.11s3.41,1.78,4.79,3.11
						c1.39,1.35,2.44,2.9,3.17,4.63C963.72,1109.97,964.08,1111.82,964.08,1113.78z M949.45,1122.95c2.49,0,4.54-0.87,6.16-2.62
						c1.62-1.75,2.43-3.93,2.43-6.56c0-2.6-0.82-4.79-2.46-6.56c-1.64-1.78-3.68-2.66-6.13-2.66c-2.49,0-4.55,0.89-6.19,2.65
						c-1.64,1.77-2.46,3.96-2.46,6.57c0,2.65,0.81,4.84,2.42,6.58C944.83,1122.09,946.91,1122.95,949.45,1122.95z"/>
					<path class="st2" d="M998.02,1099.99v17.09c0,3.72-0.98,6.51-2.94,8.34c-1.96,1.84-4.92,2.76-8.87,2.76
						c-4.02,0-7-0.92-8.97-2.76c-1.96-1.84-2.94-4.62-2.94-8.34v-17.09h5.83v16.17c0,2.26,0.5,3.97,1.5,5.11
						c1,1.15,2.49,1.72,4.48,1.72c2,0,3.51-0.57,4.54-1.73c1.02-1.15,1.54-2.85,1.54-5.1v-16.17H998.02z"/>
					<path class="st2" d="M1029.34,1127.45h-6.77l-7.22-12.83v12.83h-5.87v-27.46h8.4c3.34,0,5.84,0.65,7.5,1.94
						c1.66,1.29,2.49,3.24,2.49,5.84c0,1.89-0.57,3.5-1.71,4.84c-1.14,1.34-2.61,2.12-4.41,2.35L1029.34,1127.45z M1015.35,1111.7
						h0.88c2.38,0,3.95-0.26,4.71-0.78c0.76-0.52,1.14-1.42,1.14-2.71c0-1.35-0.41-2.31-1.23-2.88s-2.36-0.85-4.62-0.85h-0.88
						V1111.7z"/>
					<path class="st2" d="M1055.3,1127.45v-27.46h5.14c2.66,0,4.61,0.1,5.84,0.31c1.23,0.21,2.3,0.55,3.2,1.02
						c1.06,0.62,1.89,1.42,2.47,2.42s0.87,2.13,0.87,3.39c0,1.63-0.48,2.93-1.44,3.91c-0.96,0.98-2.4,1.63-4.31,1.96
						c2.21,0.33,3.88,1.05,5.02,2.16c1.13,1.11,1.7,2.6,1.7,4.45c0,1.35-0.33,2.58-0.98,3.7c-0.65,1.12-1.54,1.99-2.68,2.6
						c-1.01,0.55-2.2,0.94-3.56,1.18c-1.36,0.24-3.62,0.36-6.77,0.36h-0.6H1055.3z M1061.17,1110.97h1.31
						c1.78,0,3.03-0.25,3.77-0.75c0.74-0.5,1.11-1.34,1.11-2.51c0-1.15-0.35-1.97-1.06-2.46c-0.71-0.49-1.94-0.73-3.7-0.73h-1.43
						V1110.97z M1061.17,1122.87h2.31c1.48,0,2.59-0.32,3.36-0.97c0.76-0.64,1.15-1.58,1.15-2.82c0-1.16-0.38-2.05-1.14-2.66
						c-0.76-0.61-1.85-0.92-3.29-0.92h-2.38V1122.87z"/>
					<path class="st2" d="M1107.23,1099.99v17.09c0,3.72-0.98,6.51-2.94,8.34c-1.96,1.84-4.92,2.76-8.87,2.76
						c-4.02,0-7-0.92-8.97-2.76c-1.96-1.84-2.94-4.62-2.94-8.34v-17.09h5.83v16.17c0,2.26,0.5,3.97,1.5,5.11
						c1,1.15,2.49,1.72,4.48,1.72c2,0,3.51-0.57,4.54-1.73c1.02-1.15,1.54-2.85,1.54-5.1v-16.17H1107.23z"/>
					<path class="st2" d="M1116.92,1123.96l3.26-3.7c0.41,1.01,1.07,1.81,1.99,2.39c0.91,0.58,1.94,0.87,3.08,0.87
						c1.38,0,2.46-0.33,3.26-0.98c0.8-0.65,1.2-1.52,1.2-2.63c0-1.3-1.33-2.59-3.99-3.88c-0.86-0.41-1.54-0.75-2.04-1.01
						c-2.4-1.25-4.06-2.47-4.99-3.67c-0.93-1.19-1.39-2.61-1.39-4.27c0-2.26,0.9-4.12,2.69-5.58c1.79-1.46,4.12-2.18,6.99-2.18
						c1.66,0,3.1,0.29,4.3,0.87c1.21,0.58,2.27,1.49,3.2,2.73l-3.47,3.32c-0.41-0.8-0.96-1.4-1.64-1.79
						c-0.68-0.39-1.5-0.59-2.47-0.59c-1.16,0-2.1,0.29-2.81,0.87c-0.71,0.58-1.07,1.33-1.07,2.26c0,1.45,1.41,2.77,4.24,3.97
						c0.56,0.24,0.99,0.43,1.29,0.57c2.33,1.06,4.05,2.26,5.17,3.6c1.12,1.34,1.68,2.86,1.68,4.58c0,2.57-0.88,4.63-2.63,6.16
						c-1.76,1.53-4.12,2.3-7.08,2.3c-2.1,0-3.9-0.36-5.4-1.09C1118.78,1126.37,1117.66,1125.33,1116.92,1123.96z"/>
					<path class="st2" d="M1145.69,1127.45v-27.46h5.87v27.46H1145.69z"/>
					<path class="st2" d="M1163.2,1127.45v-27.46h6.1l12.15,15.98c0.35,0.45,0.74,1.08,1.15,1.9c0.42,0.82,0.85,1.79,1.3,2.9
						c-0.14-0.81-0.24-1.62-0.3-2.42c-0.06-0.8-0.1-1.8-0.1-3v-15.36h5.61v27.46h-5.76l-12.49-16.28c-0.35-0.45-0.73-1.08-1.14-1.9
						c-0.41-0.82-0.85-1.8-1.31-2.94c0.14,0.79,0.24,1.58,0.3,2.39c0.06,0.81,0.09,1.83,0.09,3.05v15.68H1163.2z"/>
					<path class="st2" d="M1200.61,1127.45v-27.46h16.17v4.95h-10.3v5.65h10.3v4.99h-10.3v6.88h10.3v4.99H1200.61z"/>
					<path class="st2" d="M1226.15,1123.96l3.26-3.7c0.41,1.01,1.07,1.81,1.99,2.39c0.91,0.58,1.94,0.87,3.08,0.87
						c1.37,0,2.46-0.33,3.26-0.98c0.8-0.65,1.2-1.52,1.2-2.63c0-1.3-1.33-2.59-4-3.88c-0.86-0.41-1.54-0.75-2.05-1.01
						c-2.4-1.25-4.06-2.47-4.99-3.67c-0.93-1.19-1.39-2.61-1.39-4.27c0-2.26,0.9-4.12,2.69-5.58s4.12-2.18,6.99-2.18
						c1.66,0,3.1,0.29,4.3,0.87c1.21,0.58,2.27,1.49,3.2,2.73l-3.47,3.32c-0.41-0.8-0.96-1.4-1.64-1.79s-1.5-0.59-2.47-0.59
						c-1.16,0-2.1,0.29-2.81,0.87c-0.71,0.58-1.07,1.33-1.07,2.26c0,1.45,1.41,2.77,4.24,3.97c0.56,0.24,0.99,0.43,1.29,0.57
						c2.33,1.06,4.05,2.26,5.17,3.6c1.12,1.34,1.68,2.86,1.68,4.58c0,2.57-0.88,4.63-2.64,6.16c-1.76,1.53-4.12,2.3-7.08,2.3
						c-2.1,0-3.9-0.36-5.4-1.09C1228.01,1126.37,1226.89,1125.33,1226.15,1123.96z"/>
					<path class="st2" d="M1253.04,1123.96l3.26-3.7c0.41,1.01,1.07,1.81,1.99,2.39c0.91,0.58,1.94,0.87,3.08,0.87
						c1.37,0,2.46-0.33,3.26-0.98c0.8-0.65,1.2-1.52,1.2-2.63c0-1.3-1.33-2.59-4-3.88c-0.86-0.41-1.54-0.75-2.05-1.01
						c-2.4-1.25-4.06-2.47-4.99-3.67c-0.93-1.19-1.39-2.61-1.39-4.27c0-2.26,0.9-4.12,2.69-5.58c1.8-1.46,4.12-2.18,6.99-2.18
						c1.66,0,3.1,0.29,4.3,0.87c1.21,0.58,2.27,1.49,3.2,2.73l-3.47,3.32c-0.41-0.8-0.96-1.4-1.64-1.79s-1.5-0.59-2.47-0.59
						c-1.16,0-2.1,0.29-2.81,0.87c-0.71,0.58-1.07,1.33-1.07,2.26c0,1.45,1.41,2.77,4.24,3.97c0.56,0.24,0.99,0.43,1.29,0.57
						c2.33,1.06,4.05,2.26,5.17,3.6c1.12,1.34,1.68,2.86,1.68,4.58c0,2.57-0.88,4.63-2.64,6.16c-1.76,1.53-4.12,2.3-7.08,2.3
						c-2.1,0-3.9-0.36-5.4-1.09C1254.9,1126.37,1253.78,1125.33,1253.04,1123.96z"/>
					<path class="st2" d="M1281.7,1127.45v-27.46h16.17v4.95h-10.3v5.65h10.3v4.99h-10.3v6.88h10.3v4.99H1281.7z"/>
					<path class="st2" d="M1307.24,1123.96l3.26-3.7c0.41,1.01,1.07,1.81,1.99,2.39c0.91,0.58,1.94,0.87,3.08,0.87
						c1.37,0,2.46-0.33,3.26-0.98c0.8-0.65,1.2-1.52,1.2-2.63c0-1.3-1.33-2.59-4-3.88c-0.86-0.41-1.54-0.75-2.05-1.01
						c-2.4-1.25-4.06-2.47-4.99-3.67c-0.93-1.19-1.39-2.61-1.39-4.27c0-2.26,0.9-4.12,2.69-5.58s4.12-2.18,6.99-2.18
						c1.66,0,3.1,0.29,4.3,0.87c1.21,0.58,2.27,1.49,3.2,2.73l-3.47,3.32c-0.41-0.8-0.96-1.4-1.64-1.79s-1.5-0.59-2.47-0.59
						c-1.16,0-2.1,0.29-2.81,0.87c-0.71,0.58-1.07,1.33-1.07,2.26c0,1.45,1.41,2.77,4.24,3.97c0.56,0.24,0.99,0.43,1.29,0.57
						c2.33,1.06,4.05,2.26,5.17,3.6c1.12,1.34,1.68,2.86,1.68,4.58c0,2.57-0.88,4.63-2.64,6.16c-1.76,1.53-4.12,2.3-7.08,2.3
						c-2.1,0-3.9-0.36-5.4-1.09C1309.09,1126.37,1307.97,1125.33,1307.24,1123.96z"/>
					<path class="st2" d="M1363.32,1104.98v22.47h-5.89v-22.47h-6.71v-4.99h19.32v4.99H1363.32z"/>
					<path class="st2" d="M1399.12,1127.45h-6.77l-7.22-12.83v12.83h-5.87v-27.46h8.4c3.34,0,5.84,0.65,7.5,1.94
						c1.66,1.29,2.49,3.24,2.49,5.84c0,1.89-0.57,3.5-1.7,4.84c-1.14,1.34-2.61,2.12-4.41,2.35L1399.12,1127.45z M1385.13,1111.7
						h0.88c2.37,0,3.95-0.26,4.71-0.78s1.14-1.42,1.14-2.71c0-1.35-0.41-2.31-1.23-2.88c-0.82-0.57-2.36-0.85-4.62-0.85h-0.88
						V1111.7z"/>
					<path class="st2" d="M1431.53,1099.99v17.09c0,3.72-0.98,6.51-2.95,8.34c-1.96,1.84-4.92,2.76-8.87,2.76
						c-4.02,0-7-0.92-8.97-2.76c-1.96-1.84-2.95-4.62-2.95-8.34v-17.09h5.83v16.17c0,2.26,0.5,3.97,1.5,5.11
						c1,1.15,2.49,1.72,4.48,1.72c2,0,3.51-0.57,4.54-1.73c1.03-1.15,1.54-2.85,1.54-5.1v-16.17H1431.53z"/>
					<path class="st2" d="M1442.98,1127.45v-27.46h16.17v4.95h-10.3v5.65h10.3v4.99h-10.3v6.88h10.3v4.99H1442.98z"/>
					<path class="st2" d="M1487.46,1127.45v-27.46h6.75c3.6,0,6.26,0.69,7.98,2.06c1.72,1.37,2.58,3.5,2.58,6.38
						c0,2.66-0.87,4.75-2.6,6.27c-1.73,1.51-4.13,2.27-7.19,2.27h-1.61v10.48H1487.46z M1493.37,1112.39h0.85
						c1.6,0,2.76-0.33,3.49-0.99c0.73-0.66,1.09-1.73,1.09-3.19c0-1.35-0.36-2.33-1.09-2.95c-0.73-0.62-1.89-0.93-3.49-0.93h-0.85
						V1112.39z"/>
					<path class="st2" d="M1542.31,1113.78c0,1.97-0.36,3.82-1.1,5.57c-0.73,1.75-1.79,3.29-3.16,4.62
						c-1.42,1.36-3.03,2.41-4.82,3.13c-1.79,0.73-3.64,1.09-5.55,1.09c-1.68,0-3.32-0.28-4.92-0.85c-1.61-0.57-3.08-1.39-4.42-2.45
						c-1.73-1.37-3.05-3.02-3.97-4.93c-0.92-1.91-1.38-3.97-1.38-6.17c0-1.98,0.36-3.83,1.09-5.56c0.73-1.73,1.79-3.27,3.19-4.62
						c1.37-1.34,2.97-2.37,4.79-3.11c1.82-0.74,3.69-1.11,5.62-1.11c1.91,0,3.77,0.37,5.58,1.11c1.81,0.74,3.4,1.78,4.79,3.11
						c1.39,1.35,2.44,2.9,3.17,4.63S1542.31,1111.82,1542.31,1113.78z M1527.69,1122.95c2.49,0,4.54-0.87,6.16-2.62
						c1.62-1.75,2.43-3.93,2.43-6.56c0-2.6-0.82-4.79-2.46-6.56c-1.64-1.78-3.68-2.66-6.13-2.66c-2.49,0-4.55,0.89-6.19,2.65
						c-1.64,1.77-2.46,3.96-2.46,6.57c0,2.65,0.81,4.84,2.42,6.58C1523.07,1122.09,1525.15,1122.95,1527.69,1122.95z"/>
					<path class="st2" d="M1562.23,1104.98v22.47h-5.89v-22.47h-6.71v-4.99h19.32v4.99H1562.23z"/>
					<path class="st2" d="M1578.17,1127.45v-27.46h16.17v4.95h-10.3v5.65h10.3v4.99h-10.3v6.88h10.3v4.99H1578.17z"/>
					<path class="st2" d="M1605.47,1127.45v-27.46h6.09l12.16,15.98c0.35,0.45,0.73,1.08,1.15,1.9c0.42,0.82,0.85,1.79,1.3,2.9
						c-0.14-0.81-0.24-1.62-0.3-2.42c-0.06-0.8-0.09-1.8-0.09-3v-15.36h5.61v27.46h-5.76l-12.49-16.28
						c-0.35-0.45-0.73-1.08-1.15-1.9c-0.41-0.82-0.85-1.8-1.31-2.94c0.14,0.79,0.24,1.58,0.3,2.39c0.06,0.81,0.09,1.83,0.09,3.05
						v15.68H1605.47z"/>
					<path class="st2" d="M1653.14,1104.98v22.47h-5.89v-22.47h-6.71v-4.99h19.32v4.99H1653.14z"/>
					<path class="st2" d="M1669.19,1127.45v-27.46h5.87v27.46H1669.19z"/>
					<path class="st2" d="M1683.44,1127.45l10.45-27.46h6.71l10.6,27.46h-6.68l-2.23-5.83h-10.63l-1.91,5.83H1683.44z M1700.91,1117
						l-3.08-8.87c-0.09-0.26-0.2-0.72-0.34-1.35c-0.14-0.64-0.28-1.42-0.43-2.35c-0.16,0.89-0.32,1.69-0.47,2.39
						c-0.15,0.71-0.26,1.18-0.34,1.41l-2.96,8.76H1700.91z"/>
					<path class="st2" d="M1719.46,1127.45v-27.46h5.87v22.47h9.38v4.99H1719.46z"/>
				</g>
			</g>
		</g>
		<g>
			<g>
				<polygon class="st2" points="378.44,955.27 354.09,955.27 354.09,857.55 450.88,857.55 450.88,881.9 378.44,881.9 				"/>
			</g>
			<g>
				<polygon class="st2" points="425.32,1002.16 400.97,1002.16 400.97,904.43 497.77,904.43 497.77,928.78 425.32,928.78 				"/>
			</g>
			<path class="st1" d="M638.99,1142.45H354.09V979.91h24.35v138.2h116.79c0-65.95,53.46-119.41,119.41-119.41V881.9H476.77v-24.35
				h162.23V1142.45z"/>
			<path class="st2" d="M524.94,1009.79L374.88,861.11l-17.22,17.22l149.93,148.54C512.86,1020.69,518.68,1014.98,524.94,1009.79z"
				/>
		</g>
	</g>
	<rect x="300.1" y="857.55" class="st1" width="38.02" height="38.02"/>
	<rect x="265.29" y="904.43" class="st1" width="26.1" height="26.1"/>
</g>
</svg>
