<?xml version="1.0" encoding="utf-8"?>
<!-- Generator: Adobe Illustrator 25.2.0, SVG Export Plug-In . SVG Version: 6.00 Build 0)  -->
<svg version="1.1" id="Layer_1" xmlns="http://www.w3.org/2000/svg" xmlns:xlink="http://www.w3.org/1999/xlink" x="0px" y="0px"
	 viewBox="0 0 2000 2000" style="enable-background:new 0 0 2000 2000;" xml:space="preserve">
<style type="text/css">
	.st0{display:none;fill:#422052;}
	.st1{fill:#422052;}
	.st2{fill:#EE7E73;}
	.st3{fill:url(#SVGID_1_);}
	.st4{opacity:0.3;fill:#422052;}
	.st5{fill:none;}
	.st6{fill:url(#SVGID_2_);}
	.st7{fill:#FFFFFF;}
</style>
<rect class="st0" width="2000" height="2000"/>
<g>
	<g>
		<path class="st1" d="M908.93,890.44h-71.25v53.91h71.25v29.85h-71.25v53.91h71.25v30.65h-108.9V859.79h108.9V890.44z"/>
		<path class="st1" d="M1047.39,976.48c0-23.93-13.18-36.84-33.07-36.84c-20.43,0-33.61,12.91-33.61,36.84v82.28h-37.64V909.8h37.64
			v18.55c9.68-12.64,25.82-20.71,44.91-20.71c34.69,0,59.42,22.59,59.42,63.73v87.39h-37.64V976.48z"/>
		<path class="st1" d="M1120.77,859.79h37.64v198.97h-37.64V859.79z"/>
		<path class="st1" d="M1261.65,1058.76c-43.02,0-75.55-30.11-75.55-76.9c0-47.05,33.6-76.9,76.63-76.9
			c43.02,0,76.63,29.85,76.63,76.9C1339.36,1028.65,1304.94,1058.76,1261.65,1058.76z M1261.65,1025.95
			c19.9,0,38.99-14.52,38.99-44.1c0-29.84-18.55-44.1-38.45-44.1c-19.9,0-37.91,14.25-37.91,44.1
			C1224.28,1011.44,1241.49,1025.95,1261.65,1025.95z"/>
		<path class="st1" d="M1431.02,904.96c37.11,0,62.11,19.36,70.18,52.7h-40.6c-4.31-12.64-14.25-20.71-29.85-20.71
			c-20.97,0-34.95,15.86-34.95,44.9c0,29.04,13.98,44.64,34.95,44.64c15.6,0,25.27-6.99,29.85-20.44h40.6
			c-8.07,31.73-33.07,52.7-70.18,52.7c-43.02,0-73.67-30.11-73.67-76.9C1357.35,935.07,1388,904.96,1431.02,904.96z"/>
		<path class="st1" d="M1528.87,859.79h37.64v113.2l50.01-63.19h48.94l-65.61,74.75l66.15,74.21h-48.94l-50.55-63.46v63.46h-37.64
			V859.79z"/>
	</g>
	<g>
		<path class="st1" d="M598.32,1146.17h-13.19v8.71h11.69v5.52h-11.69v9.21h13.19v5.67h-20.15v-34.78h20.15V1146.17z"/>
		<path class="st1" d="M635.35,1140.5v34.78h-6.97l-15.77-23.84v23.84h-6.97v-34.78h6.97l15.77,23.88v-23.88H635.35z"/>
		<path class="st1" d="M650.2,1140.55v29.21h11.44v5.52h-18.41v-34.73H650.2z"/>
		<path class="st1" d="M683.2,1175.63c-9.8,0-17.81-7.36-17.81-17.81c0-10.4,8.01-17.76,17.81-17.76c9.9,0,17.76,7.36,17.76,17.76
			C700.97,1168.27,693.06,1175.63,683.2,1175.63z M683.2,1169.41c6.27,0,10.6-4.53,10.6-11.6c0-7.07-4.33-11.49-10.6-11.49
			c-6.32,0-10.65,4.43-10.65,11.49C672.56,1164.88,676.89,1169.41,683.2,1169.41z"/>
		<path class="st1" d="M723.08,1140.1c7.71,0,13.98,4.13,16.32,11.24h-8.01c-1.64-3.34-4.63-4.98-8.36-4.98
			c-6.07,0-10.4,4.43-10.4,11.49c0,7.02,4.33,11.49,10.4,11.49c3.73,0,6.72-1.64,8.36-5.02h8.01c-2.34,7.16-8.61,11.24-16.32,11.24
			c-10,0-17.62-7.31-17.62-17.72C705.46,1147.47,713.08,1140.1,723.08,1140.1z"/>
		<path class="st1" d="M753.36,1159.81v15.48h-6.97v-34.73h6.97v15.58l12.64-15.58h8.41l-14.33,17.22l14.73,17.52h-8.81
			L753.36,1159.81z"/>
		<path class="st1" d="M790.35,1140.55h7.86l7.47,15.87l7.41-15.87h7.76l-11.74,22.64v12.09h-6.97v-12.09L790.35,1140.55z"/>
		<path class="st1" d="M842.02,1175.63c-9.8,0-17.81-7.36-17.81-17.81c0-10.4,8.01-17.76,17.81-17.76c9.9,0,17.76,7.36,17.76,17.76
			C859.78,1168.27,851.87,1175.63,842.02,1175.63z M842.02,1169.41c6.27,0,10.6-4.53,10.6-11.6c0-7.07-4.33-11.49-10.6-11.49
			c-6.32,0-10.65,4.43-10.65,11.49C831.37,1164.88,835.7,1169.41,842.02,1169.41z"/>
		<path class="st1" d="M865.87,1140.55h6.97v21.49c0,4.78,2.59,7.27,7.02,7.27c4.48,0,7.07-2.49,7.07-7.27v-21.49h7.02V1162
			c0,9.16-6.57,13.63-14.18,13.63s-13.88-4.48-13.88-13.63V1140.55z"/>
		<path class="st1" d="M914.7,1140.55c8.36,0,12.54,4.83,12.54,10.65c0,4.23-2.34,8.51-7.91,10l8.31,14.08h-8.06l-7.67-13.53h-3.28
			v13.53h-6.97v-34.73H914.7z M914.45,1146.32h-5.82v10.2h5.82c3.89,0,5.62-2.04,5.62-5.17
			C920.08,1148.26,918.34,1146.32,914.45,1146.32z"/>
		<path class="st1" d="M962.4,1175.28h-14.98v-34.73h14.33c7.26,0,11.3,3.78,11.3,8.96c0,4.23-2.54,6.87-5.93,7.96
			c3.94,0.7,6.72,4.33,6.72,8.41C973.84,1171.4,969.61,1175.28,962.4,1175.28z M960.75,1146.17h-6.37v8.71h6.37
			c3.28,0,5.17-1.49,5.17-4.33C965.93,1147.77,964.04,1146.17,960.75,1146.17z M961.25,1160.26h-6.87v9.35h7.02
			c3.39,0,5.38-1.64,5.38-4.58C966.78,1162.05,964.63,1160.26,961.25,1160.26z"/>
		<path class="st1" d="M980.33,1140.55h6.97v21.49c0,4.78,2.59,7.27,7.02,7.27c4.48,0,7.07-2.49,7.07-7.27v-21.49h7.02V1162
			c0,9.16-6.57,13.63-14.18,13.63c-7.61,0-13.88-4.48-13.88-13.63V1140.55z"/>
		<path class="st1" d="M1028.11,1175.63c-7.21,0-12.79-3.78-12.89-10.35h7.47c0.2,2.78,2.04,4.63,5.27,4.63
			c3.28,0,5.22-1.74,5.22-4.23c0-7.51-17.91-2.99-17.86-15.58c0-6.27,5.08-10.05,12.24-10.05c7.12,0,11.99,3.63,12.44,9.9h-7.66
			c-0.15-2.29-1.99-4.08-4.98-4.13c-2.74-0.1-4.77,1.24-4.77,4.08c0,6.97,17.81,3.09,17.81,15.33
			C1040.41,1170.71,1036.03,1175.63,1028.11,1175.63z"/>
		<path class="st1" d="M1047.43,1140.55h6.97v34.73h-6.97V1140.55z"/>
		<path class="st1" d="M1091.98,1140.5v34.78h-6.97l-15.78-23.84v23.84h-6.97v-34.78h6.97l15.78,23.88v-23.88H1091.98z"/>
		<path class="st1" d="M1120.01,1146.17h-13.19v8.71h11.7v5.52h-11.7v9.21h13.19v5.67h-20.15v-34.78h20.15V1146.17z"/>
		<path class="st1" d="M1139.33,1175.63c-7.21,0-12.79-3.78-12.89-10.35h7.47c0.2,2.78,2.04,4.63,5.27,4.63
			c3.28,0,5.22-1.74,5.22-4.23c0-7.51-17.91-2.99-17.86-15.58c0-6.27,5.08-10.05,12.24-10.05c7.12,0,11.99,3.63,12.44,9.9h-7.66
			c-0.15-2.29-1.99-4.08-4.98-4.13c-2.74-0.1-4.77,1.24-4.77,4.08c0,6.97,17.81,3.09,17.81,15.33
			C1151.63,1170.71,1147.25,1175.63,1139.33,1175.63z"/>
		<path class="st1" d="M1170.65,1175.63c-7.21,0-12.79-3.78-12.89-10.35h7.47c0.2,2.78,2.04,4.63,5.27,4.63
			c3.28,0,5.22-1.74,5.22-4.23c0-7.51-17.91-2.99-17.86-15.58c0-6.27,5.08-10.05,12.24-10.05c7.12,0,11.99,3.63,12.44,9.9h-7.66
			c-0.15-2.29-1.99-4.08-4.98-4.13c-2.74-0.1-4.77,1.24-4.77,4.08c0,6.97,17.81,3.09,17.81,15.33
			C1182.94,1170.71,1178.56,1175.63,1170.65,1175.63z"/>
		<path class="st1" d="M1210.12,1146.17h-13.19v8.71h11.7v5.52h-11.7v9.21h13.19v5.67h-20.15v-34.78h20.15V1146.17z"/>
		<path class="st1" d="M1229.44,1175.63c-7.21,0-12.79-3.78-12.89-10.35h7.47c0.2,2.78,2.04,4.63,5.27,4.63
			c3.28,0,5.22-1.74,5.22-4.23c0-7.51-17.91-2.99-17.86-15.58c0-6.27,5.08-10.05,12.24-10.05c7.12,0,11.99,3.63,12.44,9.9h-7.66
			c-0.15-2.29-1.99-4.08-4.98-4.13c-2.74-0.1-4.77,1.24-4.77,4.08c0,6.97,17.81,3.09,17.81,15.33
			C1241.73,1170.71,1237.36,1175.63,1229.44,1175.63z"/>
		<path class="st1" d="M1259.77,1140.55h25.48v5.62h-9.25v29.11h-6.97v-29.11h-9.26V1140.55z"/>
		<path class="st1" d="M1304.37,1140.55c8.36,0,12.54,4.83,12.54,10.65c0,4.23-2.34,8.51-7.91,10l8.31,14.08h-8.06l-7.67-13.53
			h-3.28v13.53h-6.97v-34.73H1304.37z M1304.12,1146.32h-5.82v10.2h5.82c3.89,0,5.62-2.04,5.62-5.17
			C1309.74,1148.26,1308,1146.32,1304.12,1146.32z"/>
		<path class="st1" d="M1324.14,1140.55h6.97v21.49c0,4.78,2.59,7.27,7.02,7.27c4.48,0,7.07-2.49,7.07-7.27v-21.49h7.02V1162
			c0,9.16-6.57,13.63-14.18,13.63s-13.88-4.48-13.88-13.63V1140.55z"/>
		<path class="st1" d="M1380.09,1146.17h-13.19v8.71h11.7v5.52h-11.7v9.21h13.19v5.67h-20.15v-34.78h20.15V1146.17z"/>
		<path class="st1" d="M1413.05,1161.95h-5.82v13.34h-6.97v-34.73h12.79c8.36,0,12.54,4.73,12.54,10.75
			C1425.59,1156.57,1422.01,1161.95,1413.05,1161.95z M1412.75,1156.32c3.93,0,5.67-1.94,5.67-5.02c0-3.18-1.74-5.08-5.67-5.08
			h-5.53v10.1H1412.75z"/>
		<path class="st1" d="M1447.65,1175.63c-9.81,0-17.81-7.36-17.81-17.81c0-10.4,8.01-17.76,17.81-17.76
			c9.9,0,17.76,7.36,17.76,17.76C1465.42,1168.27,1457.5,1175.63,1447.65,1175.63z M1447.65,1169.41c6.27,0,10.6-4.53,10.6-11.6
			c0-7.07-4.32-11.49-10.6-11.49c-6.32,0-10.65,4.43-10.65,11.49C1437,1164.88,1441.33,1169.41,1447.65,1169.41z"/>
		<path class="st1" d="M1469.76,1140.55h25.48v5.62h-9.25v29.11h-6.97v-29.11h-9.26V1140.55z"/>
		<path class="st1" d="M1521.48,1146.17h-13.19v8.71h11.7v5.52h-11.7v9.21h13.19v5.67h-20.15v-34.78h20.15V1146.17z"/>
		<path class="st1" d="M1558.51,1140.5v34.78h-6.97l-15.78-23.84v23.84h-6.97v-34.78h6.97l15.78,23.88v-23.88H1558.51z"/>
		<path class="st1" d="M1564.55,1140.55h25.48v5.62h-9.25v29.11h-6.97v-29.11h-9.26V1140.55z"/>
		<path class="st1" d="M1596.11,1140.55h6.97v34.73h-6.97V1140.55z"/>
		<path class="st1" d="M1632.25,1168.66h-13.83l-2.29,6.62h-7.32l12.49-34.78h8.11l12.49,34.78h-7.37L1632.25,1168.66z
			 M1625.33,1148.56l-5.03,14.53h10.05L1625.33,1148.56z"/>
		<path class="st1" d="M1654.56,1140.55v29.21H1666v5.52h-18.41v-34.73H1654.56z"/>
	</g>
	<g>
		<path class="st1" d="M548.3,901.71c-75.52,0-136.96,61.44-136.96,136.96s61.44,136.96,136.96,136.96v-40.18
			c-46.48,0-85.42-32.94-94.69-76.7h231.65v-20.09C685.26,963.15,623.82,901.71,548.3,901.71z M453.61,1018.58
			c9.28-43.76,48.21-76.7,94.69-76.7c46.48,0,85.41,32.94,94.69,76.7H453.61z"/>
		<path class="st2" d="M548.3,824.37c-118.17,0-214.3,96.14-214.3,214.3v20.09h40.02v-20.09h0.15
			c0-96.01,78.11-174.13,174.13-174.13c96.01,0,174.13,78.11,174.13,174.13h0.15v20.09h40.02v-20.09
			C762.6,920.5,666.47,824.37,548.3,824.37z"/>
	</g>
	<rect x="548.3" y="1094.46" class="st2" width="1117.7" height="8.68"/>
</g>
</svg>
