<svg id="Layer_1" data-name="Layer 1" xmlns="http://www.w3.org/2000/svg" xmlns:xlink="http://www.w3.org/1999/xlink" viewBox="0 0 252 144"><defs><style>.cls-1{fill:#fff;}.cls-2{fill:url(#linear-gradient);}.cls-3,.cls-5{fill:#3f1d56;}.cls-4{fill:url(#linear-gradient-2);}.cls-5{opacity:0.3;}.cls-6{fill:none;}.cls-7{fill:url(#linear-gradient-3);}</style><linearGradient id="linear-gradient" x1="-3" y1="121.07" x2="48.87" y2="121.07" gradientUnits="userSpaceOnUse"><stop offset="0" stop-color="#f48073"/><stop offset="1" stop-color="#3f1d56"/></linearGradient><linearGradient id="linear-gradient-2" x1="144.76" y1="268.85" x2="105.54" y2="308.07" gradientTransform="matrix(1, 0, 0, -1, 0, 334.13)" xlink:href="#linear-gradient"/><linearGradient id="linear-gradient-3" x1="101.25" y1="303.77" x2="131.54" y2="242.11" gradientTransform="matrix(1, 0, 0, -1, 0, 334.13)" xlink:href="#linear-gradient"/></defs><rect class="cls-1" x="-3" y="-3" width="258" height="150"/><path class="cls-2" d="M47.47,147H-3V96.53a17.62,17.62,0,0,1,19.35,3.77L43.7,127.65A17.62,17.62,0,0,1,47.47,147Z"/><path class="cls-1" d="M40.39,147H-3V103.61a15,15,0,0,1,17.47,2.71l23.21,23.21A15,15,0,0,1,40.39,147Z"/><path class="cls-3" d="M67,105.54v.5H65.23v-2.48h1.71v.5H65.8v.49h1V105h-1v.53Z"/><path class="cls-3" d="M69.15,104.62V106h-.57v-2.48H69L70.18,105v-1.46h.57V106h-.46Z"/><path class="cls-3" d="M72.48,106v-2.48h.58v2h1.2v.5Z"/><path class="cls-3" d="M76.71,106.06a1.18,1.18,0,0,1-.5-.11,1.29,1.29,0,0,1-.73-1.15,1.23,1.23,0,0,1,.09-.47,1.26,1.26,0,0,1,.26-.4,1.15,1.15,0,0,1,.4-.28,1.13,1.13,0,0,1,.49-.1,1,1,0,0,1,.5.11,1.11,1.11,0,0,1,.39.28,1.33,1.33,0,0,1,.25.41,1.22,1.22,0,0,1,.09.46,1.1,1.1,0,0,1-.1.47,1.28,1.28,0,0,1-.25.4,1.39,1.39,0,0,1-.39.28A1.18,1.18,0,0,1,76.71,106.06Zm-.65-1.26a.87.87,0,0,0,0,.28.68.68,0,0,0,.12.24.65.65,0,0,0,.2.17.67.67,0,0,0,.28.06.54.54,0,0,0,.29-.07.55.55,0,0,0,.2-.17.55.55,0,0,0,.12-.24.84.84,0,0,0,0-.27.86.86,0,0,0,0-.28.9.9,0,0,0-.12-.24.65.65,0,0,0-.21-.16.68.68,0,0,0-.56,0,.55.55,0,0,0-.2.17.55.55,0,0,0-.12.24A.86.86,0,0,0,76.06,104.8Z"/><path class="cls-3" d="M79.39,104.78a1.2,1.2,0,0,1,.09-.45,1.06,1.06,0,0,1,.24-.39,1.21,1.21,0,0,1,.39-.28,1.1,1.1,0,0,1,.52-.11,1.17,1.17,0,0,1,.61.15,1,1,0,0,1,.38.39l-.44.31a.69.69,0,0,0-.1-.17l-.15-.1-.15-.06h-.16a.68.68,0,0,0-.29.06.82.82,0,0,0-.2.17.9.9,0,0,0-.12.24,1.26,1.26,0,0,0,0,.27.87.87,0,0,0,0,.28.7.7,0,0,0,.13.24.68.68,0,0,0,.21.17.6.6,0,0,0,.27.06l.16,0a.47.47,0,0,0,.15-.06.45.45,0,0,0,.14-.1.54.54,0,0,0,.1-.16l.47.27a.62.62,0,0,1-.17.25.94.94,0,0,1-.25.18,1.08,1.08,0,0,1-.3.11,1.17,1.17,0,0,1-.32,0,1.14,1.14,0,0,1-.49-.11,1.24,1.24,0,0,1-.39-.29,1.33,1.33,0,0,1-.25-.41A1.31,1.31,0,0,1,79.39,104.78Z"/><path class="cls-3" d="M83.19,106v-2.48h.58v1.07l.9-1.07h.65l-.93,1.11,1,1.37h-.65L84,105l-.25.27V106Z"/><path class="cls-3" d="M89.11,103.56l.54,1.14.54-1.14h.62l-.88,1.63V106h-.57v-.85l-.87-1.63Z"/><path class="cls-3" d="M93.22,106.06a1.15,1.15,0,0,1-.5-.11,1.11,1.11,0,0,1-.39-.28,1.28,1.28,0,0,1-.25-1.34,1.11,1.11,0,0,1,.26-.4,1.21,1.21,0,0,1,.39-.28,1.18,1.18,0,0,1,.5-.1,1,1,0,0,1,.5.11,1.21,1.21,0,0,1,.39.28,1.33,1.33,0,0,1,.25.41,1.44,1.44,0,0,1,.08.46,1.27,1.27,0,0,1-.09.47,1.5,1.5,0,0,1-.25.4,1.3,1.3,0,0,1-.4.28A1.13,1.13,0,0,1,93.22,106.06Zm-.65-1.26a1.26,1.26,0,0,0,0,.28.7.7,0,0,0,.13.24.55.55,0,0,0,.2.17.64.64,0,0,0,.28.06.54.54,0,0,0,.29-.07.55.55,0,0,0,.2-.17.9.9,0,0,0,.12-.24.84.84,0,0,0,0-.27.86.86,0,0,0,0-.28.7.7,0,0,0-.13-.24.53.53,0,0,0-.2-.16.68.68,0,0,0-.56,0,.68.68,0,0,0-.21.17.9.9,0,0,0-.12.24A1.26,1.26,0,0,0,92.57,104.8Z"/><path class="cls-3" d="M97.11,105.55a.45.45,0,0,0,.41-.22.92.92,0,0,0,.09-.23,1.23,1.23,0,0,0,0-.27v-1.27h.58v1.27a1.51,1.51,0,0,1-.07.48,1,1,0,0,1-.2.39.88.88,0,0,1-.34.26,1.07,1.07,0,0,1-.49.1,1.13,1.13,0,0,1-.51-.1,1,1,0,0,1-.53-.66,1.84,1.84,0,0,1-.06-.47v-1.27h.57v1.27a1.24,1.24,0,0,0,0,.27.79.79,0,0,0,.09.23.41.41,0,0,0,.16.16A.49.49,0,0,0,97.11,105.55Z"/><path class="cls-3" d="M99.91,106v-2.48H101a.88.88,0,0,1,.33.07.82.82,0,0,1,.25.2.77.77,0,0,1,.17.27.8.8,0,0,1,.06.3,1.5,1.5,0,0,1,0,.22,1.19,1.19,0,0,1-.08.2.81.81,0,0,1-.3.3l.54.92h-.64l-.48-.8h-.37v.8Zm.57-1.3H101a.23.23,0,0,0,.18-.09.41.41,0,0,0,.07-.25.41.41,0,0,0-.08-.25.26.26,0,0,0-.18-.09h-.51Z"/><path class="cls-3" d="M107.62,105.4a.52.52,0,0,1-.25.48.85.85,0,0,1-.27.12,1.12,1.12,0,0,1-.32,0h-1.21v-2.48H107a.48.48,0,0,1,.24.06.55.55,0,0,1,.17.14.82.82,0,0,1,.12.2,1,1,0,0,1,0,.24.63.63,0,0,1-.09.33.53.53,0,0,1-.27.24.72.72,0,0,1,.34.22A.69.69,0,0,1,107.62,105.4Zm-1.48-1.35v.51h.57a.23.23,0,0,0,.16-.06.25.25,0,0,0,.08-.2.21.21,0,0,0-.07-.18.18.18,0,0,0-.15-.07Zm.9,1.24a.29.29,0,0,0-.07-.2.21.21,0,0,0-.17-.08h-.66v.54h.64a.26.26,0,0,0,.19-.07A.29.29,0,0,0,107,105.29Z"/><path class="cls-3" d="M110.28,105.55a.49.49,0,0,0,.25-.06.41.41,0,0,0,.16-.16.65.65,0,0,0,.09-.23,1.24,1.24,0,0,0,0-.27v-1.27h.57v1.27a1.86,1.86,0,0,1-.06.48,1.2,1.2,0,0,1-.2.39,1,1,0,0,1-.34.26,1.12,1.12,0,0,1-.5.1,1,1,0,0,1-.85-.37,1.18,1.18,0,0,1-.19-.39,1.84,1.84,0,0,1-.06-.47v-1.27h.57v1.27a1.24,1.24,0,0,0,0,.27.79.79,0,0,0,.09.23.44.44,0,0,0,.17.16A.43.43,0,0,0,110.28,105.55Z"/><path class="cls-3" d="M114.57,104.29a.21.21,0,0,0-.08-.05l-.15-.09-.21-.07a.83.83,0,0,0-.22,0c-.21,0-.31.07-.31.21a.17.17,0,0,0,0,.1l.1.08.16.06.23.06a2,2,0,0,1,.32.11.68.68,0,0,1,.25.14.8.8,0,0,1,.15.21.84.84,0,0,1,0,.29.63.63,0,0,1-.08.35.68.68,0,0,1-.2.24,1,1,0,0,1-.3.13,2,2,0,0,1-.35,0l-.28,0-.27-.06-.27-.1a1.71,1.71,0,0,1-.23-.13l.25-.5.09.07.19.1.25.08a.9.9,0,0,0,.28,0c.21,0,.31-.06.31-.18a.17.17,0,0,0,0-.12.36.36,0,0,0-.12-.08l-.19-.07-.24-.07a1.72,1.72,0,0,1-.3-.11,1.1,1.1,0,0,1-.21-.14.76.76,0,0,1-.12-.19.61.61,0,0,1,0-.24,1,1,0,0,1,.07-.35.82.82,0,0,1,.2-.25,1,1,0,0,1,.3-.16,1.29,1.29,0,0,1,.35,0l.25,0,.24.07.22.08.18.1Z"/><path class="cls-3" d="M116.48,106v-2.48h.58V106Z"/><path class="cls-3" d="M119.36,104.62V106h-.57v-2.48h.45l1.15,1.46v-1.46H121V106h-.46Z"/><path class="cls-3" d="M124.44,105.54v.5h-1.75v-2.48h1.71v.5h-1.13v.49h1V105h-1v.53Z"/><path class="cls-3" d="M127.48,104.29a.21.21,0,0,0-.08-.05l-.15-.09-.21-.07a.83.83,0,0,0-.22,0c-.21,0-.31.07-.31.21a.17.17,0,0,0,0,.1l.1.08.16.06.23.06a2,2,0,0,1,.32.11.57.57,0,0,1,.24.14.65.65,0,0,1,.16.21.84.84,0,0,1,0,.29.63.63,0,0,1-.08.35.68.68,0,0,1-.2.24,1,1,0,0,1-.3.13,2,2,0,0,1-.35,0l-.28,0-.28-.06-.26-.1a1.71,1.71,0,0,1-.23-.13l.25-.5.09.07.19.1.25.08a.9.9,0,0,0,.28,0c.21,0,.31-.06.31-.18a.17.17,0,0,0,0-.12.36.36,0,0,0-.12-.08l-.19-.07-.24-.07a1.46,1.46,0,0,1-.3-.11,1.1,1.1,0,0,1-.21-.14.76.76,0,0,1-.12-.19.61.61,0,0,1,0-.24A.78.78,0,0,1,126,104a.82.82,0,0,1,.2-.25,1,1,0,0,1,.29-.16,1.34,1.34,0,0,1,.35,0l.26,0,.24.07.22.08.18.1Z"/><path class="cls-3" d="M130.88,104.29l-.07-.05-.16-.09-.21-.07a.83.83,0,0,0-.22,0c-.2,0-.31.07-.31.21a.13.13,0,0,0,0,.1.36.36,0,0,0,.09.08l.17.06.22.06a2,2,0,0,1,.32.11.68.68,0,0,1,.25.14.8.8,0,0,1,.15.21.65.65,0,0,1,0,.29.73.73,0,0,1-.07.35.83.83,0,0,1-.21.24,1,1,0,0,1-.3.13,2,2,0,0,1-.34,0l-.28,0-.28-.06-.27-.1a1.71,1.71,0,0,1-.23-.13l.25-.5.09.07.19.1.25.08a1,1,0,0,0,.29,0q.3,0,.3-.18a.13.13,0,0,0-.05-.12.36.36,0,0,0-.12-.08.84.84,0,0,0-.19-.07L130,105a2.09,2.09,0,0,1-.3-.11.78.78,0,0,1-.2-.14.59.59,0,0,1-.13-.19.86.86,0,0,1,0-.24.78.78,0,0,1,.08-.35.69.69,0,0,1,.2-.25.9.9,0,0,1,.29-.16,1.29,1.29,0,0,1,.35,0l.25,0,.24.07.22.08.18.1Z"/><path class="cls-3" d="M134.54,105.54v.5H132.8v-2.48h1.71v.5h-1.14v.49h1V105h-1v.53Z"/><path class="cls-3" d="M137.58,104.29l-.07-.05-.16-.09-.21-.07a.83.83,0,0,0-.22,0c-.21,0-.31.07-.31.21a.13.13,0,0,0,0,.1.36.36,0,0,0,.09.08l.17.06.22.06a2,2,0,0,1,.32.11.68.68,0,0,1,.25.14.8.8,0,0,1,.15.21.65.65,0,0,1,.05.29.73.73,0,0,1-.07.35.83.83,0,0,1-.21.24,1,1,0,0,1-.3.13,2,2,0,0,1-.34,0l-.28,0-.28-.06-.27-.1a1.71,1.71,0,0,1-.23-.13l.25-.5.09.07.19.1.25.08a1,1,0,0,0,.29,0q.3,0,.3-.18a.17.17,0,0,0,0-.12.36.36,0,0,0-.12-.08l-.19-.07-.24-.07a1.72,1.72,0,0,1-.3-.11,1.1,1.1,0,0,1-.21-.14.76.76,0,0,1-.12-.19.86.86,0,0,1,0-.24.78.78,0,0,1,.08-.35.67.67,0,0,1,.19-.25,1.08,1.08,0,0,1,.3-.16,1.29,1.29,0,0,1,.35,0l.25,0,.24.07.22.08.18.1Z"/><path class="cls-3" d="M143.36,104.06h-.76v2H142v-2h-.76v-.5h2.09Z"/><path class="cls-3" d="M144.89,106v-2.48H146a.83.83,0,0,1,.32.07.86.86,0,0,1,.26.2,1,1,0,0,1,.17.27.8.8,0,0,1,.06.3.78.78,0,0,1,0,.22.79.79,0,0,1-.21.37.76.76,0,0,1-.17.13l.55.92h-.65l-.47-.8h-.38v.8Zm.57-1.3H146a.21.21,0,0,0,.17-.09.41.41,0,0,0,.08-.25.37.37,0,0,0-.09-.25.23.23,0,0,0-.18-.09h-.51Z"/><path class="cls-3" d="M149.55,105.55a.49.49,0,0,0,.25-.06.41.41,0,0,0,.16-.16.5.5,0,0,0,.09-.23,1.24,1.24,0,0,0,0-.27v-1.27h.57v1.27a1.86,1.86,0,0,1-.06.48,1.2,1.2,0,0,1-.2.39,1,1,0,0,1-.34.26,1.12,1.12,0,0,1-.5.1,1.09,1.09,0,0,1-.5-.1.93.93,0,0,1-.34-.27,1,1,0,0,1-.2-.39,1.84,1.84,0,0,1-.06-.47v-1.27H149v1.27a1.23,1.23,0,0,0,0,.27.79.79,0,0,0,.09.23.52.52,0,0,0,.17.16A.43.43,0,0,0,149.55,105.55Z"/><path class="cls-3" d="M154.09,105.54v.5h-1.74v-2.48h1.71v.5h-1.14v.49h1V105h-1v.53Z"/><path class="cls-3" d="M157.77,106v-2.48h1.06a.83.83,0,0,1,.32.07.86.86,0,0,1,.26.2,1.24,1.24,0,0,1,.17.27.8.8,0,0,1,.06.3.81.81,0,0,1-.06.31.92.92,0,0,1-.16.27.79.79,0,0,1-.25.19.72.72,0,0,1-.33.07h-.5v.8Zm.57-1.3h.47a.2.2,0,0,0,.17-.09.36.36,0,0,0,.08-.25.33.33,0,0,0,0-.15.24.24,0,0,0-.06-.11l-.08-.06-.1,0h-.45Z"/><path class="cls-3" d="M162.29,106.06a1.23,1.23,0,0,1-.51-.11,1.08,1.08,0,0,1-.38-.28,1.28,1.28,0,0,1-.25-1.34,1.11,1.11,0,0,1,.26-.4,1.21,1.21,0,0,1,.39-.28,1.18,1.18,0,0,1,.5-.1,1,1,0,0,1,.5.11,1.21,1.21,0,0,1,.39.28,1.3,1.3,0,0,1,.24.41,1.22,1.22,0,0,1,.09.46,1.27,1.27,0,0,1-.09.47,1.31,1.31,0,0,1-.26.4,1.39,1.39,0,0,1-.39.28A1.13,1.13,0,0,1,162.29,106.06Zm-.65-1.26a.86.86,0,0,0,0,.28.7.7,0,0,0,.13.24.55.55,0,0,0,.2.17.64.64,0,0,0,.28.06.57.57,0,0,0,.29-.07.65.65,0,0,0,.2-.17.9.9,0,0,0,.12-.24.84.84,0,0,0,0-.27.86.86,0,0,0,0-.28.7.7,0,0,0-.13-.24.53.53,0,0,0-.2-.16.64.64,0,0,0-.28-.06.61.61,0,0,0-.28.06.68.68,0,0,0-.21.17.9.9,0,0,0-.12.24A.84.84,0,0,0,161.64,104.8Z"/><path class="cls-3" d="M166.88,104.06h-.75v2h-.57v-2h-.76v-.5h2.08Z"/><path class="cls-3" d="M170.16,105.54v.5h-1.74v-2.48h1.71v.5H169v.49h1V105h-1v.53Z"/><path class="cls-3" d="M172.34,104.62V106h-.57v-2.48h.44l1.16,1.46v-1.46h.57V106h-.46Z"/><path class="cls-3" d="M177.56,104.06h-.75v2h-.57v-2h-.76v-.5h2.08Z"/><path class="cls-3" d="M179.1,106v-2.48h.57V106Z"/><path class="cls-3" d="M182.08,103.56h.51l.91,2.48h-.59l-.19-.56H182l-.19.56h-.59Zm.54,1.53-.29-.88-.29.88Z"/><path class="cls-3" d="M185,106v-2.48h.57v2h1.2v.5Z"/><path class="cls-3" d="M80,81.4v3.07H71.18a2.89,2.89,0,0,0-2,.6,2.16,2.16,0,0,0-.62,1.62c0,1.39.89,2.09,2.68,2.09h8.67v2.79H71.13c-1.8,0-2.69.71-2.69,2.14a2.09,2.09,0,0,0,.65,1.63,2.94,2.94,0,0,0,2,.59H80V99H71.1a8.64,8.64,0,0,1-2.67-.37,5.17,5.17,0,0,1-1.83-1,3.7,3.7,0,0,1-1-1.53,5.44,5.44,0,0,1-.33-1.91,4.57,4.57,0,0,1,.65-2.51,4.1,4.1,0,0,1,1.88-1.53,3.89,3.89,0,0,1-2.48-4,5.26,5.26,0,0,1,.34-1.93,3.88,3.88,0,0,1,1.06-1.53,4.82,4.82,0,0,1,1.82-1,8.76,8.76,0,0,1,2.68-.35Z"/><path class="cls-3" d="M97.73,85.23q3.52,0,5.24,1.58a5.77,5.77,0,0,1,1.7,4.45V99h-2.79V91.26a3.15,3.15,0,0,0-1-2.51,4.75,4.75,0,0,0-3.17-.86H93.22c-.22,0-.34.13-.34.39V99H90.12V87.37a2.39,2.39,0,0,1,.44-1.68,2,2,0,0,1,1.49-.46Z"/><path class="cls-3" d="M117.59,79.26V99h-2.77V79.26Z"/><path class="cls-3" d="M136,85.23a5.72,5.72,0,0,1,4.36,1.71A7.29,7.29,0,0,1,142,92.12c0,2.33-.53,4.06-1.61,5.19A5.75,5.75,0,0,1,136,99h-2.9a5.74,5.74,0,0,1-4.37-1.7,7.36,7.36,0,0,1-1.6-5.19,7.36,7.36,0,0,1,1.6-5.19,5.74,5.74,0,0,1,4.37-1.7Zm-2.63,2.66a3.24,3.24,0,0,0-2.63,1,5.13,5.13,0,0,0-.82,3.24,5.06,5.06,0,0,0,.82,3.22,3.27,3.27,0,0,0,2.63,1h2.37a3.25,3.25,0,0,0,2.62-1,5,5,0,0,0,.82-3.22,5.06,5.06,0,0,0-.82-3.24,3.22,3.22,0,0,0-2.62-1Z"/><path class="cls-3" d="M164,85.23v2.66h-6.84a3.22,3.22,0,0,0-2.62,1,5.06,5.06,0,0,0-.82,3.24,5,5,0,0,0,.82,3.22,3.25,3.25,0,0,0,2.62,1H164V99h-7.1a5.74,5.74,0,0,1-4.37-1.7q-1.6-1.69-1.6-5.19t1.6-5.19a5.74,5.74,0,0,1,4.37-1.7Z"/><path class="cls-3" d="M176.31,79.26V90.94h1.28c.54,0,1,0,1.34,0a2.74,2.74,0,0,0,.9-.19,1.8,1.8,0,0,0,.63-.47,7.09,7.09,0,0,0,.57-.86l2.3-4.15h3l-2.4,4.33a8.31,8.31,0,0,1-1.07,1.5,4.13,4.13,0,0,1-1.39,1,3.47,3.47,0,0,1,1.6.93,9.49,9.49,0,0,1,1.22,1.73L186.77,99h-3.1l-2.3-4.07a5.53,5.53,0,0,0-.6-.88,1.78,1.78,0,0,0-.69-.49,3.27,3.27,0,0,0-1-.24q-.59-.06-1.5-.06h-1.28V99h-2.77V79.26Z"/><path class="cls-4" d="M146.57,76.5a80.55,80.55,0,0,0-5.64-12.26q-.57-1-1.17-2,3-3,5.71-6.3,2.92-3.57,5.59-7.3c.88-1.24,1.81-2.44,2.64-3.77s1.51-2.66,2.33-4c-1.09,1.07-2.11,2.23-3.14,3.32-.52.55-1,1-1.62,1.57l-1.66,1.57c-2.21,2.08-4.39,4.17-6.65,6.16-1.87,1.66-3.77,3.27-5.72,4.79-.43-.63-.87-1.26-1.32-1.87a70.88,70.88,0,0,0-7.28-8.53c-16.81-8-22.62,0-22.62,0a5.56,5.56,0,0,1,2.62-1.71,7.82,7.82,0,0,1,5.81.74l.72.41.85.57c.57.39,1.15.75,1.69,1.19s1.11.81,1.63,1.27l1.59,1.36a61.15,61.15,0,0,1,8.21,9.33c.45.62.89,1.24,1.31,1.88-.54.31-1.09.62-1.64.9l-.37.19a25.68,25.68,0,0,1-7.22,2.51,17.38,17.38,0,0,1-3.72.18A13,13,0,0,1,114,66a14.76,14.76,0,0,1-1.65-.69c-.54-.28-1.07-.57-1.59-.9a17.16,17.16,0,0,1-1.52-1.1c-.49-.41-1-.81-1.4-1.21a13.23,13.23,0,0,1-3.23-5c1.39,5.1,5.68,12.64,18.8,15.72a31.14,31.14,0,0,0,8.1-3.83l.27-.17c.55-.37,1.08-.76,1.6-1.15l.52.9c.2.39.4.77.61,1.15.46.89.93,1.78,1.36,2.69.64,1.33,1.24,2.68,1.8,4Z"/><polygon class="cls-5" points="130.45 62.96 135.01 55.23 137.24 58.31 130.45 62.96"/><path class="cls-6" d="M104,53.31a18,18,0,0,0,.62,3.84c-.1-.3-.19-.59-.27-.89A10.35,10.35,0,0,1,104,53.31Z"/><path class="cls-7" d="M106,47.92a8,8,0,0,0-1.3,2.09,8.47,8.47,0,0,0-.72,3.3,11.27,11.27,0,0,1,0-1.21,11.27,11.27,0,0,0,0,1.21,10.35,10.35,0,0,0,.35,2.95c.08.3.17.59.27.89,1.39,5.1,5.68,12.64,18.8,15.72l-.78.23a22.23,22.23,0,0,1-5.32.72,20.58,20.58,0,0,1-5.45-.74,19.56,19.56,0,0,1-2.61-.89c-.82-.38-1.65-.78-2.43-1.22a25.92,25.92,0,0,1-2.23-1.46,21.16,21.16,0,0,1-2.1-1.68,20,20,0,0,1-5.88-9.47,17.25,17.25,0,0,1,.77-11.55,15.65,15.65,0,0,1,3.44-5,13.72,13.72,0,0,1,5.48-3.23,14.76,14.76,0,0,1,6.17-.52,17.26,17.26,0,0,1,5.65,1.77l1.26.71,1,.69c.7.46,1.41.9,2,1.41s1.34,1,2,1.51l1.88,1.58c.79.72,1.56,1.45,2.31,2.2C111.83,39.92,106,47.92,106,47.92Z"/></svg>